<svg width="165" height="165" viewBox="0 0 165 165" fill="none" xmlns="http://www.w3.org/2000/svg">
<g clip-path="url(#clip0_1_72)">
<path d="M81.5 3C124.832 3 160 38.168 160 81.5C160 124.832 124.832 160 81.5 160C38.168 160 3 124.832 3 81.5C3 38.168 38.168 3 81.5 3Z" fill="#FBCC5C"/>
<path d="M127.657 72.0814C127.657 51.6714 111.172 35.1864 90.7624 35.1864C75.6904 35.1864 62.6594 44.2924 57.0075 57.3234C44.1335 63.1324 35.1844 76.0064 35.1844 90.9214C35.1844 111.331 51.6694 127.816 72.0794 127.816C87.1514 127.816 100.182 118.71 105.834 105.679C118.865 100.027 127.657 87.1534 127.657 72.0814ZM96.7284 96.4164C94.8444 96.8874 92.9604 97.0444 91.0764 97.0444C77.2604 97.0444 66.1134 85.7404 66.1134 72.0814C66.1134 70.1974 66.2704 68.4704 66.7414 66.7434C68.6254 66.2724 70.5094 66.1154 72.3934 66.1154C86.2094 66.1154 97.3564 77.2624 97.3564 91.0784C97.1994 92.9624 97.0424 94.6894 96.7284 96.4164ZM47.2734 91.0784C47.2734 84.3274 49.9424 78.3614 54.1814 73.8084C55.1234 92.9624 70.5094 108.191 89.6634 108.976C85.1104 113.372 78.9874 116.198 72.2364 116.198C58.4204 116.041 47.2734 104.894 47.2734 91.0784ZM109.131 89.3514C108.189 70.1974 92.8034 54.9684 73.6494 54.1834C78.2024 49.7874 84.3254 46.9614 91.0764 46.9614C104.892 46.9614 116.039 58.1084 116.039 71.9244C115.882 78.8324 113.213 84.9554 109.131 89.3514Z" fill="#F9B73E"/>
<path d="M126.401 72.0814C126.401 52.6134 110.544 36.7564 91.0758 36.7564C76.3178 36.7564 63.7578 45.7054 58.4198 58.5794C45.8598 63.9174 36.9108 76.4774 36.9108 91.0784C36.9108 110.546 52.7678 126.403 72.2358 126.403C86.9938 126.403 99.5538 117.454 104.892 104.58C117.295 99.2424 126.401 86.6824 126.401 72.0814ZM72.2358 117.611C57.6348 117.611 45.7028 105.679 45.7028 91.0784C45.7028 82.7574 49.6278 75.2214 55.7508 70.3544C55.7508 70.9824 55.7508 71.6104 55.7508 72.0814C55.7508 91.5494 71.6078 107.406 91.0758 107.406C91.8608 107.406 92.4888 107.406 93.2738 107.406C88.2498 113.686 80.7138 117.611 72.2358 117.611ZM97.9838 97.6724C95.7858 98.3004 93.4308 98.6144 91.0758 98.6144C76.4748 98.6144 64.5428 86.6824 64.5428 72.0814C64.5428 69.7264 64.8568 67.5284 65.4848 65.4874C67.6828 64.8594 70.0378 64.5454 72.3928 64.5454C86.9938 64.5454 98.9258 76.4774 98.9258 91.0784C98.7688 93.4334 98.4548 95.6314 97.9838 97.6724ZM107.561 92.8054C107.561 92.1774 107.561 91.5494 107.561 91.0784C107.561 71.6104 91.7038 55.7534 72.2358 55.7534C71.4508 55.7534 70.8228 55.7534 70.0378 55.7534C74.9048 49.4734 82.4408 45.5484 90.9188 45.5484C105.52 45.5484 117.452 57.4804 117.452 72.0814C117.452 80.5594 113.527 87.9384 107.561 92.8054Z" fill="white"/>
</g>
<mask id="mask0_1_72" style="mask-type:alpha" maskUnits="userSpaceOnUse" x="0" y="0" width="165" height="165">
<path fill-rule="evenodd" clip-rule="evenodd" d="M0.0364166 81.1444C-0.387463 68.479 2.93405 57.0347 7.65111 47.4366C20.6918 19.4209 49.0946 0 82.0333 0C82.1421 0 82.2509 0.000211889 82.3596 0.000635277C82.4692 0.000211824 82.5788 0 82.6885 0C107.187 0 130.001 10.6743 145.581 29.0009V19.3892H155.249V45.0331C160.868 56.1412 164.035 68.7015 164.035 82.0013C164.035 104.431 155.03 124.756 140.438 139.561C140.389 139.704 140.34 139.847 140.291 139.991C124.711 155.521 103.993 164.074 81.9579 164.074C57.4598 164.074 34.6457 153.4 19.065 135.073V144.685H9.39779L9.39779 120.094C3.41648 108.712 0.0320314 95.7517 0.0320314 82.0013C0.0320314 81.7153 0.0334957 81.4297 0.0364166 81.1444ZM27.9319 128.581L35.5293 128.584L35.5328 118.948L20.9327 118.943C14.4029 108.165 10.644 95.5224 10.644 82.0013C10.644 42.574 42.6061 10.6119 82.0333 10.6119C103.695 10.6119 123.104 20.2599 136.196 35.4932L129.117 35.4906L129.114 45.1264L143.177 45.1314C149.68 55.893 153.423 68.5101 153.423 82.0013C153.423 121.429 121.461 153.391 82.0333 153.391C60.4053 153.391 41.0236 143.773 27.9319 128.581Z" fill="black"/>
</mask>
<g mask="url(#mask0_1_72)">
<mask id="path-5-inside-1_1_72" fill="white">
<ellipse cx="81.8263" cy="81.7361" rx="96.5386" ry="60.3366" transform="rotate(-132.741 81.8263 81.7361)"/>
</mask>
<path d="M123.799 127.157C81.4573 166.285 35.6443 158.308 25.1614 155.45C17.9851 153.493 13.8158 151.106 12.1674 150.058C11.2133 149.451 10.6115 148.98 10.2891 148.71C9.96147 148.435 9.82283 148.285 9.81749 148.279L242.461 -66.7056C207.445 -104.598 161.276 -135.766 108.501 -150.158C58.267 -163.857 -24.3695 -167.231 -91.1851 -105.487L123.799 127.157ZM9.81749 148.279C9.81215 148.273 9.67289 148.123 9.42491 147.775C9.18095 147.432 8.75869 146.795 8.22906 145.796C7.314 144.07 5.26339 139.726 3.87782 132.418C1.85381 121.742 -2.48901 75.4432 39.8531 36.3152L254.838 268.959C321.653 207.215 324.8 124.57 315.101 73.4123C304.912 19.6684 277.477 -28.8135 242.461 -66.7056L9.81749 148.279ZM39.8531 36.3152C82.1952 -2.81289 128.008 5.16382 138.491 8.02253C145.667 9.97954 149.837 12.366 151.485 13.4142C152.439 14.0209 153.041 14.492 153.363 14.7622C153.691 15.0368 153.83 15.1875 153.835 15.1933L-78.8087 230.178C-43.7929 268.07 2.37707 299.238 55.1512 313.63C105.386 327.329 188.022 330.703 254.838 268.959L39.8531 36.3152ZM153.835 15.1933C153.84 15.199 153.98 15.3491 154.228 15.6974C154.472 16.04 154.894 16.6771 155.424 17.6761C156.339 19.4019 158.389 23.7462 159.775 31.0544C161.799 41.7299 166.142 88.029 123.799 127.157L-91.1851 -105.487C-158.001 -43.743 -161.147 38.9025 -151.448 90.06C-141.259 143.804 -113.825 192.286 -78.8087 230.178L153.835 15.1933Z" fill="#FF7070" fill-opacity="0.5" mask="url(#path-5-inside-1_1_72)"/>
<mask id="path-7-inside-2_1_72" fill="white">
<ellipse cx="81.7876" cy="82.7185" rx="96.5386" ry="60.3366" transform="rotate(-177.741 81.7876 82.7185)"/>
</mask>
<path d="M143.585 85.1564C141.312 142.765 103.277 169.519 93.8429 174.91C87.3847 178.601 82.749 179.861 80.8423 180.286C79.7387 180.531 78.9799 180.624 78.5609 180.661C78.135 180.698 77.9305 180.69 77.9226 180.689L90.4096 -135.832C38.8559 -137.866 -15.8306 -127.258 -63.324 -100.117C-108.532 -74.2831 -169.35 -18.2358 -172.936 72.6694L143.585 85.1564ZM77.9226 180.689C77.9148 180.689 77.7102 180.681 77.2886 180.61C76.8738 180.541 76.1247 180.389 75.0438 180.057C73.1765 179.484 68.6545 177.862 62.5071 173.674C53.5272 167.556 17.718 137.889 19.9907 80.2805L336.512 92.7675C340.098 1.86229 283.884 -58.802 240.852 -88.1175C195.644 -118.915 141.963 -133.798 90.4096 -135.832L77.9226 180.689ZM19.9907 80.2805C22.2634 22.6724 60.2984 -4.0819 69.7324 -9.47302C76.1906 -13.1636 80.8263 -14.4243 82.733 -14.8487C83.8366 -15.0943 84.5954 -15.1868 85.0143 -15.2237C85.4402 -15.2611 85.6448 -15.2526 85.6527 -15.2523L73.1657 301.269C124.719 303.303 179.406 292.695 226.899 265.554C272.107 239.72 332.925 183.673 336.512 92.7675L19.9907 80.2805ZM85.6527 -15.2523C85.6605 -15.252 85.8651 -15.2444 86.2867 -15.1735C86.7015 -15.1037 87.4506 -14.9518 88.5314 -14.6199C90.3988 -14.0466 94.9207 -12.4247 101.068 -8.23681C110.048 -2.11924 145.857 27.5483 143.585 85.1564L-172.936 72.6694C-176.523 163.575 -120.309 224.239 -77.2766 253.554C-32.0689 284.352 21.612 299.235 73.1657 301.269L85.6527 -15.2523Z" fill="#FFF970" fill-opacity="0.5" mask="url(#path-7-inside-2_1_72)"/>
<mask id="path-9-inside-3_1_72" fill="white">
<ellipse cx="81.7876" cy="82.7188" rx="96.5386" ry="60.3366" transform="rotate(-87.7408 81.7876 82.7188)"/>
</mask>
<path d="M79.3496 144.516C21.7415 142.243 -5.01282 104.208 -10.4039 94.774C-14.0946 88.3158 -15.3552 83.6801 -15.7796 81.7734C-16.0253 80.6698 -16.1177 79.911 -16.1546 79.492C-16.1921 79.0662 -16.1836 78.8616 -16.1833 78.8537L300.338 91.3407C302.372 39.787 291.764 -14.8995 264.623 -62.3929C238.789 -107.601 182.742 -168.419 91.8366 -172.005L79.3496 144.516ZM-16.1833 78.8537C-16.1829 78.8459 -16.1753 78.6413 -16.1044 78.2197C-16.0346 77.8049 -15.8827 77.0558 -15.5509 75.9749C-14.9776 74.1076 -13.3556 69.5857 -9.16773 63.4382C-3.05016 54.4583 26.6174 18.6491 84.2255 20.9218L71.7385 337.443C162.644 341.029 223.308 284.815 252.624 241.783C283.421 196.575 298.304 142.894 300.338 91.3407L-16.1833 78.8537ZM84.2255 20.9218C141.834 23.1945 168.588 61.2295 173.979 70.6635C177.67 77.1217 178.93 81.7574 179.355 83.6641C179.6 84.7677 179.693 85.5265 179.73 85.9454C179.767 86.3713 179.759 86.5759 179.758 86.5838L-136.763 74.0968C-138.797 125.65 -128.189 180.337 -101.048 227.83C-75.214 273.038 -19.1667 333.857 71.7385 337.443L84.2255 20.9218ZM179.758 86.5838C179.758 86.5916 179.75 86.7962 179.679 87.2178C179.61 87.6326 179.458 88.3817 179.126 89.4625C178.553 91.3299 176.931 95.8518 172.743 101.999C166.625 110.979 136.958 146.788 79.3496 144.516L91.8366 -172.005C0.931368 -175.592 -59.7329 -119.378 -89.0484 -76.3455C-119.846 -31.1378 -134.729 22.5431 -136.763 74.0968L179.758 86.5838Z" fill="#70E5FF" fill-opacity="0.5" mask="url(#path-9-inside-3_1_72)"/>
<mask id="path-11-inside-4_1_72" fill="white">
<ellipse cx="81.8263" cy="81.7363" rx="96.5386" ry="60.3366" transform="rotate(137.259 81.8263 81.7363)"/>
</mask>
<path d="M127.247 39.7631C166.375 82.1052 158.399 127.918 155.54 138.401C153.583 145.577 151.196 149.747 150.148 151.395C149.542 152.349 149.07 152.951 148.8 153.273C148.526 153.601 148.375 153.74 148.369 153.745L-66.6155 -78.8987C-104.508 -43.8829 -135.676 2.28709 -150.068 55.0612C-163.767 105.296 -167.14 187.932 -105.397 254.748L127.247 39.7631ZM148.369 153.745C148.363 153.75 148.213 153.89 147.865 154.138C147.522 154.382 146.885 154.804 145.886 155.334C144.161 156.249 139.816 158.299 132.508 159.685C121.832 161.709 75.5334 166.052 36.4053 123.709L269.049 -91.2751C207.305 -158.091 124.66 -161.237 73.5024 -151.538C19.7585 -141.349 -28.7234 -113.915 -66.6155 -78.8987L148.369 153.745ZM36.4053 123.709C-2.72273 81.3674 5.25398 35.5543 8.11269 25.0714C10.0697 17.8951 12.4562 13.7258 13.5043 12.0774C14.111 11.1233 14.5822 10.5215 14.8523 10.1991C15.127 9.87148 15.2776 9.73284 15.2834 9.7275L230.268 242.371C268.16 207.355 299.329 161.186 313.72 108.411C327.419 58.177 330.793 -24.4595 269.049 -91.2751L36.4053 123.709ZM15.2834 9.7275C15.2892 9.72216 15.4393 9.5829 15.7876 9.33492C16.1302 9.09096 16.7673 8.6687 17.7662 8.13907C19.492 7.22402 23.8364 5.17341 31.1445 3.78783C41.8201 1.76383 88.1191 -2.57901 127.247 39.7631L-105.397 254.748C-43.6528 321.563 38.9927 324.71 90.1501 315.011C143.894 304.822 192.376 277.387 230.268 242.371L15.2834 9.7275Z" fill="#B1EAD5" fill-opacity="0.5" mask="url(#path-11-inside-4_1_72)"/>
<mask id="path-13-inside-5_1_72" fill="white">
<ellipse cx="81.8263" cy="81.7361" rx="96.5386" ry="60.3366" transform="rotate(-132.741 81.8263 81.7361)"/>
</mask>
<path d="M123.799 127.157C81.4573 166.285 35.6443 158.308 25.1614 155.45C17.9851 153.493 13.8158 151.106 12.1674 150.058C11.2133 149.451 10.6115 148.98 10.2891 148.71C9.96147 148.435 9.82283 148.285 9.81749 148.279L242.461 -66.7056C207.445 -104.598 161.276 -135.766 108.501 -150.158C58.267 -163.857 -24.3695 -167.231 -91.1851 -105.487L123.799 127.157ZM9.81749 148.279C9.81215 148.273 9.67289 148.123 9.42491 147.775C9.18095 147.432 8.75869 146.795 8.22906 145.796C7.314 144.07 5.26339 139.726 3.87782 132.418C1.85381 121.742 -2.48901 75.4432 39.8531 36.3152L254.838 268.959C321.653 207.215 324.8 124.57 315.101 73.4123C304.912 19.6684 277.477 -28.8135 242.461 -66.7056L9.81749 148.279ZM39.8531 36.3152C82.1952 -2.81289 128.008 5.16382 138.491 8.02253C145.667 9.97954 149.837 12.366 151.485 13.4142C152.439 14.0209 153.041 14.492 153.363 14.7622C153.691 15.0368 153.83 15.1875 153.835 15.1933L-78.8087 230.178C-43.7929 268.07 2.37707 299.238 55.1512 313.63C105.386 327.329 188.022 330.703 254.838 268.959L39.8531 36.3152ZM153.835 15.1933C153.84 15.199 153.98 15.3491 154.228 15.6974C154.472 16.04 154.894 16.6771 155.424 17.6761C156.339 19.4019 158.389 23.7462 159.775 31.0544C161.799 41.7299 166.142 88.029 123.799 127.157L-91.1851 -105.487C-158.001 -43.743 -161.147 38.9025 -151.448 90.06C-141.259 143.804 -113.825 192.286 -78.8087 230.178L153.835 15.1933Z" fill="#FF7070" fill-opacity="0.5" mask="url(#path-13-inside-5_1_72)"/>
<mask id="path-15-inside-6_1_72" fill="white">
<ellipse cx="81.7876" cy="82.7185" rx="96.5386" ry="60.3366" transform="rotate(-177.741 81.7876 82.7185)"/>
</mask>
<path d="M143.585 85.1564C141.312 142.765 103.277 169.519 93.8429 174.91C87.3847 178.601 82.749 179.861 80.8423 180.286C79.7387 180.531 78.9799 180.624 78.5609 180.661C78.135 180.698 77.9305 180.69 77.9226 180.689L90.4096 -135.832C38.8559 -137.866 -15.8306 -127.258 -63.324 -100.117C-108.532 -74.2831 -169.35 -18.2358 -172.936 72.6694L143.585 85.1564ZM77.9226 180.689C77.9148 180.689 77.7102 180.681 77.2886 180.61C76.8738 180.541 76.1247 180.389 75.0438 180.057C73.1765 179.484 68.6545 177.862 62.5071 173.674C53.5272 167.556 17.718 137.889 19.9907 80.2805L336.512 92.7675C340.098 1.86229 283.884 -58.802 240.852 -88.1175C195.644 -118.915 141.963 -133.798 90.4096 -135.832L77.9226 180.689ZM19.9907 80.2805C22.2634 22.6724 60.2984 -4.0819 69.7324 -9.47302C76.1906 -13.1636 80.8263 -14.4243 82.733 -14.8487C83.8366 -15.0943 84.5954 -15.1868 85.0143 -15.2237C85.4402 -15.2611 85.6448 -15.2526 85.6527 -15.2523L73.1657 301.269C124.719 303.303 179.406 292.695 226.899 265.554C272.107 239.72 332.925 183.673 336.512 92.7675L19.9907 80.2805ZM85.6527 -15.2523C85.6605 -15.252 85.8651 -15.2444 86.2867 -15.1735C86.7015 -15.1037 87.4506 -14.9518 88.5314 -14.6199C90.3988 -14.0466 94.9207 -12.4247 101.068 -8.23681C110.048 -2.11924 145.857 27.5483 143.585 85.1564L-172.936 72.6694C-176.523 163.575 -120.309 224.239 -77.2766 253.554C-32.0689 284.352 21.612 299.235 73.1657 301.269L85.6527 -15.2523Z" fill="#FFF970" fill-opacity="0.5" mask="url(#path-15-inside-6_1_72)"/>
<mask id="path-17-inside-7_1_72" fill="white">
<ellipse cx="81.7876" cy="82.7188" rx="96.5386" ry="60.3366" transform="rotate(-87.7408 81.7876 82.7188)"/>
</mask>
<path d="M79.3496 144.516C21.7415 142.243 -5.01282 104.208 -10.4039 94.774C-14.0946 88.3158 -15.3552 83.6801 -15.7796 81.7734C-16.0253 80.6698 -16.1177 79.911 -16.1546 79.492C-16.1921 79.0662 -16.1836 78.8616 -16.1833 78.8537L300.338 91.3407C302.372 39.787 291.764 -14.8995 264.623 -62.3929C238.789 -107.601 182.742 -168.419 91.8366 -172.005L79.3496 144.516ZM-16.1833 78.8537C-16.1829 78.8459 -16.1753 78.6413 -16.1044 78.2197C-16.0346 77.8049 -15.8827 77.0558 -15.5509 75.9749C-14.9776 74.1076 -13.3556 69.5857 -9.16773 63.4382C-3.05016 54.4583 26.6174 18.6491 84.2255 20.9218L71.7385 337.443C162.644 341.029 223.308 284.815 252.624 241.783C283.421 196.575 298.304 142.894 300.338 91.3407L-16.1833 78.8537ZM84.2255 20.9218C141.834 23.1945 168.588 61.2295 173.979 70.6635C177.67 77.1217 178.93 81.7574 179.355 83.6641C179.6 84.7677 179.693 85.5265 179.73 85.9454C179.767 86.3713 179.759 86.5759 179.758 86.5838L-136.763 74.0968C-138.797 125.65 -128.189 180.337 -101.048 227.83C-75.214 273.038 -19.1667 333.857 71.7385 337.443L84.2255 20.9218ZM179.758 86.5838C179.758 86.5916 179.75 86.7962 179.679 87.2178C179.61 87.6326 179.458 88.3817 179.126 89.4625C178.553 91.3299 176.931 95.8518 172.743 101.999C166.625 110.979 136.958 146.788 79.3496 144.516L91.8366 -172.005C0.931368 -175.592 -59.7329 -119.378 -89.0484 -76.3455C-119.846 -31.1378 -134.729 22.5431 -136.763 74.0968L179.758 86.5838Z" fill="#70E5FF" fill-opacity="0.5" mask="url(#path-17-inside-7_1_72)"/>
<mask id="path-19-inside-8_1_72" fill="white">
<ellipse cx="81.8263" cy="81.7363" rx="96.5386" ry="60.3366" transform="rotate(137.259 81.8263 81.7363)"/>
</mask>
<path d="M127.247 39.7631C166.375 82.1052 158.399 127.918 155.54 138.401C153.583 145.577 151.196 149.747 150.148 151.395C149.542 152.349 149.07 152.951 148.8 153.273C148.526 153.601 148.375 153.74 148.369 153.745L-66.6155 -78.8987C-104.508 -43.8829 -135.676 2.28709 -150.068 55.0612C-163.767 105.296 -167.14 187.932 -105.397 254.748L127.247 39.7631ZM148.369 153.745C148.363 153.75 148.213 153.89 147.865 154.138C147.522 154.382 146.885 154.804 145.886 155.334C144.161 156.249 139.816 158.299 132.508 159.685C121.832 161.709 75.5334 166.052 36.4053 123.709L269.049 -91.2751C207.305 -158.091 124.66 -161.237 73.5024 -151.538C19.7585 -141.349 -28.7234 -113.915 -66.6155 -78.8987L148.369 153.745ZM36.4053 123.709C-2.72273 81.3674 5.25398 35.5543 8.11269 25.0714C10.0697 17.8951 12.4562 13.7258 13.5043 12.0774C14.111 11.1233 14.5822 10.5215 14.8523 10.1991C15.127 9.87148 15.2776 9.73284 15.2834 9.7275L230.268 242.371C268.16 207.355 299.329 161.186 313.72 108.411C327.419 58.177 330.793 -24.4595 269.049 -91.2751L36.4053 123.709ZM15.2834 9.7275C15.2892 9.72216 15.4393 9.5829 15.7876 9.33492C16.1302 9.09096 16.7673 8.6687 17.7662 8.13907C19.492 7.22402 23.8364 5.17341 31.1445 3.78783C41.8201 1.76383 88.1191 -2.57901 127.247 39.7631L-105.397 254.748C-43.6528 321.563 38.9927 324.71 90.1501 315.011C143.894 304.822 192.376 277.387 230.268 242.371L15.2834 9.7275Z" fill="#B1EAD5" fill-opacity="0.5" mask="url(#path-19-inside-8_1_72)"/>
<mask id="path-21-inside-9_1_72" fill="white">
<ellipse cx="81.8263" cy="81.7361" rx="96.5386" ry="60.3366" transform="rotate(-132.741 81.8263 81.7361)"/>
</mask>
<path d="M123.799 127.157C81.4573 166.285 35.6443 158.308 25.1614 155.45C17.9851 153.493 13.8158 151.106 12.1674 150.058C11.2133 149.451 10.6115 148.98 10.2891 148.71C9.96147 148.435 9.82283 148.285 9.81749 148.279L242.461 -66.7056C207.445 -104.598 161.276 -135.766 108.501 -150.158C58.267 -163.857 -24.3695 -167.231 -91.1851 -105.487L123.799 127.157ZM9.81749 148.279C9.81215 148.273 9.67289 148.123 9.42491 147.775C9.18095 147.432 8.75869 146.795 8.22906 145.796C7.314 144.07 5.26339 139.726 3.87782 132.418C1.85381 121.742 -2.48901 75.4432 39.8531 36.3152L254.838 268.959C321.653 207.215 324.8 124.57 315.101 73.4123C304.912 19.6684 277.477 -28.8135 242.461 -66.7056L9.81749 148.279ZM39.8531 36.3152C82.1952 -2.81289 128.008 5.16382 138.491 8.02253C145.667 9.97954 149.837 12.366 151.485 13.4142C152.439 14.0209 153.041 14.492 153.363 14.7622C153.691 15.0368 153.83 15.1875 153.835 15.1933L-78.8087 230.178C-43.7929 268.07 2.37707 299.238 55.1512 313.63C105.386 327.329 188.022 330.703 254.838 268.959L39.8531 36.3152ZM153.835 15.1933C153.84 15.199 153.98 15.3491 154.228 15.6974C154.472 16.04 154.894 16.6771 155.424 17.6761C156.339 19.4019 158.389 23.7462 159.775 31.0544C161.799 41.7299 166.142 88.029 123.799 127.157L-91.1851 -105.487C-158.001 -43.743 -161.147 38.9025 -151.448 90.06C-141.259 143.804 -113.825 192.286 -78.8087 230.178L153.835 15.1933Z" fill="#FF7070" fill-opacity="0.5" mask="url(#path-21-inside-9_1_72)"/>
<mask id="path-23-inside-10_1_72" fill="white">
<ellipse cx="81.7876" cy="82.7185" rx="96.5386" ry="60.3366" transform="rotate(-177.741 81.7876 82.7185)"/>
</mask>
<path d="M143.585 85.1564C141.312 142.765 103.277 169.519 93.8429 174.91C87.3847 178.601 82.749 179.861 80.8423 180.286C79.7387 180.531 78.9799 180.624 78.5609 180.661C78.135 180.698 77.9305 180.69 77.9226 180.689L90.4096 -135.832C38.8559 -137.866 -15.8306 -127.258 -63.324 -100.117C-108.532 -74.2831 -169.35 -18.2358 -172.936 72.6694L143.585 85.1564ZM77.9226 180.689C77.9148 180.689 77.7102 180.681 77.2886 180.61C76.8738 180.541 76.1247 180.389 75.0438 180.057C73.1765 179.484 68.6545 177.862 62.5071 173.674C53.5272 167.556 17.718 137.889 19.9907 80.2805L336.512 92.7675C340.098 1.86229 283.884 -58.802 240.852 -88.1175C195.644 -118.915 141.963 -133.798 90.4096 -135.832L77.9226 180.689ZM19.9907 80.2805C22.2634 22.6724 60.2984 -4.0819 69.7324 -9.47302C76.1906 -13.1636 80.8263 -14.4243 82.733 -14.8487C83.8366 -15.0943 84.5954 -15.1868 85.0143 -15.2237C85.4402 -15.2611 85.6448 -15.2526 85.6527 -15.2523L73.1657 301.269C124.719 303.303 179.406 292.695 226.899 265.554C272.107 239.72 332.925 183.673 336.512 92.7675L19.9907 80.2805ZM85.6527 -15.2523C85.6605 -15.252 85.8651 -15.2444 86.2867 -15.1735C86.7015 -15.1037 87.4506 -14.9518 88.5314 -14.6199C90.3988 -14.0466 94.9207 -12.4247 101.068 -8.23681C110.048 -2.11924 145.857 27.5483 143.585 85.1564L-172.936 72.6694C-176.523 163.575 -120.309 224.239 -77.2766 253.554C-32.0689 284.352 21.612 299.235 73.1657 301.269L85.6527 -15.2523Z" fill="#FFF970" fill-opacity="0.5" mask="url(#path-23-inside-10_1_72)"/>
<mask id="path-25-inside-11_1_72" fill="white">
<ellipse cx="81.7876" cy="82.7188" rx="96.5386" ry="60.3366" transform="rotate(-87.7408 81.7876 82.7188)"/>
</mask>
<path d="M79.3496 144.516C21.7415 142.243 -5.01282 104.208 -10.4039 94.774C-14.0946 88.3158 -15.3552 83.6801 -15.7796 81.7734C-16.0253 80.6698 -16.1177 79.911 -16.1546 79.492C-16.1921 79.0662 -16.1836 78.8616 -16.1833 78.8537L300.338 91.3407C302.372 39.787 291.764 -14.8995 264.623 -62.3929C238.789 -107.601 182.742 -168.419 91.8366 -172.005L79.3496 144.516ZM-16.1833 78.8537C-16.1829 78.8459 -16.1753 78.6413 -16.1044 78.2197C-16.0346 77.8049 -15.8827 77.0558 -15.5509 75.9749C-14.9776 74.1076 -13.3556 69.5857 -9.16773 63.4382C-3.05016 54.4583 26.6174 18.6491 84.2255 20.9218L71.7385 337.443C162.644 341.029 223.308 284.815 252.624 241.783C283.421 196.575 298.304 142.894 300.338 91.3407L-16.1833 78.8537ZM84.2255 20.9218C141.834 23.1945 168.588 61.2295 173.979 70.6635C177.67 77.1217 178.93 81.7574 179.355 83.6641C179.6 84.7677 179.693 85.5265 179.73 85.9454C179.767 86.3713 179.759 86.5759 179.758 86.5838L-136.763 74.0968C-138.797 125.65 -128.189 180.337 -101.048 227.83C-75.214 273.038 -19.1667 333.857 71.7385 337.443L84.2255 20.9218ZM179.758 86.5838C179.758 86.5916 179.75 86.7962 179.679 87.2178C179.61 87.6326 179.458 88.3817 179.126 89.4625C178.553 91.3299 176.931 95.8518 172.743 101.999C166.625 110.979 136.958 146.788 79.3496 144.516L91.8366 -172.005C0.931368 -175.592 -59.7329 -119.378 -89.0484 -76.3455C-119.846 -31.1378 -134.729 22.5431 -136.763 74.0968L179.758 86.5838Z" fill="#70E5FF" fill-opacity="0.5" mask="url(#path-25-inside-11_1_72)"/>
<mask id="path-27-inside-12_1_72" fill="white">
<ellipse cx="81.8263" cy="81.7363" rx="96.5386" ry="60.3366" transform="rotate(137.259 81.8263 81.7363)"/>
</mask>
<path d="M127.247 39.7631C166.375 82.1052 158.399 127.918 155.54 138.401C153.583 145.577 151.196 149.747 150.148 151.395C149.542 152.349 149.07 152.951 148.8 153.273C148.526 153.601 148.375 153.74 148.369 153.745L-66.6155 -78.8987C-104.508 -43.8829 -135.676 2.28709 -150.068 55.0612C-163.767 105.296 -167.14 187.932 -105.397 254.748L127.247 39.7631ZM148.369 153.745C148.363 153.75 148.213 153.89 147.865 154.138C147.522 154.382 146.885 154.804 145.886 155.334C144.161 156.249 139.816 158.299 132.508 159.685C121.832 161.709 75.5334 166.052 36.4053 123.709L269.049 -91.2751C207.305 -158.091 124.66 -161.237 73.5024 -151.538C19.7585 -141.349 -28.7234 -113.915 -66.6155 -78.8987L148.369 153.745ZM36.4053 123.709C-2.72273 81.3674 5.25398 35.5543 8.11269 25.0714C10.0697 17.8951 12.4562 13.7258 13.5043 12.0774C14.111 11.1233 14.5822 10.5215 14.8523 10.1991C15.127 9.87148 15.2776 9.73284 15.2834 9.7275L230.268 242.371C268.16 207.355 299.329 161.186 313.72 108.411C327.419 58.177 330.793 -24.4595 269.049 -91.2751L36.4053 123.709ZM15.2834 9.7275C15.2892 9.72216 15.4393 9.5829 15.7876 9.33492C16.1302 9.09096 16.7673 8.6687 17.7662 8.13907C19.492 7.22402 23.8364 5.17341 31.1445 3.78783C41.8201 1.76383 88.1191 -2.57901 127.247 39.7631L-105.397 254.748C-43.6528 321.563 38.9927 324.71 90.1501 315.011C143.894 304.822 192.376 277.387 230.268 242.371L15.2834 9.7275Z" fill="#B1EAD5" fill-opacity="0.5" mask="url(#path-27-inside-12_1_72)"/>
<mask id="path-29-inside-13_1_72" fill="white">
<ellipse cx="81.8263" cy="81.7361" rx="96.5386" ry="60.3366" transform="rotate(-132.741 81.8263 81.7361)"/>
</mask>
<path d="M123.799 127.157C81.4573 166.285 35.6443 158.308 25.1614 155.45C17.9851 153.493 13.8158 151.106 12.1674 150.058C11.2133 149.451 10.6115 148.98 10.2891 148.71C9.96147 148.435 9.82283 148.285 9.81749 148.279L242.461 -66.7056C207.445 -104.598 161.276 -135.766 108.501 -150.158C58.267 -163.857 -24.3695 -167.231 -91.1851 -105.487L123.799 127.157ZM9.81749 148.279C9.81215 148.273 9.67289 148.123 9.42491 147.775C9.18095 147.432 8.75869 146.795 8.22906 145.796C7.314 144.07 5.26339 139.726 3.87782 132.418C1.85381 121.742 -2.48901 75.4432 39.8531 36.3152L254.838 268.959C321.653 207.215 324.8 124.57 315.101 73.4123C304.912 19.6684 277.477 -28.8135 242.461 -66.7056L9.81749 148.279ZM39.8531 36.3152C82.1952 -2.81289 128.008 5.16382 138.491 8.02253C145.667 9.97954 149.837 12.366 151.485 13.4142C152.439 14.0209 153.041 14.492 153.363 14.7622C153.691 15.0368 153.83 15.1875 153.835 15.1933L-78.8087 230.178C-43.7929 268.07 2.37707 299.238 55.1512 313.63C105.386 327.329 188.022 330.703 254.838 268.959L39.8531 36.3152ZM153.835 15.1933C153.84 15.199 153.98 15.3491 154.228 15.6974C154.472 16.04 154.894 16.6771 155.424 17.6761C156.339 19.4019 158.389 23.7462 159.775 31.0544C161.799 41.7299 166.142 88.029 123.799 127.157L-91.1851 -105.487C-158.001 -43.743 -161.147 38.9025 -151.448 90.06C-141.259 143.804 -113.825 192.286 -78.8087 230.178L153.835 15.1933Z" fill="#FF7070" fill-opacity="0.5" mask="url(#path-29-inside-13_1_72)"/>
<mask id="path-31-inside-14_1_72" fill="white">
<ellipse cx="81.7876" cy="82.7185" rx="96.5386" ry="60.3366" transform="rotate(-177.741 81.7876 82.7185)"/>
</mask>
<path d="M143.585 85.1564C141.312 142.765 103.277 169.519 93.8429 174.91C87.3847 178.601 82.749 179.861 80.8423 180.286C79.7387 180.531 78.9799 180.624 78.5609 180.661C78.135 180.698 77.9305 180.69 77.9226 180.689L90.4096 -135.832C38.8559 -137.866 -15.8306 -127.258 -63.324 -100.117C-108.532 -74.2831 -169.35 -18.2358 -172.936 72.6694L143.585 85.1564ZM77.9226 180.689C77.9148 180.689 77.7102 180.681 77.2886 180.61C76.8738 180.541 76.1247 180.389 75.0438 180.057C73.1765 179.484 68.6545 177.862 62.5071 173.674C53.5272 167.556 17.718 137.889 19.9907 80.2805L336.512 92.7675C340.098 1.86229 283.884 -58.802 240.852 -88.1175C195.644 -118.915 141.963 -133.798 90.4096 -135.832L77.9226 180.689ZM19.9907 80.2805C22.2634 22.6724 60.2984 -4.0819 69.7324 -9.47302C76.1906 -13.1636 80.8263 -14.4243 82.733 -14.8487C83.8366 -15.0943 84.5954 -15.1868 85.0143 -15.2237C85.4402 -15.2611 85.6448 -15.2526 85.6527 -15.2523L73.1657 301.269C124.719 303.303 179.406 292.695 226.899 265.554C272.107 239.72 332.925 183.673 336.512 92.7675L19.9907 80.2805ZM85.6527 -15.2523C85.6605 -15.252 85.8651 -15.2444 86.2867 -15.1735C86.7015 -15.1037 87.4506 -14.9518 88.5314 -14.6199C90.3988 -14.0466 94.9207 -12.4247 101.068 -8.23681C110.048 -2.11924 145.857 27.5483 143.585 85.1564L-172.936 72.6694C-176.523 163.575 -120.309 224.239 -77.2766 253.554C-32.0689 284.352 21.612 299.235 73.1657 301.269L85.6527 -15.2523Z" fill="#FFF970" fill-opacity="0.5" mask="url(#path-31-inside-14_1_72)"/>
<mask id="path-33-inside-15_1_72" fill="white">
<ellipse cx="81.7876" cy="82.7188" rx="96.5386" ry="60.3366" transform="rotate(-87.7408 81.7876 82.7188)"/>
</mask>
<path d="M79.3496 144.516C21.7415 142.243 -5.01282 104.208 -10.4039 94.774C-14.0946 88.3158 -15.3552 83.6801 -15.7796 81.7734C-16.0253 80.6698 -16.1177 79.911 -16.1546 79.492C-16.1921 79.0662 -16.1836 78.8616 -16.1833 78.8537L300.338 91.3407C302.372 39.787 291.764 -14.8995 264.623 -62.3929C238.789 -107.601 182.742 -168.419 91.8366 -172.005L79.3496 144.516ZM-16.1833 78.8537C-16.1829 78.8459 -16.1753 78.6413 -16.1044 78.2197C-16.0346 77.8049 -15.8827 77.0558 -15.5509 75.9749C-14.9776 74.1076 -13.3556 69.5857 -9.16773 63.4382C-3.05016 54.4583 26.6174 18.6491 84.2255 20.9218L71.7385 337.443C162.644 341.029 223.308 284.815 252.624 241.783C283.421 196.575 298.304 142.894 300.338 91.3407L-16.1833 78.8537ZM84.2255 20.9218C141.834 23.1945 168.588 61.2295 173.979 70.6635C177.67 77.1217 178.93 81.7574 179.355 83.6641C179.6 84.7677 179.693 85.5265 179.73 85.9454C179.767 86.3713 179.759 86.5759 179.758 86.5838L-136.763 74.0968C-138.797 125.65 -128.189 180.337 -101.048 227.83C-75.214 273.038 -19.1667 333.857 71.7385 337.443L84.2255 20.9218ZM179.758 86.5838C179.758 86.5916 179.75 86.7962 179.679 87.2178C179.61 87.6326 179.458 88.3817 179.126 89.4625C178.553 91.3299 176.931 95.8518 172.743 101.999C166.625 110.979 136.958 146.788 79.3496 144.516L91.8366 -172.005C0.931368 -175.592 -59.7329 -119.378 -89.0484 -76.3455C-119.846 -31.1378 -134.729 22.5431 -136.763 74.0968L179.758 86.5838Z" fill="#70E5FF" fill-opacity="0.5" mask="url(#path-33-inside-15_1_72)"/>
<mask id="path-35-inside-16_1_72" fill="white">
<ellipse cx="81.8263" cy="81.7363" rx="96.5386" ry="60.3366" transform="rotate(137.259 81.8263 81.7363)"/>
</mask>
<path d="M127.247 39.7631C166.375 82.1052 158.399 127.918 155.54 138.401C153.583 145.577 151.196 149.747 150.148 151.395C149.542 152.349 149.07 152.951 148.8 153.273C148.526 153.601 148.375 153.74 148.369 153.745L-66.6155 -78.8987C-104.508 -43.8829 -135.676 2.28709 -150.068 55.0612C-163.767 105.296 -167.14 187.932 -105.397 254.748L127.247 39.7631ZM148.369 153.745C148.363 153.75 148.213 153.89 147.865 154.138C147.522 154.382 146.885 154.804 145.886 155.334C144.161 156.249 139.816 158.299 132.508 159.685C121.832 161.709 75.5334 166.052 36.4053 123.709L269.049 -91.2751C207.305 -158.091 124.66 -161.237 73.5024 -151.538C19.7585 -141.349 -28.7234 -113.915 -66.6155 -78.8987L148.369 153.745ZM36.4053 123.709C-2.72273 81.3674 5.25398 35.5543 8.11269 25.0714C10.0697 17.8951 12.4562 13.7258 13.5043 12.0774C14.111 11.1233 14.5822 10.5215 14.8523 10.1991C15.127 9.87148 15.2776 9.73284 15.2834 9.7275L230.268 242.371C268.16 207.355 299.329 161.186 313.72 108.411C327.419 58.177 330.793 -24.4595 269.049 -91.2751L36.4053 123.709ZM15.2834 9.7275C15.2892 9.72216 15.4393 9.5829 15.7876 9.33492C16.1302 9.09096 16.7673 8.6687 17.7662 8.13907C19.492 7.22402 23.8364 5.17341 31.1445 3.78783C41.8201 1.76383 88.1191 -2.57901 127.247 39.7631L-105.397 254.748C-43.6528 321.563 38.9927 324.71 90.1501 315.011C143.894 304.822 192.376 277.387 230.268 242.371L15.2834 9.7275Z" fill="#B1EAD5" fill-opacity="0.5" mask="url(#path-35-inside-16_1_72)"/>
</g>
<g filter="url(#filter0_d_1_72)">
<circle cx="82" cy="82" r="69" stroke="#6DE4F7" stroke-opacity="0.01" stroke-width="4" shape-rendering="crispEdges"/>
</g>
<defs>
<filter id="filter0_d_1_72" x="9" y="9" width="146" height="146" filterUnits="userSpaceOnUse" color-interpolation-filters="sRGB">
<feFlood flood-opacity="0" result="BackgroundImageFix"/>
<feColorMatrix in="SourceAlpha" type="matrix" values="0 0 0 0 0 0 0 0 0 0 0 0 0 0 0 0 0 0 127 0" result="hardAlpha"/>
<feOffset/>
<feGaussianBlur stdDeviation="1"/>
<feComposite in2="hardAlpha" operator="out"/>
<feColorMatrix type="matrix" values="0 0 0 0 1 0 0 0 0 1 0 0 0 0 1 0 0 0 1 0"/>
<feBlend mode="normal" in2="BackgroundImageFix" result="effect1_dropShadow_1_72"/>
<feBlend mode="normal" in="SourceGraphic" in2="effect1_dropShadow_1_72" result="shape"/>
</filter>
<clipPath id="clip0_1_72">
<rect width="157" height="157" fill="white" transform="translate(3 3)"/>
</clipPath>
</defs>
</svg>
