<svg width="165" height="165" viewBox="0 0 165 165" fill="none" xmlns="http://www.w3.org/2000/svg">
<g clip-path="url(#clip0_1_320)">
<path d="M81.4992 160C124.854 160 159.999 124.854 159.999 81.5C159.999 38.1456 124.854 3 81.4992 3C38.1449 3 2.99922 38.1456 2.99922 81.5C2.99922 124.854 38.1449 160 81.4992 160Z" fill="#45CD85"/>
<path d="M78.2028 124.202C94.5308 124.202 108.975 113.369 113.685 97.5115H100.968C97.0428 106.461 88.0938 112.27 78.2028 112.27C64.3868 112.27 53.2398 101.123 53.2398 87.3065C53.2398 77.4155 59.0488 68.4665 67.9978 64.5415V51.8245C52.1408 56.5345 41.3078 70.9785 41.3078 87.3065C41.3078 107.56 57.9498 124.202 78.2028 124.202ZM100.026 77.5725V68.6235C103.48 69.7225 104.736 70.9785 104.736 72.8625C104.736 75.0605 103.009 76.7875 100.026 77.5725ZM90.9198 92.9585H100.34V87.9345C109.603 86.3645 115.569 80.5555 115.569 72.8625C115.569 62.1865 107.405 59.3605 100.026 57.9475V47.5855C103.794 48.2135 107.719 49.6265 111.173 51.6675V40.0495C107.562 38.6365 103.951 37.8515 100.34 37.5375V32.6705H90.9198V37.5375C81.6568 39.1075 75.8478 44.6025 75.8478 52.1385C75.8478 62.8145 83.8548 65.9545 91.2338 67.3675V77.5725C86.9948 76.6305 82.1278 74.7465 76.1618 71.2925V83.2245C81.1858 85.8935 86.2098 87.4635 90.9198 87.9345V92.9585ZM91.2338 56.5345C87.9368 55.5925 86.6808 54.3365 86.6808 52.1385C86.6808 49.9405 88.2508 48.3705 91.2338 47.7425V56.5345Z" fill="#35C071"/>
<path d="M78.2028 122.632C93.5888 122.632 106.62 112.741 111.487 99.0815H101.91C97.6708 107.874 88.5648 113.84 78.2028 113.84C63.6018 113.84 51.6698 101.908 51.6698 87.3065C51.6698 76.9445 57.6358 67.8385 66.4278 63.5995V54.0225C52.7688 58.8895 42.8778 71.9205 42.8778 87.3065C42.8778 106.775 58.7348 122.632 78.2028 122.632ZM98.4558 79.4565V66.5825C102.852 67.6815 106.306 69.0945 106.306 72.8625C106.306 76.3165 103.323 78.8285 98.4558 79.4565ZM92.4898 91.3885H98.7698V86.5215C108.033 85.4225 113.999 80.0845 113.999 72.8625C113.999 62.8145 105.992 60.6165 98.4558 59.2035V45.8585C102.067 46.1725 105.992 47.2715 109.603 48.9985V41.1485C106.149 39.8925 102.381 39.1075 98.7698 38.9505V34.2405H92.4898V38.9505C82.9128 40.0495 77.4178 45.3875 77.4178 52.1385C77.4178 62.3435 85.2678 64.6985 92.8038 66.1115V79.4565C88.2508 78.8285 83.3838 76.9445 77.7318 73.9615V82.2825C82.5988 84.6375 87.6228 86.2075 92.4898 86.5215V91.3885ZM92.8038 58.5755C88.4078 57.6335 85.1108 56.0635 85.1108 52.1385C85.1108 48.5275 87.9368 46.3295 92.8038 45.8585V58.5755Z" fill="white"/>
</g>
<mask id="mask0_1_320" style="mask-type:alpha" maskUnits="userSpaceOnUse" x="0" y="0" width="165" height="165">
<path fill-rule="evenodd" clip-rule="evenodd" d="M0.0364166 81.1444C-0.387463 68.479 2.93405 57.0347 7.65111 47.4366C20.6918 19.4209 49.0946 0 82.0333 0C82.1421 0 82.2509 0.000211889 82.3596 0.000635277C82.4692 0.000211824 82.5788 0 82.6885 0C107.187 0 130.001 10.6743 145.581 29.0009V19.3892H155.249V45.0331C160.868 56.1412 164.035 68.7015 164.035 82.0013C164.035 104.431 155.03 124.756 140.438 139.561C140.389 139.704 140.34 139.847 140.291 139.991C124.711 155.521 103.993 164.074 81.9579 164.074C57.4598 164.074 34.6457 153.4 19.065 135.073V144.685H9.39779L9.39779 120.094C3.41648 108.712 0.0320314 95.7517 0.0320314 82.0013C0.0320314 81.7153 0.0334957 81.4297 0.0364166 81.1444ZM27.9319 128.581L35.5293 128.584L35.5328 118.948L20.9327 118.943C14.4029 108.165 10.644 95.5224 10.644 82.0013C10.644 42.574 42.6061 10.6119 82.0333 10.6119C103.695 10.6119 123.104 20.2599 136.196 35.4932L129.117 35.4906L129.114 45.1264L143.177 45.1314C149.68 55.893 153.423 68.5101 153.423 82.0013C153.423 121.429 121.461 153.391 82.0333 153.391C60.4053 153.391 41.0236 143.773 27.9319 128.581Z" fill="black"/>
</mask>
<g mask="url(#mask0_1_320)">
<mask id="path-5-inside-1_1_320" fill="white">
<ellipse cx="81.8263" cy="81.7361" rx="96.5386" ry="60.3366" transform="rotate(-132.741 81.8263 81.7361)"/>
</mask>
<path d="M123.799 127.157C81.4573 166.285 35.6443 158.308 25.1614 155.45C17.9851 153.493 13.8158 151.106 12.1674 150.058C11.2133 149.451 10.6114 148.98 10.2891 148.71C9.96146 148.435 9.82282 148.285 9.81748 148.279L242.461 -66.7056C207.445 -104.598 161.276 -135.766 108.501 -150.158C58.267 -163.857 -24.3695 -167.231 -91.1851 -105.487L123.799 127.157ZM9.81748 148.279C9.81214 148.273 9.67289 148.123 9.4249 147.775C9.18094 147.432 8.75869 146.795 8.22905 145.796C7.31399 144.07 5.26339 139.726 3.87781 132.418C1.85381 121.742 -2.48902 75.4432 39.8531 36.3152L254.838 268.959C321.653 207.215 324.8 124.57 315.101 73.4123C304.912 19.6684 277.477 -28.8135 242.461 -66.7056L9.81748 148.279ZM39.8531 36.3152C82.1952 -2.81289 128.008 5.16382 138.491 8.02253C145.667 9.97954 149.837 12.366 151.485 13.4142C152.439 14.0209 153.041 14.492 153.363 14.7622C153.691 15.0368 153.83 15.1875 153.835 15.1933L-78.8087 230.178C-43.7929 268.07 2.37706 299.238 55.1512 313.63C105.386 327.329 188.022 330.703 254.838 268.959L39.8531 36.3152ZM153.835 15.1933C153.84 15.199 153.98 15.3491 154.228 15.6974C154.472 16.04 154.894 16.6771 155.424 17.6761C156.339 19.4019 158.389 23.7462 159.775 31.0544C161.799 41.7299 166.142 88.029 123.799 127.157L-91.1851 -105.487C-158.001 -43.743 -161.147 38.9025 -151.448 90.06C-141.259 143.804 -113.825 192.286 -78.8087 230.178L153.835 15.1933Z" fill="#FF7070" fill-opacity="0.5" mask="url(#path-5-inside-1_1_320)"/>
<mask id="path-7-inside-2_1_320" fill="white">
<ellipse cx="81.7876" cy="82.7185" rx="96.5386" ry="60.3366" transform="rotate(-177.741 81.7876 82.7185)"/>
</mask>
<path d="M143.585 85.1564C141.312 142.765 103.277 169.519 93.8429 174.91C87.3846 178.601 82.749 179.861 80.8423 180.286C79.7386 180.531 78.9799 180.624 78.5609 180.661C78.135 180.698 77.9305 180.69 77.9226 180.689L90.4096 -135.832C38.8559 -137.866 -15.8306 -127.258 -63.324 -100.117C-108.532 -74.2831 -169.35 -18.2358 -172.936 72.6694L143.585 85.1564ZM77.9226 180.689C77.9147 180.689 77.7102 180.681 77.2885 180.61C76.8738 180.541 76.1247 180.389 75.0438 180.057C73.1764 179.484 68.6545 177.862 62.5071 173.674C53.5272 167.556 17.718 137.889 19.9907 80.2805L336.512 92.7675C340.098 1.86229 283.884 -58.802 240.852 -88.1175C195.644 -118.915 141.963 -133.798 90.4096 -135.832L77.9226 180.689ZM19.9907 80.2805C22.2633 22.6724 60.2984 -4.0819 69.7324 -9.47302C76.1906 -13.1636 80.8262 -14.4243 82.733 -14.8487C83.8366 -15.0943 84.5954 -15.1868 85.0143 -15.2237C85.4402 -15.2611 85.6448 -15.2526 85.6526 -15.2523L73.1657 301.269C124.719 303.303 179.406 292.695 226.899 265.554C272.107 239.72 332.925 183.673 336.512 92.7675L19.9907 80.2805ZM85.6526 -15.2523C85.6605 -15.252 85.8651 -15.2444 86.2867 -15.1735C86.7015 -15.1037 87.4506 -14.9518 88.5314 -14.6199C90.3988 -14.0466 94.9207 -12.4247 101.068 -8.23681C110.048 -2.11924 145.857 27.5483 143.585 85.1564L-172.936 72.6694C-176.523 163.575 -120.309 224.239 -77.2766 253.554C-32.069 284.352 21.612 299.235 73.1657 301.269L85.6526 -15.2523Z" fill="#FFF970" fill-opacity="0.5" mask="url(#path-7-inside-2_1_320)"/>
<mask id="path-9-inside-3_1_320" fill="white">
<ellipse cx="81.7875" cy="82.7188" rx="96.5386" ry="60.3366" transform="rotate(-87.7408 81.7875 82.7188)"/>
</mask>
<path d="M79.3496 144.516C21.7415 142.243 -5.01283 104.208 -10.4039 94.774C-14.0946 88.3158 -15.3552 83.6801 -15.7796 81.7734C-16.0253 80.6698 -16.1177 79.911 -16.1546 79.492C-16.1921 79.0662 -16.1836 78.8616 -16.1833 78.8537L300.338 91.3407C302.372 39.787 291.764 -14.8995 264.623 -62.3929C238.789 -107.601 182.742 -168.419 91.8366 -172.005L79.3496 144.516ZM-16.1833 78.8537C-16.1829 78.8459 -16.1753 78.6413 -16.1044 78.2197C-16.0346 77.8049 -15.8827 77.0558 -15.5509 75.9749C-14.9776 74.1076 -13.3556 69.5857 -9.16773 63.4382C-3.05017 54.4583 26.6174 18.6491 84.2255 20.9218L71.7385 337.443C162.644 341.029 223.308 284.815 252.624 241.783C283.421 196.575 298.304 142.894 300.338 91.3407L-16.1833 78.8537ZM84.2255 20.9218C141.834 23.1945 168.588 61.2295 173.979 70.6635C177.67 77.1217 178.93 81.7574 179.355 83.6641C179.6 84.7677 179.693 85.5265 179.73 85.9454C179.767 86.3713 179.759 86.5759 179.758 86.5838L-136.763 74.0968C-138.797 125.65 -128.189 180.337 -101.048 227.83C-75.214 273.038 -19.1667 333.857 71.7385 337.443L84.2255 20.9218ZM179.758 86.5838C179.758 86.5916 179.75 86.7962 179.679 87.2178C179.61 87.6326 179.458 88.3817 179.126 89.4625C178.553 91.3299 176.931 95.8518 172.743 101.999C166.625 110.979 136.958 146.788 79.3496 144.516L91.8366 -172.005C0.931363 -175.592 -59.7329 -119.378 -89.0484 -76.3455C-119.846 -31.1378 -134.729 22.5431 -136.763 74.0968L179.758 86.5838Z" fill="#70E5FF" fill-opacity="0.5" mask="url(#path-9-inside-3_1_320)"/>
<mask id="path-11-inside-4_1_320" fill="white">
<ellipse cx="81.8263" cy="81.7363" rx="96.5386" ry="60.3366" transform="rotate(137.259 81.8263 81.7363)"/>
</mask>
<path d="M127.247 39.7631C166.375 82.1052 158.399 127.918 155.54 138.401C153.583 145.577 151.196 149.747 150.148 151.395C149.542 152.349 149.07 152.951 148.8 153.273C148.526 153.601 148.375 153.74 148.369 153.745L-66.6155 -78.8987C-104.508 -43.8829 -135.676 2.28709 -150.068 55.0612C-163.767 105.296 -167.14 187.932 -105.397 254.748L127.247 39.7631ZM148.369 153.745C148.363 153.75 148.213 153.89 147.865 154.138C147.522 154.382 146.885 154.804 145.886 155.334C144.161 156.249 139.816 158.299 132.508 159.685C121.832 161.709 75.5334 166.052 36.4053 123.709L269.049 -91.2751C207.305 -158.091 124.66 -161.237 73.5024 -151.538C19.7585 -141.349 -28.7234 -113.915 -66.6155 -78.8987L148.369 153.745ZM36.4053 123.709C-2.72275 81.3674 5.25396 35.5543 8.11267 25.0714C10.0697 17.8951 12.4562 13.7258 13.5043 12.0774C14.111 11.1233 14.5821 10.5215 14.8523 10.1991C15.127 9.87148 15.2776 9.73284 15.2834 9.7275L230.268 242.371C268.16 207.355 299.329 161.186 313.72 108.411C327.419 58.177 330.793 -24.4595 269.049 -91.2751L36.4053 123.709ZM15.2834 9.7275C15.2892 9.72216 15.4393 9.5829 15.7875 9.33492C16.1302 9.09096 16.7673 8.6687 17.7662 8.13907C19.492 7.22402 23.8364 5.17341 31.1445 3.78783C41.8201 1.76383 88.1191 -2.57901 127.247 39.7631L-105.397 254.748C-43.6528 321.563 38.9927 324.71 90.1501 315.011C143.894 304.822 192.376 277.387 230.268 242.371L15.2834 9.7275Z" fill="#B1EAD5" fill-opacity="0.5" mask="url(#path-11-inside-4_1_320)"/>
<mask id="path-13-inside-5_1_320" fill="white">
<ellipse cx="81.8263" cy="81.7361" rx="96.5386" ry="60.3366" transform="rotate(-132.741 81.8263 81.7361)"/>
</mask>
<path d="M123.799 127.157C81.4573 166.285 35.6443 158.308 25.1614 155.45C17.9851 153.493 13.8158 151.106 12.1674 150.058C11.2133 149.451 10.6114 148.98 10.2891 148.71C9.96146 148.435 9.82282 148.285 9.81748 148.279L242.461 -66.7056C207.445 -104.598 161.276 -135.766 108.501 -150.158C58.267 -163.857 -24.3695 -167.231 -91.1851 -105.487L123.799 127.157ZM9.81748 148.279C9.81214 148.273 9.67289 148.123 9.4249 147.775C9.18094 147.432 8.75869 146.795 8.22905 145.796C7.31399 144.07 5.26339 139.726 3.87781 132.418C1.85381 121.742 -2.48902 75.4432 39.8531 36.3152L254.838 268.959C321.653 207.215 324.8 124.57 315.101 73.4123C304.912 19.6684 277.477 -28.8135 242.461 -66.7056L9.81748 148.279ZM39.8531 36.3152C82.1952 -2.81289 128.008 5.16382 138.491 8.02253C145.667 9.97954 149.837 12.366 151.485 13.4142C152.439 14.0209 153.041 14.492 153.363 14.7622C153.691 15.0368 153.83 15.1875 153.835 15.1933L-78.8087 230.178C-43.7929 268.07 2.37706 299.238 55.1512 313.63C105.386 327.329 188.022 330.703 254.838 268.959L39.8531 36.3152ZM153.835 15.1933C153.84 15.199 153.98 15.3491 154.228 15.6974C154.472 16.04 154.894 16.6771 155.424 17.6761C156.339 19.4019 158.389 23.7462 159.775 31.0544C161.799 41.7299 166.142 88.029 123.799 127.157L-91.1851 -105.487C-158.001 -43.743 -161.147 38.9025 -151.448 90.06C-141.259 143.804 -113.825 192.286 -78.8087 230.178L153.835 15.1933Z" fill="#FF7070" fill-opacity="0.5" mask="url(#path-13-inside-5_1_320)"/>
<mask id="path-15-inside-6_1_320" fill="white">
<ellipse cx="81.7876" cy="82.7185" rx="96.5386" ry="60.3366" transform="rotate(-177.741 81.7876 82.7185)"/>
</mask>
<path d="M143.585 85.1564C141.312 142.765 103.277 169.519 93.8429 174.91C87.3846 178.601 82.749 179.861 80.8423 180.286C79.7386 180.531 78.9799 180.624 78.5609 180.661C78.135 180.698 77.9305 180.69 77.9226 180.689L90.4096 -135.832C38.8559 -137.866 -15.8306 -127.258 -63.324 -100.117C-108.532 -74.2831 -169.35 -18.2358 -172.936 72.6694L143.585 85.1564ZM77.9226 180.689C77.9147 180.689 77.7102 180.681 77.2885 180.61C76.8738 180.541 76.1247 180.389 75.0438 180.057C73.1764 179.484 68.6545 177.862 62.5071 173.674C53.5272 167.556 17.718 137.889 19.9907 80.2805L336.512 92.7675C340.098 1.86229 283.884 -58.802 240.852 -88.1175C195.644 -118.915 141.963 -133.798 90.4096 -135.832L77.9226 180.689ZM19.9907 80.2805C22.2633 22.6724 60.2984 -4.0819 69.7324 -9.47302C76.1906 -13.1636 80.8262 -14.4243 82.733 -14.8487C83.8366 -15.0943 84.5954 -15.1868 85.0143 -15.2237C85.4402 -15.2611 85.6448 -15.2526 85.6526 -15.2523L73.1657 301.269C124.719 303.303 179.406 292.695 226.899 265.554C272.107 239.72 332.925 183.673 336.512 92.7675L19.9907 80.2805ZM85.6526 -15.2523C85.6605 -15.252 85.8651 -15.2444 86.2867 -15.1735C86.7015 -15.1037 87.4506 -14.9518 88.5314 -14.6199C90.3988 -14.0466 94.9207 -12.4247 101.068 -8.23681C110.048 -2.11924 145.857 27.5483 143.585 85.1564L-172.936 72.6694C-176.523 163.575 -120.309 224.239 -77.2766 253.554C-32.069 284.352 21.612 299.235 73.1657 301.269L85.6526 -15.2523Z" fill="#FFF970" fill-opacity="0.5" mask="url(#path-15-inside-6_1_320)"/>
<mask id="path-17-inside-7_1_320" fill="white">
<ellipse cx="81.7875" cy="82.7188" rx="96.5386" ry="60.3366" transform="rotate(-87.7408 81.7875 82.7188)"/>
</mask>
<path d="M79.3496 144.516C21.7415 142.243 -5.01283 104.208 -10.4039 94.774C-14.0946 88.3158 -15.3552 83.6801 -15.7796 81.7734C-16.0253 80.6698 -16.1177 79.911 -16.1546 79.492C-16.1921 79.0662 -16.1836 78.8616 -16.1833 78.8537L300.338 91.3407C302.372 39.787 291.764 -14.8995 264.623 -62.3929C238.789 -107.601 182.742 -168.419 91.8366 -172.005L79.3496 144.516ZM-16.1833 78.8537C-16.1829 78.8459 -16.1753 78.6413 -16.1044 78.2197C-16.0346 77.8049 -15.8827 77.0558 -15.5509 75.9749C-14.9776 74.1076 -13.3556 69.5857 -9.16773 63.4382C-3.05017 54.4583 26.6174 18.6491 84.2255 20.9218L71.7385 337.443C162.644 341.029 223.308 284.815 252.624 241.783C283.421 196.575 298.304 142.894 300.338 91.3407L-16.1833 78.8537ZM84.2255 20.9218C141.834 23.1945 168.588 61.2295 173.979 70.6635C177.67 77.1217 178.93 81.7574 179.355 83.6641C179.6 84.7677 179.693 85.5265 179.73 85.9454C179.767 86.3713 179.759 86.5759 179.758 86.5838L-136.763 74.0968C-138.797 125.65 -128.189 180.337 -101.048 227.83C-75.214 273.038 -19.1667 333.857 71.7385 337.443L84.2255 20.9218ZM179.758 86.5838C179.758 86.5916 179.75 86.7962 179.679 87.2178C179.61 87.6326 179.458 88.3817 179.126 89.4625C178.553 91.3299 176.931 95.8518 172.743 101.999C166.625 110.979 136.958 146.788 79.3496 144.516L91.8366 -172.005C0.931363 -175.592 -59.7329 -119.378 -89.0484 -76.3455C-119.846 -31.1378 -134.729 22.5431 -136.763 74.0968L179.758 86.5838Z" fill="#70E5FF" fill-opacity="0.5" mask="url(#path-17-inside-7_1_320)"/>
<mask id="path-19-inside-8_1_320" fill="white">
<ellipse cx="81.8263" cy="81.7363" rx="96.5386" ry="60.3366" transform="rotate(137.259 81.8263 81.7363)"/>
</mask>
<path d="M127.247 39.7631C166.375 82.1052 158.399 127.918 155.54 138.401C153.583 145.577 151.196 149.747 150.148 151.395C149.542 152.349 149.07 152.951 148.8 153.273C148.526 153.601 148.375 153.74 148.369 153.745L-66.6155 -78.8987C-104.508 -43.8829 -135.676 2.28709 -150.068 55.0612C-163.767 105.296 -167.14 187.932 -105.397 254.748L127.247 39.7631ZM148.369 153.745C148.363 153.75 148.213 153.89 147.865 154.138C147.522 154.382 146.885 154.804 145.886 155.334C144.161 156.249 139.816 158.299 132.508 159.685C121.832 161.709 75.5334 166.052 36.4053 123.709L269.049 -91.2751C207.305 -158.091 124.66 -161.237 73.5024 -151.538C19.7585 -141.349 -28.7234 -113.915 -66.6155 -78.8987L148.369 153.745ZM36.4053 123.709C-2.72275 81.3674 5.25396 35.5543 8.11267 25.0714C10.0697 17.8951 12.4562 13.7258 13.5043 12.0774C14.111 11.1233 14.5821 10.5215 14.8523 10.1991C15.127 9.87148 15.2776 9.73284 15.2834 9.7275L230.268 242.371C268.16 207.355 299.329 161.186 313.72 108.411C327.419 58.177 330.793 -24.4595 269.049 -91.2751L36.4053 123.709ZM15.2834 9.7275C15.2892 9.72216 15.4393 9.5829 15.7875 9.33492C16.1302 9.09096 16.7673 8.6687 17.7662 8.13907C19.492 7.22402 23.8364 5.17341 31.1445 3.78783C41.8201 1.76383 88.1191 -2.57901 127.247 39.7631L-105.397 254.748C-43.6528 321.563 38.9927 324.71 90.1501 315.011C143.894 304.822 192.376 277.387 230.268 242.371L15.2834 9.7275Z" fill="#B1EAD5" fill-opacity="0.5" mask="url(#path-19-inside-8_1_320)"/>
<mask id="path-21-inside-9_1_320" fill="white">
<ellipse cx="81.8263" cy="81.7361" rx="96.5386" ry="60.3366" transform="rotate(-132.741 81.8263 81.7361)"/>
</mask>
<path d="M123.799 127.157C81.4573 166.285 35.6443 158.308 25.1614 155.45C17.9851 153.493 13.8158 151.106 12.1674 150.058C11.2133 149.451 10.6114 148.98 10.2891 148.71C9.96146 148.435 9.82282 148.285 9.81748 148.279L242.461 -66.7056C207.445 -104.598 161.276 -135.766 108.501 -150.158C58.267 -163.857 -24.3695 -167.231 -91.1851 -105.487L123.799 127.157ZM9.81748 148.279C9.81214 148.273 9.67289 148.123 9.4249 147.775C9.18094 147.432 8.75869 146.795 8.22905 145.796C7.31399 144.07 5.26339 139.726 3.87781 132.418C1.85381 121.742 -2.48902 75.4432 39.8531 36.3152L254.838 268.959C321.653 207.215 324.8 124.57 315.101 73.4123C304.912 19.6684 277.477 -28.8135 242.461 -66.7056L9.81748 148.279ZM39.8531 36.3152C82.1952 -2.81289 128.008 5.16382 138.491 8.02253C145.667 9.97954 149.837 12.366 151.485 13.4142C152.439 14.0209 153.041 14.492 153.363 14.7622C153.691 15.0368 153.83 15.1875 153.835 15.1933L-78.8087 230.178C-43.7929 268.07 2.37706 299.238 55.1512 313.63C105.386 327.329 188.022 330.703 254.838 268.959L39.8531 36.3152ZM153.835 15.1933C153.84 15.199 153.98 15.3491 154.228 15.6974C154.472 16.04 154.894 16.6771 155.424 17.6761C156.339 19.4019 158.389 23.7462 159.775 31.0544C161.799 41.7299 166.142 88.029 123.799 127.157L-91.1851 -105.487C-158.001 -43.743 -161.147 38.9025 -151.448 90.06C-141.259 143.804 -113.825 192.286 -78.8087 230.178L153.835 15.1933Z" fill="#FF7070" fill-opacity="0.5" mask="url(#path-21-inside-9_1_320)"/>
<mask id="path-23-inside-10_1_320" fill="white">
<ellipse cx="81.7876" cy="82.7185" rx="96.5386" ry="60.3366" transform="rotate(-177.741 81.7876 82.7185)"/>
</mask>
<path d="M143.585 85.1564C141.312 142.765 103.277 169.519 93.8429 174.91C87.3846 178.601 82.749 179.861 80.8423 180.286C79.7386 180.531 78.9799 180.624 78.5609 180.661C78.135 180.698 77.9305 180.69 77.9226 180.689L90.4096 -135.832C38.8559 -137.866 -15.8306 -127.258 -63.324 -100.117C-108.532 -74.2831 -169.35 -18.2358 -172.936 72.6694L143.585 85.1564ZM77.9226 180.689C77.9147 180.689 77.7102 180.681 77.2885 180.61C76.8738 180.541 76.1247 180.389 75.0438 180.057C73.1764 179.484 68.6545 177.862 62.5071 173.674C53.5272 167.556 17.718 137.889 19.9907 80.2805L336.512 92.7675C340.098 1.86229 283.884 -58.802 240.852 -88.1175C195.644 -118.915 141.963 -133.798 90.4096 -135.832L77.9226 180.689ZM19.9907 80.2805C22.2633 22.6724 60.2984 -4.0819 69.7324 -9.47302C76.1906 -13.1636 80.8262 -14.4243 82.733 -14.8487C83.8366 -15.0943 84.5954 -15.1868 85.0143 -15.2237C85.4402 -15.2611 85.6448 -15.2526 85.6526 -15.2523L73.1657 301.269C124.719 303.303 179.406 292.695 226.899 265.554C272.107 239.72 332.925 183.673 336.512 92.7675L19.9907 80.2805ZM85.6526 -15.2523C85.6605 -15.252 85.8651 -15.2444 86.2867 -15.1735C86.7015 -15.1037 87.4506 -14.9518 88.5314 -14.6199C90.3988 -14.0466 94.9207 -12.4247 101.068 -8.23681C110.048 -2.11924 145.857 27.5483 143.585 85.1564L-172.936 72.6694C-176.523 163.575 -120.309 224.239 -77.2766 253.554C-32.069 284.352 21.612 299.235 73.1657 301.269L85.6526 -15.2523Z" fill="#FFF970" fill-opacity="0.5" mask="url(#path-23-inside-10_1_320)"/>
<mask id="path-25-inside-11_1_320" fill="white">
<ellipse cx="81.7875" cy="82.7188" rx="96.5386" ry="60.3366" transform="rotate(-87.7408 81.7875 82.7188)"/>
</mask>
<path d="M79.3496 144.516C21.7415 142.243 -5.01283 104.208 -10.4039 94.774C-14.0946 88.3158 -15.3552 83.6801 -15.7796 81.7734C-16.0253 80.6698 -16.1177 79.911 -16.1546 79.492C-16.1921 79.0662 -16.1836 78.8616 -16.1833 78.8537L300.338 91.3407C302.372 39.787 291.764 -14.8995 264.623 -62.3929C238.789 -107.601 182.742 -168.419 91.8366 -172.005L79.3496 144.516ZM-16.1833 78.8537C-16.1829 78.8459 -16.1753 78.6413 -16.1044 78.2197C-16.0346 77.8049 -15.8827 77.0558 -15.5509 75.9749C-14.9776 74.1076 -13.3556 69.5857 -9.16773 63.4382C-3.05017 54.4583 26.6174 18.6491 84.2255 20.9218L71.7385 337.443C162.644 341.029 223.308 284.815 252.624 241.783C283.421 196.575 298.304 142.894 300.338 91.3407L-16.1833 78.8537ZM84.2255 20.9218C141.834 23.1945 168.588 61.2295 173.979 70.6635C177.67 77.1217 178.93 81.7574 179.355 83.6641C179.6 84.7677 179.693 85.5265 179.73 85.9454C179.767 86.3713 179.759 86.5759 179.758 86.5838L-136.763 74.0968C-138.797 125.65 -128.189 180.337 -101.048 227.83C-75.214 273.038 -19.1667 333.857 71.7385 337.443L84.2255 20.9218ZM179.758 86.5838C179.758 86.5916 179.75 86.7962 179.679 87.2178C179.61 87.6326 179.458 88.3817 179.126 89.4625C178.553 91.3299 176.931 95.8518 172.743 101.999C166.625 110.979 136.958 146.788 79.3496 144.516L91.8366 -172.005C0.931363 -175.592 -59.7329 -119.378 -89.0484 -76.3455C-119.846 -31.1378 -134.729 22.5431 -136.763 74.0968L179.758 86.5838Z" fill="#70E5FF" fill-opacity="0.5" mask="url(#path-25-inside-11_1_320)"/>
<mask id="path-27-inside-12_1_320" fill="white">
<ellipse cx="81.8263" cy="81.7363" rx="96.5386" ry="60.3366" transform="rotate(137.259 81.8263 81.7363)"/>
</mask>
<path d="M127.247 39.7631C166.375 82.1052 158.399 127.918 155.54 138.401C153.583 145.577 151.196 149.747 150.148 151.395C149.542 152.349 149.07 152.951 148.8 153.273C148.526 153.601 148.375 153.74 148.369 153.745L-66.6155 -78.8987C-104.508 -43.8829 -135.676 2.28709 -150.068 55.0612C-163.767 105.296 -167.14 187.932 -105.397 254.748L127.247 39.7631ZM148.369 153.745C148.363 153.75 148.213 153.89 147.865 154.138C147.522 154.382 146.885 154.804 145.886 155.334C144.161 156.249 139.816 158.299 132.508 159.685C121.832 161.709 75.5334 166.052 36.4053 123.709L269.049 -91.2751C207.305 -158.091 124.66 -161.237 73.5024 -151.538C19.7585 -141.349 -28.7234 -113.915 -66.6155 -78.8987L148.369 153.745ZM36.4053 123.709C-2.72275 81.3674 5.25396 35.5543 8.11267 25.0714C10.0697 17.8951 12.4562 13.7258 13.5043 12.0774C14.111 11.1233 14.5821 10.5215 14.8523 10.1991C15.127 9.87148 15.2776 9.73284 15.2834 9.7275L230.268 242.371C268.16 207.355 299.329 161.186 313.72 108.411C327.419 58.177 330.793 -24.4595 269.049 -91.2751L36.4053 123.709ZM15.2834 9.7275C15.2892 9.72216 15.4393 9.5829 15.7875 9.33492C16.1302 9.09096 16.7673 8.6687 17.7662 8.13907C19.492 7.22402 23.8364 5.17341 31.1445 3.78783C41.8201 1.76383 88.1191 -2.57901 127.247 39.7631L-105.397 254.748C-43.6528 321.563 38.9927 324.71 90.1501 315.011C143.894 304.822 192.376 277.387 230.268 242.371L15.2834 9.7275Z" fill="#B1EAD5" fill-opacity="0.5" mask="url(#path-27-inside-12_1_320)"/>
<mask id="path-29-inside-13_1_320" fill="white">
<ellipse cx="81.8263" cy="81.7361" rx="96.5386" ry="60.3366" transform="rotate(-132.741 81.8263 81.7361)"/>
</mask>
<path d="M123.799 127.157C81.4573 166.285 35.6443 158.308 25.1614 155.45C17.9851 153.493 13.8158 151.106 12.1674 150.058C11.2133 149.451 10.6114 148.98 10.2891 148.71C9.96146 148.435 9.82282 148.285 9.81748 148.279L242.461 -66.7056C207.445 -104.598 161.276 -135.766 108.501 -150.158C58.267 -163.857 -24.3695 -167.231 -91.1851 -105.487L123.799 127.157ZM9.81748 148.279C9.81214 148.273 9.67289 148.123 9.4249 147.775C9.18094 147.432 8.75869 146.795 8.22905 145.796C7.31399 144.07 5.26339 139.726 3.87781 132.418C1.85381 121.742 -2.48902 75.4432 39.8531 36.3152L254.838 268.959C321.653 207.215 324.8 124.57 315.101 73.4123C304.912 19.6684 277.477 -28.8135 242.461 -66.7056L9.81748 148.279ZM39.8531 36.3152C82.1952 -2.81289 128.008 5.16382 138.491 8.02253C145.667 9.97954 149.837 12.366 151.485 13.4142C152.439 14.0209 153.041 14.492 153.363 14.7622C153.691 15.0368 153.83 15.1875 153.835 15.1933L-78.8087 230.178C-43.7929 268.07 2.37706 299.238 55.1512 313.63C105.386 327.329 188.022 330.703 254.838 268.959L39.8531 36.3152ZM153.835 15.1933C153.84 15.199 153.98 15.3491 154.228 15.6974C154.472 16.04 154.894 16.6771 155.424 17.6761C156.339 19.4019 158.389 23.7462 159.775 31.0544C161.799 41.7299 166.142 88.029 123.799 127.157L-91.1851 -105.487C-158.001 -43.743 -161.147 38.9025 -151.448 90.06C-141.259 143.804 -113.825 192.286 -78.8087 230.178L153.835 15.1933Z" fill="#FF7070" fill-opacity="0.5" mask="url(#path-29-inside-13_1_320)"/>
<mask id="path-31-inside-14_1_320" fill="white">
<ellipse cx="81.7876" cy="82.7185" rx="96.5386" ry="60.3366" transform="rotate(-177.741 81.7876 82.7185)"/>
</mask>
<path d="M143.585 85.1564C141.312 142.765 103.277 169.519 93.8429 174.91C87.3846 178.601 82.749 179.861 80.8423 180.286C79.7386 180.531 78.9799 180.624 78.5609 180.661C78.135 180.698 77.9305 180.69 77.9226 180.689L90.4096 -135.832C38.8559 -137.866 -15.8306 -127.258 -63.324 -100.117C-108.532 -74.2831 -169.35 -18.2358 -172.936 72.6694L143.585 85.1564ZM77.9226 180.689C77.9147 180.689 77.7102 180.681 77.2885 180.61C76.8738 180.541 76.1247 180.389 75.0438 180.057C73.1764 179.484 68.6545 177.862 62.5071 173.674C53.5272 167.556 17.718 137.889 19.9907 80.2805L336.512 92.7675C340.098 1.86229 283.884 -58.802 240.852 -88.1175C195.644 -118.915 141.963 -133.798 90.4096 -135.832L77.9226 180.689ZM19.9907 80.2805C22.2633 22.6724 60.2984 -4.0819 69.7324 -9.47302C76.1906 -13.1636 80.8262 -14.4243 82.733 -14.8487C83.8366 -15.0943 84.5954 -15.1868 85.0143 -15.2237C85.4402 -15.2611 85.6448 -15.2526 85.6526 -15.2523L73.1657 301.269C124.719 303.303 179.406 292.695 226.899 265.554C272.107 239.72 332.925 183.673 336.512 92.7675L19.9907 80.2805ZM85.6526 -15.2523C85.6605 -15.252 85.8651 -15.2444 86.2867 -15.1735C86.7015 -15.1037 87.4506 -14.9518 88.5314 -14.6199C90.3988 -14.0466 94.9207 -12.4247 101.068 -8.23681C110.048 -2.11924 145.857 27.5483 143.585 85.1564L-172.936 72.6694C-176.523 163.575 -120.309 224.239 -77.2766 253.554C-32.069 284.352 21.612 299.235 73.1657 301.269L85.6526 -15.2523Z" fill="#FFF970" fill-opacity="0.5" mask="url(#path-31-inside-14_1_320)"/>
<mask id="path-33-inside-15_1_320" fill="white">
<ellipse cx="81.7875" cy="82.7188" rx="96.5386" ry="60.3366" transform="rotate(-87.7408 81.7875 82.7188)"/>
</mask>
<path d="M79.3496 144.516C21.7415 142.243 -5.01283 104.208 -10.4039 94.774C-14.0946 88.3158 -15.3552 83.6801 -15.7796 81.7734C-16.0253 80.6698 -16.1177 79.911 -16.1546 79.492C-16.1921 79.0662 -16.1836 78.8616 -16.1833 78.8537L300.338 91.3407C302.372 39.787 291.764 -14.8995 264.623 -62.3929C238.789 -107.601 182.742 -168.419 91.8366 -172.005L79.3496 144.516ZM-16.1833 78.8537C-16.1829 78.8459 -16.1753 78.6413 -16.1044 78.2197C-16.0346 77.8049 -15.8827 77.0558 -15.5509 75.9749C-14.9776 74.1076 -13.3556 69.5857 -9.16773 63.4382C-3.05017 54.4583 26.6174 18.6491 84.2255 20.9218L71.7385 337.443C162.644 341.029 223.308 284.815 252.624 241.783C283.421 196.575 298.304 142.894 300.338 91.3407L-16.1833 78.8537ZM84.2255 20.9218C141.834 23.1945 168.588 61.2295 173.979 70.6635C177.67 77.1217 178.93 81.7574 179.355 83.6641C179.6 84.7677 179.693 85.5265 179.73 85.9454C179.767 86.3713 179.759 86.5759 179.758 86.5838L-136.763 74.0968C-138.797 125.65 -128.189 180.337 -101.048 227.83C-75.214 273.038 -19.1667 333.857 71.7385 337.443L84.2255 20.9218ZM179.758 86.5838C179.758 86.5916 179.75 86.7962 179.679 87.2178C179.61 87.6326 179.458 88.3817 179.126 89.4625C178.553 91.3299 176.931 95.8518 172.743 101.999C166.625 110.979 136.958 146.788 79.3496 144.516L91.8366 -172.005C0.931363 -175.592 -59.7329 -119.378 -89.0484 -76.3455C-119.846 -31.1378 -134.729 22.5431 -136.763 74.0968L179.758 86.5838Z" fill="#70E5FF" fill-opacity="0.5" mask="url(#path-33-inside-15_1_320)"/>
<mask id="path-35-inside-16_1_320" fill="white">
<ellipse cx="81.8263" cy="81.7363" rx="96.5386" ry="60.3366" transform="rotate(137.259 81.8263 81.7363)"/>
</mask>
<path d="M127.247 39.7631C166.375 82.1052 158.399 127.918 155.54 138.401C153.583 145.577 151.196 149.747 150.148 151.395C149.542 152.349 149.07 152.951 148.8 153.273C148.526 153.601 148.375 153.74 148.369 153.745L-66.6155 -78.8987C-104.508 -43.8829 -135.676 2.28709 -150.068 55.0612C-163.767 105.296 -167.14 187.932 -105.397 254.748L127.247 39.7631ZM148.369 153.745C148.363 153.75 148.213 153.89 147.865 154.138C147.522 154.382 146.885 154.804 145.886 155.334C144.161 156.249 139.816 158.299 132.508 159.685C121.832 161.709 75.5334 166.052 36.4053 123.709L269.049 -91.2751C207.305 -158.091 124.66 -161.237 73.5024 -151.538C19.7585 -141.349 -28.7234 -113.915 -66.6155 -78.8987L148.369 153.745ZM36.4053 123.709C-2.72275 81.3674 5.25396 35.5543 8.11267 25.0714C10.0697 17.8951 12.4562 13.7258 13.5043 12.0774C14.111 11.1233 14.5821 10.5215 14.8523 10.1991C15.127 9.87148 15.2776 9.73284 15.2834 9.7275L230.268 242.371C268.16 207.355 299.329 161.186 313.72 108.411C327.419 58.177 330.793 -24.4595 269.049 -91.2751L36.4053 123.709ZM15.2834 9.7275C15.2892 9.72216 15.4393 9.5829 15.7875 9.33492C16.1302 9.09096 16.7673 8.6687 17.7662 8.13907C19.492 7.22402 23.8364 5.17341 31.1445 3.78783C41.8201 1.76383 88.1191 -2.57901 127.247 39.7631L-105.397 254.748C-43.6528 321.563 38.9927 324.71 90.1501 315.011C143.894 304.822 192.376 277.387 230.268 242.371L15.2834 9.7275Z" fill="#B1EAD5" fill-opacity="0.5" mask="url(#path-35-inside-16_1_320)"/>
</g>
<g filter="url(#filter0_d_1_320)">
<circle cx="82" cy="82" r="69" stroke="#6DE4F7" stroke-opacity="0.01" stroke-width="4" shape-rendering="crispEdges"/>
</g>
<defs>
<filter id="filter0_d_1_320" x="9" y="9" width="146" height="146" filterUnits="userSpaceOnUse" color-interpolation-filters="sRGB">
<feFlood flood-opacity="0" result="BackgroundImageFix"/>
<feColorMatrix in="SourceAlpha" type="matrix" values="0 0 0 0 0 0 0 0 0 0 0 0 0 0 0 0 0 0 127 0" result="hardAlpha"/>
<feOffset/>
<feGaussianBlur stdDeviation="1"/>
<feComposite in2="hardAlpha" operator="out"/>
<feColorMatrix type="matrix" values="0 0 0 0 1 0 0 0 0 1 0 0 0 0 1 0 0 0 1 0"/>
<feBlend mode="normal" in2="BackgroundImageFix" result="effect1_dropShadow_1_320"/>
<feBlend mode="normal" in="SourceGraphic" in2="effect1_dropShadow_1_320" result="shape"/>
</filter>
<clipPath id="clip0_1_320">
<rect width="157" height="157" fill="white" transform="translate(3 3)"/>
</clipPath>
</defs>
</svg>
