<svg width="200" height="200" viewBox="0 0 200 200" fill="none" xmlns="http://www.w3.org/2000/svg">
<g clip-path="url(#clip0_1046_12412)">
<rect width="200" height="200" fill="white"/>
<mask id="path-1-inside-1_1046_12412" fill="white">
<ellipse cx="100.668" cy="98.6688" rx="86.3295" ry="53.9559" transform="rotate(180 100.668 98.6688)"/>
</mask>
<path d="M155.973 98.6688C155.973 150.225 122.93 175.472 114.69 180.622C109.05 184.147 104.952 185.437 103.263 185.884C102.286 186.142 101.611 186.251 101.238 186.299C100.859 186.348 100.675 186.347 100.668 186.347L100.668 -96.9214C54.5307 -96.9214 6.03936 -85.5151 -35.4418 -59.5894C-74.9266 -34.9114 -127.295 17.3137 -127.295 98.6688L155.973 98.6688ZM100.668 186.347C100.661 186.347 100.478 186.348 100.099 186.299C99.726 186.251 99.0513 186.142 98.0738 185.884C96.385 185.437 92.2872 184.147 86.6465 180.622C78.4068 175.472 45.3636 150.225 45.3636 98.6688L328.632 98.6688C328.632 17.3137 276.263 -34.9114 236.779 -59.5894C195.297 -85.5151 146.806 -96.9214 100.668 -96.9214L100.668 186.347ZM45.3636 98.6688C45.3636 47.1128 78.4068 21.8656 86.6465 16.7158C92.2872 13.1903 96.385 11.9005 98.0738 11.454C99.0513 11.1956 99.726 11.0863 100.099 11.0386C100.478 10.9901 100.661 10.9904 100.668 10.9904L100.668 294.259C146.806 294.259 195.297 282.853 236.779 256.927C276.263 232.249 328.632 180.024 328.632 98.6688L45.3636 98.6688ZM100.668 10.9904C100.675 10.9904 100.859 10.9901 101.238 11.0386C101.611 11.0863 102.286 11.1956 103.263 11.454C104.952 11.9005 109.05 13.1903 114.69 16.7158C122.93 21.8656 155.973 47.1128 155.973 98.6688L-127.295 98.6688C-127.295 180.024 -74.9266 232.249 -35.4418 256.927C6.03937 282.853 54.5308 294.259 100.668 294.259L100.668 10.9904Z" fill="#FF7070" fill-opacity="0.5" mask="url(#path-1-inside-1_1046_12412)"/>
<mask id="path-3-inside-2_1046_12412" fill="white">
<ellipse cx="101.29" cy="99.2903" rx="86.3295" ry="53.9559" transform="rotate(135 101.29 99.2903)"/>
</mask>
<path d="M140.396 60.1839C176.852 96.6395 171.339 137.857 169.155 147.325C167.659 153.806 165.673 157.616 164.795 159.126C164.286 160 163.887 160.554 163.657 160.852C163.423 161.154 163.293 161.283 163.288 161.288L-37.0131 -39.0128C-69.6373 -6.38859 -95.8604 35.9654 -106.86 83.6293C-117.33 128.999 -117.431 202.958 -59.9046 260.485L140.396 60.1839ZM163.288 161.288C163.283 161.293 163.154 161.423 162.851 161.657C162.554 161.887 161.999 162.287 161.126 162.795C159.616 163.674 155.806 165.659 149.325 167.155C139.857 169.34 98.6393 174.852 62.1837 138.397L262.485 -61.9044C204.958 -119.431 130.999 -119.33 85.629 -108.86C37.9652 -97.8602 -4.38881 -71.6371 -37.0131 -39.0128L163.288 161.288ZM62.1837 138.397C25.7281 101.941 31.2407 60.7235 33.4256 51.2557C34.9213 44.7743 36.9068 40.9647 37.7853 39.4548C38.2937 38.5809 38.6935 38.0265 38.9236 37.729C39.1574 37.4265 39.2872 37.2973 39.2921 37.2923L239.593 237.593C272.217 204.969 298.441 162.615 309.44 114.951C319.91 69.5814 320.011 -4.37768 262.485 -61.9044L62.1837 138.397ZM39.2921 37.2923C39.2971 37.2874 39.4263 37.1576 39.7288 36.9238C40.0263 36.6937 40.5807 36.2939 41.4546 35.7855C42.9645 34.907 46.7741 32.9215 53.2555 31.4258C62.7233 29.2409 103.941 23.7283 140.396 60.1839L-59.9046 260.485C-2.3779 318.012 71.5811 317.91 116.951 307.44C164.615 296.441 206.969 270.218 239.593 237.593L39.2921 37.2923Z" fill="#FFF970" fill-opacity="0.5" mask="url(#path-3-inside-2_1046_12412)"/>
<mask id="path-5-inside-3_1046_12412" fill="white">
<ellipse cx="101.29" cy="99.2904" rx="86.3295" ry="53.9559" transform="rotate(-135 101.29 99.2904)"/>
</mask>
<path d="M140.396 138.397C103.941 174.852 62.7233 169.34 53.2555 167.155C46.7741 165.659 42.9645 163.674 41.4546 162.795C40.5807 162.287 40.0263 161.887 39.7288 161.657C39.4263 161.423 39.2971 161.293 39.2921 161.288L239.593 -39.0128C206.969 -71.637 164.615 -97.8601 116.951 -108.859C71.5812 -119.329 -2.37789 -119.431 -59.9046 -61.9043L140.396 138.397ZM39.2921 161.288C39.2872 161.283 39.1574 161.154 38.9236 160.852C38.6935 160.554 38.2937 160 37.7853 159.126C36.9068 157.616 34.9213 153.806 33.4256 147.325C31.2407 137.857 25.7281 96.6396 62.1837 60.184L262.485 260.485C320.011 202.958 319.91 128.999 309.44 83.6293C298.441 35.9655 272.217 -6.3885 239.593 -39.0128L39.2921 161.288ZM62.1837 60.184C98.6393 23.7284 139.857 29.241 149.325 31.4259C155.806 32.9216 159.616 34.9071 161.126 35.7856C161.999 36.294 162.554 36.6938 162.851 36.9239C163.154 37.1577 163.283 37.2875 163.288 37.2924L-37.0131 237.594C-4.3888 270.218 37.9652 296.441 85.6291 307.44C130.999 317.91 204.958 318.012 262.485 260.485L62.1837 60.184ZM163.288 37.2924C163.293 37.2974 163.423 37.4266 163.657 37.7291C163.887 38.0266 164.286 38.581 164.795 39.4549C165.673 40.9648 167.659 44.7744 169.155 51.2558C171.339 60.7236 176.852 101.941 140.396 138.397L-59.9046 -61.9043C-117.431 -4.3776 -117.33 69.5814 -106.86 114.951C-95.8604 162.615 -69.6373 204.969 -37.0131 237.594L163.288 37.2924Z" fill="#70E5FF" fill-opacity="0.5" mask="url(#path-5-inside-3_1046_12412)"/>
<mask id="path-7-inside-4_1046_12412" fill="white">
<ellipse cx="100.668" cy="98.6687" rx="86.3295" ry="53.9559" transform="rotate(90 100.668 98.6687)"/>
</mask>
<path d="M100.668 43.3639C152.224 43.3639 177.472 76.4071 182.621 84.6468C186.147 90.2875 187.437 94.3852 187.883 96.0741C188.142 97.0515 188.251 97.7263 188.299 98.0993C188.347 98.4786 188.347 98.6617 188.347 98.6687L-94.9218 98.6687C-94.9218 144.806 -83.5155 193.298 -57.5898 234.779C-32.9118 274.264 19.3133 326.632 100.668 326.632L100.668 43.3639ZM188.347 98.6687C188.347 98.6757 188.347 98.8588 188.299 99.238C188.251 99.6111 188.142 100.286 187.883 101.263C187.437 102.952 186.147 107.05 182.621 112.691C177.472 120.93 152.224 153.973 100.668 153.974L100.668 -129.295C19.3133 -129.295 -32.9118 -76.9263 -57.5899 -37.4414C-83.5156 4.03968 -94.9218 52.5311 -94.9218 98.6687L188.347 98.6687ZM100.668 153.974C49.1123 153.974 23.8652 120.93 18.7153 112.691C15.1899 107.05 13.9001 102.952 13.4536 101.263C13.1952 100.286 13.0859 99.6111 13.0381 99.2381C12.9896 98.8588 12.99 98.6757 12.99 98.6687L296.259 98.6687C296.259 52.531 284.852 4.03964 258.927 -37.4415C234.249 -76.9263 182.023 -129.295 100.668 -129.295L100.668 153.974ZM12.99 98.6687C12.99 98.6617 12.9896 98.4786 13.0381 98.0994C13.0859 97.7263 13.1952 97.0516 13.4536 96.0741C13.9001 94.3853 15.1899 90.2875 18.7153 84.6468C23.8652 76.4071 49.1123 43.3639 100.668 43.3639L100.668 326.632C182.023 326.632 234.249 274.264 258.927 234.779C284.852 193.298 296.259 144.806 296.259 98.6687L12.99 98.6687Z" fill="#B1EAD5" fill-opacity="0.5" mask="url(#path-7-inside-4_1046_12412)"/>
<mask id="path-9-inside-5_1046_12412" fill="white">
<ellipse cx="100.668" cy="98.6688" rx="86.3295" ry="53.9559" transform="rotate(180 100.668 98.6688)"/>
</mask>
<path d="M155.973 98.6688C155.973 150.225 122.93 175.472 114.69 180.622C109.05 184.147 104.952 185.437 103.263 185.884C102.286 186.142 101.611 186.251 101.238 186.299C100.859 186.348 100.675 186.347 100.668 186.347L100.668 -96.9214C54.5307 -96.9214 6.03936 -85.5151 -35.4418 -59.5894C-74.9266 -34.9114 -127.295 17.3137 -127.295 98.6688L155.973 98.6688ZM100.668 186.347C100.661 186.347 100.478 186.348 100.099 186.299C99.726 186.251 99.0513 186.142 98.0738 185.884C96.385 185.437 92.2872 184.147 86.6465 180.622C78.4068 175.472 45.3636 150.225 45.3636 98.6688L328.632 98.6688C328.632 17.3137 276.263 -34.9114 236.779 -59.5894C195.297 -85.5151 146.806 -96.9214 100.668 -96.9214L100.668 186.347ZM45.3636 98.6688C45.3636 47.1128 78.4068 21.8656 86.6465 16.7158C92.2872 13.1903 96.385 11.9005 98.0738 11.454C99.0513 11.1956 99.726 11.0863 100.099 11.0386C100.478 10.9901 100.661 10.9904 100.668 10.9904L100.668 294.259C146.806 294.259 195.297 282.853 236.779 256.927C276.263 232.249 328.632 180.024 328.632 98.6688L45.3636 98.6688ZM100.668 10.9904C100.675 10.9904 100.859 10.9901 101.238 11.0386C101.611 11.0863 102.286 11.1956 103.263 11.454C104.952 11.9005 109.05 13.1903 114.69 16.7158C122.93 21.8656 155.973 47.1128 155.973 98.6688L-127.295 98.6688C-127.295 180.024 -74.9266 232.249 -35.4418 256.927C6.03937 282.853 54.5308 294.259 100.668 294.259L100.668 10.9904Z" fill="#FF7070" fill-opacity="0.5" mask="url(#path-9-inside-5_1046_12412)"/>
<mask id="path-11-inside-6_1046_12412" fill="white">
<ellipse cx="101.29" cy="99.2903" rx="86.3295" ry="53.9559" transform="rotate(135 101.29 99.2903)"/>
</mask>
<path d="M140.396 60.1839C176.852 96.6395 171.339 137.857 169.155 147.325C167.659 153.806 165.673 157.616 164.795 159.126C164.286 160 163.887 160.554 163.657 160.852C163.423 161.154 163.293 161.283 163.288 161.288L-37.0131 -39.0128C-69.6373 -6.38859 -95.8604 35.9654 -106.86 83.6293C-117.33 128.999 -117.431 202.958 -59.9046 260.485L140.396 60.1839ZM163.288 161.288C163.283 161.293 163.154 161.423 162.851 161.657C162.554 161.887 161.999 162.287 161.126 162.795C159.616 163.674 155.806 165.659 149.325 167.155C139.857 169.34 98.6393 174.852 62.1837 138.397L262.485 -61.9044C204.958 -119.431 130.999 -119.33 85.629 -108.86C37.9652 -97.8602 -4.38881 -71.6371 -37.0131 -39.0128L163.288 161.288ZM62.1837 138.397C25.7281 101.941 31.2407 60.7235 33.4256 51.2557C34.9213 44.7743 36.9068 40.9647 37.7853 39.4548C38.2937 38.5809 38.6935 38.0265 38.9236 37.729C39.1574 37.4265 39.2872 37.2973 39.2921 37.2923L239.593 237.593C272.217 204.969 298.441 162.615 309.44 114.951C319.91 69.5814 320.011 -4.37768 262.485 -61.9044L62.1837 138.397ZM39.2921 37.2923C39.2971 37.2874 39.4263 37.1576 39.7288 36.9238C40.0263 36.6937 40.5807 36.2939 41.4546 35.7855C42.9645 34.907 46.7741 32.9215 53.2555 31.4258C62.7233 29.2409 103.941 23.7283 140.396 60.1839L-59.9046 260.485C-2.3779 318.012 71.5811 317.91 116.951 307.44C164.615 296.441 206.969 270.218 239.593 237.593L39.2921 37.2923Z" fill="#FFF970" fill-opacity="0.5" mask="url(#path-11-inside-6_1046_12412)"/>
<mask id="path-13-inside-7_1046_12412" fill="white">
<ellipse cx="101.29" cy="99.2904" rx="86.3295" ry="53.9559" transform="rotate(-135 101.29 99.2904)"/>
</mask>
<path d="M140.396 138.397C103.941 174.852 62.7233 169.34 53.2555 167.155C46.7741 165.659 42.9645 163.674 41.4546 162.795C40.5807 162.287 40.0263 161.887 39.7288 161.657C39.4263 161.423 39.2971 161.293 39.2921 161.288L239.593 -39.0128C206.969 -71.637 164.615 -97.8601 116.951 -108.859C71.5812 -119.329 -2.37789 -119.431 -59.9046 -61.9043L140.396 138.397ZM39.2921 161.288C39.2872 161.283 39.1574 161.154 38.9236 160.852C38.6935 160.554 38.2937 160 37.7853 159.126C36.9068 157.616 34.9213 153.806 33.4256 147.325C31.2407 137.857 25.7281 96.6396 62.1837 60.184L262.485 260.485C320.011 202.958 319.91 128.999 309.44 83.6293C298.441 35.9655 272.217 -6.3885 239.593 -39.0128L39.2921 161.288ZM62.1837 60.184C98.6393 23.7284 139.857 29.241 149.325 31.4259C155.806 32.9216 159.616 34.9071 161.126 35.7856C161.999 36.294 162.554 36.6938 162.851 36.9239C163.154 37.1577 163.283 37.2875 163.288 37.2924L-37.0131 237.594C-4.3888 270.218 37.9652 296.441 85.6291 307.44C130.999 317.91 204.958 318.012 262.485 260.485L62.1837 60.184ZM163.288 37.2924C163.293 37.2974 163.423 37.4266 163.657 37.7291C163.887 38.0266 164.286 38.581 164.795 39.4549C165.673 40.9648 167.659 44.7744 169.155 51.2558C171.339 60.7236 176.852 101.941 140.396 138.397L-59.9046 -61.9043C-117.431 -4.3776 -117.33 69.5814 -106.86 114.951C-95.8604 162.615 -69.6373 204.969 -37.0131 237.594L163.288 37.2924Z" fill="#70E5FF" fill-opacity="0.5" mask="url(#path-13-inside-7_1046_12412)"/>
<mask id="path-15-inside-8_1046_12412" fill="white">
<ellipse cx="100.668" cy="98.6687" rx="86.3295" ry="53.9559" transform="rotate(90 100.668 98.6687)"/>
</mask>
<path d="M100.668 43.3639C152.224 43.3639 177.472 76.4071 182.621 84.6468C186.147 90.2875 187.437 94.3852 187.883 96.0741C188.142 97.0515 188.251 97.7263 188.299 98.0993C188.347 98.4786 188.347 98.6617 188.347 98.6687L-94.9218 98.6687C-94.9218 144.806 -83.5155 193.298 -57.5898 234.779C-32.9118 274.264 19.3133 326.632 100.668 326.632L100.668 43.3639ZM188.347 98.6687C188.347 98.6757 188.347 98.8588 188.299 99.238C188.251 99.6111 188.142 100.286 187.883 101.263C187.437 102.952 186.147 107.05 182.621 112.691C177.472 120.93 152.224 153.973 100.668 153.974L100.668 -129.295C19.3133 -129.295 -32.9118 -76.9263 -57.5899 -37.4414C-83.5156 4.03968 -94.9218 52.5311 -94.9218 98.6687L188.347 98.6687ZM100.668 153.974C49.1123 153.974 23.8652 120.93 18.7153 112.691C15.1899 107.05 13.9001 102.952 13.4536 101.263C13.1952 100.286 13.0859 99.6111 13.0381 99.2381C12.9896 98.8588 12.99 98.6757 12.99 98.6687L296.259 98.6687C296.259 52.531 284.852 4.03964 258.927 -37.4415C234.249 -76.9263 182.023 -129.295 100.668 -129.295L100.668 153.974ZM12.99 98.6687C12.99 98.6617 12.9896 98.4786 13.0381 98.0994C13.0859 97.7263 13.1952 97.0516 13.4536 96.0741C13.9001 94.3853 15.1899 90.2875 18.7153 84.6468C23.8652 76.4071 49.1123 43.3639 100.668 43.3639L100.668 326.632C182.023 326.632 234.249 274.264 258.927 234.779C284.852 193.298 296.259 144.806 296.259 98.6687L12.99 98.6687Z" fill="#B1EAD5" fill-opacity="0.5" mask="url(#path-15-inside-8_1046_12412)"/>
<mask id="path-17-inside-9_1046_12412" fill="white">
<ellipse cx="100.668" cy="98.6688" rx="86.3295" ry="53.9559" transform="rotate(180 100.668 98.6688)"/>
</mask>
<path d="M155.973 98.6688C155.973 150.225 122.93 175.472 114.69 180.622C109.05 184.147 104.952 185.437 103.263 185.884C102.286 186.142 101.611 186.251 101.238 186.299C100.859 186.348 100.675 186.347 100.668 186.347L100.668 -96.9214C54.5307 -96.9214 6.03936 -85.5151 -35.4418 -59.5894C-74.9266 -34.9114 -127.295 17.3137 -127.295 98.6688L155.973 98.6688ZM100.668 186.347C100.661 186.347 100.478 186.348 100.099 186.299C99.726 186.251 99.0513 186.142 98.0738 185.884C96.385 185.437 92.2872 184.147 86.6465 180.622C78.4068 175.472 45.3636 150.225 45.3636 98.6688L328.632 98.6688C328.632 17.3137 276.263 -34.9114 236.779 -59.5894C195.297 -85.5151 146.806 -96.9214 100.668 -96.9214L100.668 186.347ZM45.3636 98.6688C45.3636 47.1128 78.4068 21.8656 86.6465 16.7158C92.2872 13.1903 96.385 11.9005 98.0738 11.454C99.0513 11.1956 99.726 11.0863 100.099 11.0386C100.478 10.9901 100.661 10.9904 100.668 10.9904L100.668 294.259C146.806 294.259 195.297 282.853 236.779 256.927C276.263 232.249 328.632 180.024 328.632 98.6688L45.3636 98.6688ZM100.668 10.9904C100.675 10.9904 100.859 10.9901 101.238 11.0386C101.611 11.0863 102.286 11.1956 103.263 11.454C104.952 11.9005 109.05 13.1903 114.69 16.7158C122.93 21.8656 155.973 47.1128 155.973 98.6688L-127.295 98.6688C-127.295 180.024 -74.9266 232.249 -35.4418 256.927C6.03937 282.853 54.5308 294.259 100.668 294.259L100.668 10.9904Z" fill="#FF7070" fill-opacity="0.5" mask="url(#path-17-inside-9_1046_12412)"/>
<mask id="path-19-inside-10_1046_12412" fill="white">
<ellipse cx="101.29" cy="99.2903" rx="86.3295" ry="53.9559" transform="rotate(135 101.29 99.2903)"/>
</mask>
<path d="M140.396 60.1839C176.852 96.6395 171.339 137.857 169.155 147.325C167.659 153.806 165.673 157.616 164.795 159.126C164.286 160 163.887 160.554 163.657 160.852C163.423 161.154 163.293 161.283 163.288 161.288L-37.0131 -39.0128C-69.6373 -6.38859 -95.8604 35.9654 -106.86 83.6293C-117.33 128.999 -117.431 202.958 -59.9046 260.485L140.396 60.1839ZM163.288 161.288C163.283 161.293 163.154 161.423 162.851 161.657C162.554 161.887 161.999 162.287 161.126 162.795C159.616 163.674 155.806 165.659 149.325 167.155C139.857 169.34 98.6393 174.852 62.1837 138.397L262.485 -61.9044C204.958 -119.431 130.999 -119.33 85.629 -108.86C37.9652 -97.8602 -4.38881 -71.6371 -37.0131 -39.0128L163.288 161.288ZM62.1837 138.397C25.7281 101.941 31.2407 60.7235 33.4256 51.2557C34.9213 44.7743 36.9068 40.9647 37.7853 39.4548C38.2937 38.5809 38.6935 38.0265 38.9236 37.729C39.1574 37.4265 39.2872 37.2973 39.2921 37.2923L239.593 237.593C272.217 204.969 298.441 162.615 309.44 114.951C319.91 69.5814 320.011 -4.37768 262.485 -61.9044L62.1837 138.397ZM39.2921 37.2923C39.2971 37.2874 39.4263 37.1576 39.7288 36.9238C40.0263 36.6937 40.5807 36.2939 41.4546 35.7855C42.9645 34.907 46.7741 32.9215 53.2555 31.4258C62.7233 29.2409 103.941 23.7283 140.396 60.1839L-59.9046 260.485C-2.3779 318.012 71.5811 317.91 116.951 307.44C164.615 296.441 206.969 270.218 239.593 237.593L39.2921 37.2923Z" fill="#FFF970" fill-opacity="0.5" mask="url(#path-19-inside-10_1046_12412)"/>
<mask id="path-21-inside-11_1046_12412" fill="white">
<ellipse cx="101.29" cy="99.2904" rx="86.3295" ry="53.9559" transform="rotate(-135 101.29 99.2904)"/>
</mask>
<path d="M140.396 138.397C103.941 174.852 62.7233 169.34 53.2555 167.155C46.7741 165.659 42.9645 163.674 41.4546 162.795C40.5807 162.287 40.0263 161.887 39.7288 161.657C39.4263 161.423 39.2971 161.293 39.2921 161.288L239.593 -39.0128C206.969 -71.637 164.615 -97.8601 116.951 -108.859C71.5812 -119.329 -2.37789 -119.431 -59.9046 -61.9043L140.396 138.397ZM39.2921 161.288C39.2872 161.283 39.1574 161.154 38.9236 160.852C38.6935 160.554 38.2937 160 37.7853 159.126C36.9068 157.616 34.9213 153.806 33.4256 147.325C31.2407 137.857 25.7281 96.6396 62.1837 60.184L262.485 260.485C320.011 202.958 319.91 128.999 309.44 83.6293C298.441 35.9655 272.217 -6.3885 239.593 -39.0128L39.2921 161.288ZM62.1837 60.184C98.6393 23.7284 139.857 29.241 149.325 31.4259C155.806 32.9216 159.616 34.9071 161.126 35.7856C161.999 36.294 162.554 36.6938 162.851 36.9239C163.154 37.1577 163.283 37.2875 163.288 37.2924L-37.0131 237.594C-4.3888 270.218 37.9652 296.441 85.6291 307.44C130.999 317.91 204.958 318.012 262.485 260.485L62.1837 60.184ZM163.288 37.2924C163.293 37.2974 163.423 37.4266 163.657 37.7291C163.887 38.0266 164.286 38.581 164.795 39.4549C165.673 40.9648 167.659 44.7744 169.155 51.2558C171.339 60.7236 176.852 101.941 140.396 138.397L-59.9046 -61.9043C-117.431 -4.3776 -117.33 69.5814 -106.86 114.951C-95.8604 162.615 -69.6373 204.969 -37.0131 237.594L163.288 37.2924Z" fill="#70E5FF" fill-opacity="0.5" mask="url(#path-21-inside-11_1046_12412)"/>
<mask id="path-23-inside-12_1046_12412" fill="white">
<ellipse cx="100.668" cy="98.6687" rx="86.3295" ry="53.9559" transform="rotate(90 100.668 98.6687)"/>
</mask>
<path d="M100.668 43.3639C152.224 43.3639 177.472 76.4071 182.621 84.6468C186.147 90.2875 187.437 94.3852 187.883 96.0741C188.142 97.0515 188.251 97.7263 188.299 98.0993C188.347 98.4786 188.347 98.6617 188.347 98.6687L-94.9218 98.6687C-94.9218 144.806 -83.5155 193.298 -57.5898 234.779C-32.9118 274.264 19.3133 326.632 100.668 326.632L100.668 43.3639ZM188.347 98.6687C188.347 98.6757 188.347 98.8588 188.299 99.238C188.251 99.6111 188.142 100.286 187.883 101.263C187.437 102.952 186.147 107.05 182.621 112.691C177.472 120.93 152.224 153.973 100.668 153.974L100.668 -129.295C19.3133 -129.295 -32.9118 -76.9263 -57.5899 -37.4414C-83.5156 4.03968 -94.9218 52.5311 -94.9218 98.6687L188.347 98.6687ZM100.668 153.974C49.1123 153.974 23.8652 120.93 18.7153 112.691C15.1899 107.05 13.9001 102.952 13.4536 101.263C13.1952 100.286 13.0859 99.6111 13.0381 99.2381C12.9896 98.8588 12.99 98.6757 12.99 98.6687L296.259 98.6687C296.259 52.531 284.852 4.03964 258.927 -37.4415C234.249 -76.9263 182.023 -129.295 100.668 -129.295L100.668 153.974ZM12.99 98.6687C12.99 98.6617 12.9896 98.4786 13.0381 98.0994C13.0859 97.7263 13.1952 97.0516 13.4536 96.0741C13.9001 94.3853 15.1899 90.2875 18.7153 84.6468C23.8652 76.4071 49.1123 43.3639 100.668 43.3639L100.668 326.632C182.023 326.632 234.249 274.264 258.927 234.779C284.852 193.298 296.259 144.806 296.259 98.6687L12.99 98.6687Z" fill="#B1EAD5" fill-opacity="0.5" mask="url(#path-23-inside-12_1046_12412)"/>
<mask id="path-25-inside-13_1046_12412" fill="white">
<ellipse cx="100.668" cy="98.6688" rx="86.3295" ry="53.9559" transform="rotate(180 100.668 98.6688)"/>
</mask>
<path d="M155.973 98.6688C155.973 150.225 122.93 175.472 114.69 180.622C109.05 184.147 104.952 185.437 103.263 185.884C102.286 186.142 101.611 186.251 101.238 186.299C100.859 186.348 100.675 186.347 100.668 186.347L100.668 -96.9214C54.5307 -96.9214 6.03936 -85.5151 -35.4418 -59.5894C-74.9266 -34.9114 -127.295 17.3137 -127.295 98.6688L155.973 98.6688ZM100.668 186.347C100.661 186.347 100.478 186.348 100.099 186.299C99.726 186.251 99.0513 186.142 98.0738 185.884C96.385 185.437 92.2872 184.147 86.6465 180.622C78.4068 175.472 45.3636 150.225 45.3636 98.6688L328.632 98.6688C328.632 17.3137 276.263 -34.9114 236.779 -59.5894C195.297 -85.5151 146.806 -96.9214 100.668 -96.9214L100.668 186.347ZM45.3636 98.6688C45.3636 47.1128 78.4068 21.8656 86.6465 16.7158C92.2872 13.1903 96.385 11.9005 98.0738 11.454C99.0513 11.1956 99.726 11.0863 100.099 11.0386C100.478 10.9901 100.661 10.9904 100.668 10.9904L100.668 294.259C146.806 294.259 195.297 282.853 236.779 256.927C276.263 232.249 328.632 180.024 328.632 98.6688L45.3636 98.6688ZM100.668 10.9904C100.675 10.9904 100.859 10.9901 101.238 11.0386C101.611 11.0863 102.286 11.1956 103.263 11.454C104.952 11.9005 109.05 13.1903 114.69 16.7158C122.93 21.8656 155.973 47.1128 155.973 98.6688L-127.295 98.6688C-127.295 180.024 -74.9266 232.249 -35.4418 256.927C6.03937 282.853 54.5308 294.259 100.668 294.259L100.668 10.9904Z" fill="#FF7070" fill-opacity="0.5" mask="url(#path-25-inside-13_1046_12412)"/>
<mask id="path-27-inside-14_1046_12412" fill="white">
<ellipse cx="101.29" cy="99.2903" rx="86.3295" ry="53.9559" transform="rotate(135 101.29 99.2903)"/>
</mask>
<path d="M140.396 60.1839C176.852 96.6395 171.339 137.857 169.155 147.325C167.659 153.806 165.673 157.616 164.795 159.126C164.286 160 163.887 160.554 163.657 160.852C163.423 161.154 163.293 161.283 163.288 161.288L-37.0131 -39.0128C-69.6373 -6.38859 -95.8604 35.9654 -106.86 83.6293C-117.33 128.999 -117.431 202.958 -59.9046 260.485L140.396 60.1839ZM163.288 161.288C163.283 161.293 163.154 161.423 162.851 161.657C162.554 161.887 161.999 162.287 161.126 162.795C159.616 163.674 155.806 165.659 149.325 167.155C139.857 169.34 98.6393 174.852 62.1837 138.397L262.485 -61.9044C204.958 -119.431 130.999 -119.33 85.629 -108.86C37.9652 -97.8602 -4.38881 -71.6371 -37.0131 -39.0128L163.288 161.288ZM62.1837 138.397C25.7281 101.941 31.2407 60.7235 33.4256 51.2557C34.9213 44.7743 36.9068 40.9647 37.7853 39.4548C38.2937 38.5809 38.6935 38.0265 38.9236 37.729C39.1574 37.4265 39.2872 37.2973 39.2921 37.2923L239.593 237.593C272.217 204.969 298.441 162.615 309.44 114.951C319.91 69.5814 320.011 -4.37768 262.485 -61.9044L62.1837 138.397ZM39.2921 37.2923C39.2971 37.2874 39.4263 37.1576 39.7288 36.9238C40.0263 36.6937 40.5807 36.2939 41.4546 35.7855C42.9645 34.907 46.7741 32.9215 53.2555 31.4258C62.7233 29.2409 103.941 23.7283 140.396 60.1839L-59.9046 260.485C-2.3779 318.012 71.5811 317.91 116.951 307.44C164.615 296.441 206.969 270.218 239.593 237.593L39.2921 37.2923Z" fill="#FFF970" fill-opacity="0.5" mask="url(#path-27-inside-14_1046_12412)"/>
<mask id="path-29-inside-15_1046_12412" fill="white">
<ellipse cx="101.29" cy="99.2904" rx="86.3295" ry="53.9559" transform="rotate(-135 101.29 99.2904)"/>
</mask>
<path d="M140.396 138.397C103.941 174.852 62.7233 169.34 53.2555 167.155C46.7741 165.659 42.9645 163.674 41.4546 162.795C40.5807 162.287 40.0263 161.887 39.7288 161.657C39.4263 161.423 39.2971 161.293 39.2921 161.288L239.593 -39.0128C206.969 -71.637 164.615 -97.8601 116.951 -108.859C71.5812 -119.329 -2.37789 -119.431 -59.9046 -61.9043L140.396 138.397ZM39.2921 161.288C39.2872 161.283 39.1574 161.154 38.9236 160.852C38.6935 160.554 38.2937 160 37.7853 159.126C36.9068 157.616 34.9213 153.806 33.4256 147.325C31.2407 137.857 25.7281 96.6396 62.1837 60.184L262.485 260.485C320.011 202.958 319.91 128.999 309.44 83.6293C298.441 35.9655 272.217 -6.3885 239.593 -39.0128L39.2921 161.288ZM62.1837 60.184C98.6393 23.7284 139.857 29.241 149.325 31.4259C155.806 32.9216 159.616 34.9071 161.126 35.7856C161.999 36.294 162.554 36.6938 162.851 36.9239C163.154 37.1577 163.283 37.2875 163.288 37.2924L-37.0131 237.594C-4.3888 270.218 37.9652 296.441 85.6291 307.44C130.999 317.91 204.958 318.012 262.485 260.485L62.1837 60.184ZM163.288 37.2924C163.293 37.2974 163.423 37.4266 163.657 37.7291C163.887 38.0266 164.286 38.581 164.795 39.4549C165.673 40.9648 167.659 44.7744 169.155 51.2558C171.339 60.7236 176.852 101.941 140.396 138.397L-59.9046 -61.9043C-117.431 -4.3776 -117.33 69.5814 -106.86 114.951C-95.8604 162.615 -69.6373 204.969 -37.0131 237.594L163.288 37.2924Z" fill="#70E5FF" fill-opacity="0.5" mask="url(#path-29-inside-15_1046_12412)"/>
<mask id="path-31-inside-16_1046_12412" fill="white">
<ellipse cx="100.668" cy="98.6687" rx="86.3295" ry="53.9559" transform="rotate(90 100.668 98.6687)"/>
</mask>
<path d="M100.668 43.3639C152.224 43.3639 177.472 76.4071 182.621 84.6468C186.147 90.2875 187.437 94.3852 187.883 96.0741C188.142 97.0515 188.251 97.7263 188.299 98.0993C188.347 98.4786 188.347 98.6617 188.347 98.6687L-94.9218 98.6687C-94.9218 144.806 -83.5155 193.298 -57.5898 234.779C-32.9118 274.264 19.3133 326.632 100.668 326.632L100.668 43.3639ZM188.347 98.6687C188.347 98.6757 188.347 98.8588 188.299 99.238C188.251 99.6111 188.142 100.286 187.883 101.263C187.437 102.952 186.147 107.05 182.621 112.691C177.472 120.93 152.224 153.973 100.668 153.974L100.668 -129.295C19.3133 -129.295 -32.9118 -76.9263 -57.5899 -37.4414C-83.5156 4.03968 -94.9218 52.5311 -94.9218 98.6687L188.347 98.6687ZM100.668 153.974C49.1123 153.974 23.8652 120.93 18.7153 112.691C15.1899 107.05 13.9001 102.952 13.4536 101.263C13.1952 100.286 13.0859 99.6111 13.0381 99.2381C12.9896 98.8588 12.99 98.6757 12.99 98.6687L296.259 98.6687C296.259 52.531 284.852 4.03964 258.927 -37.4415C234.249 -76.9263 182.023 -129.295 100.668 -129.295L100.668 153.974ZM12.99 98.6687C12.99 98.6617 12.9896 98.4786 13.0381 98.0994C13.0859 97.7263 13.1952 97.0516 13.4536 96.0741C13.9001 94.3853 15.1899 90.2875 18.7153 84.6468C23.8652 76.4071 49.1123 43.3639 100.668 43.3639L100.668 326.632C182.023 326.632 234.249 274.264 258.927 234.779C284.852 193.298 296.259 144.806 296.259 98.6687L12.99 98.6687Z" fill="#B1EAD5" fill-opacity="0.5" mask="url(#path-31-inside-16_1046_12412)"/>
</g>
<defs>
<clipPath id="clip0_1046_12412">
<rect width="200" height="200" fill="white"/>
</clipPath>
</defs>
</svg>
