<svg width="200" height="200" viewBox="0 0 200 200" fill="none" xmlns="http://www.w3.org/2000/svg">
<rect width="200" height="200" fill="white"/>
<mask id="path-1-inside-1_1046_11241" fill="white">
<ellipse cx="102.392" cy="76.3918" rx="56.9697" ry="35.6061" transform="rotate(180 102.392 76.3918)"/>
</mask>
<path d="M138.888 76.3918C138.888 110.414 117.082 127.075 111.645 130.473C107.922 132.8 105.218 133.651 104.104 133.946C103.459 134.116 103.014 134.188 102.767 134.22C102.517 134.252 102.396 134.252 102.392 134.252L102.392 -52.6802C71.9449 -52.6802 39.9449 -45.1531 12.5711 -28.0445C-13.4853 -11.7592 -48.044 22.7047 -48.044 76.3918L138.888 76.3918ZM102.392 134.252C102.387 134.252 102.266 134.252 102.016 134.22C101.77 134.188 101.324 134.116 100.679 133.946C99.5649 133.651 96.8608 132.8 93.1384 130.473C87.701 127.075 65.8954 110.414 65.8954 76.3918L252.827 76.3918C252.827 22.7047 218.269 -11.7592 192.212 -28.0445C164.838 -45.1531 132.838 -52.6802 102.392 -52.6802L102.392 134.252ZM65.8954 76.3918C65.8954 42.3694 87.701 25.7085 93.1384 22.3101C96.8608 19.9837 99.5649 19.1325 100.679 18.8379C101.324 18.6673 101.77 18.5952 102.016 18.5637C102.266 18.5317 102.387 18.5319 102.392 18.5319L102.392 205.464C132.838 205.464 164.838 197.937 192.212 180.828C218.269 164.543 252.827 130.079 252.827 76.3918L65.8954 76.3918ZM102.392 18.5319C102.396 18.5319 102.517 18.5317 102.767 18.5637C103.014 18.5952 103.459 18.6673 104.104 18.8379C105.218 19.1325 107.922 19.9837 111.645 22.3101C117.082 25.7085 138.888 42.3694 138.888 76.3918L-48.044 76.3918C-48.044 130.079 -13.4853 164.543 12.5711 180.828C39.9449 197.937 71.9449 205.464 102.392 205.464L102.392 18.5319Z" fill="#FF7070" fill-opacity="0.5" mask="url(#path-1-inside-1_1046_11241)"/>
<mask id="path-3-inside-2_1046_11241" fill="white">
<ellipse cx="102.802" cy="76.8019" rx="56.9697" ry="35.6061" transform="rotate(135 102.802 76.8019)"/>
</mask>
<path d="M128.609 50.9952C152.666 75.0527 149.028 102.253 147.586 108.5C146.599 112.778 145.289 115.292 144.709 116.288C144.374 116.865 144.11 117.231 143.958 117.427C143.804 117.627 143.718 117.712 143.715 117.715L11.5342 -14.4657C-9.9949 7.06335 -27.2998 35.0132 -34.5584 66.4671C-41.4677 96.4072 -41.5347 145.214 -3.57219 183.176L128.609 50.9952ZM143.715 117.715C143.712 117.718 143.626 117.804 143.427 117.958C143.23 118.11 142.865 118.374 142.288 118.709C141.292 119.289 138.778 120.599 134.5 121.586C128.252 123.028 101.053 126.666 76.9951 102.609L209.176 -29.5721C171.213 -67.5346 122.407 -67.4676 92.467 -60.5583C61.0131 -53.2997 33.0633 -35.9948 11.5342 -14.4657L143.715 117.715ZM76.9951 102.609C52.9377 78.5512 56.5756 51.3513 58.0174 45.1034C59.0044 40.8263 60.3146 38.3123 60.8944 37.3159C61.2299 36.7392 61.4937 36.3733 61.6455 36.177C61.7999 35.9774 61.8855 35.8921 61.8888 35.8889L194.07 168.07C215.599 146.541 232.904 118.591 240.162 87.1368C247.071 57.1967 247.138 8.39037 209.176 -29.5721L76.9951 102.609ZM61.8888 35.8889C61.892 35.8856 61.9773 35.8 62.1769 35.6456C62.3733 35.4938 62.7391 35.23 63.3158 34.8945C64.3122 34.3147 66.8262 33.0045 71.1033 32.0175C77.3512 30.5756 104.551 26.9378 128.609 50.9952L-3.57219 183.176C34.3903 221.138 83.1966 221.071 113.137 214.162C144.591 206.904 172.54 189.599 194.07 168.07L61.8888 35.8889Z" fill="#FFF970" fill-opacity="0.5" mask="url(#path-3-inside-2_1046_11241)"/>
<mask id="path-5-inside-3_1046_11241" fill="white">
<ellipse cx="102.802" cy="76.802" rx="56.9697" ry="35.6061" transform="rotate(-135 102.802 76.802)"/>
</mask>
<path d="M128.609 102.609C104.551 126.666 77.3512 123.028 71.1033 121.586C66.8262 120.599 64.3122 119.289 63.3158 118.71C62.7391 118.374 62.3732 118.11 62.1769 117.958C61.9773 117.804 61.892 117.718 61.8887 117.715L194.07 -14.4657C172.54 -35.9947 144.591 -53.2997 113.137 -60.5582C83.1966 -67.4675 34.3903 -67.5345 -3.57222 -29.572L128.609 102.609ZM61.8887 117.715C61.8855 117.712 61.7998 117.627 61.6455 117.427C61.4937 117.231 61.2299 116.865 60.8943 116.288C60.3146 115.292 59.0044 112.778 58.0173 108.501C56.5755 102.253 52.9377 75.0527 76.9951 50.9953L209.176 183.176C247.138 145.214 247.071 96.4072 240.162 66.4671C232.904 35.0133 215.599 7.06342 194.07 -14.4657L61.8887 117.715ZM76.9951 50.9953C101.053 26.9379 128.252 30.5757 134.5 32.0175C138.777 33.0046 141.291 34.3148 142.288 34.8945C142.865 35.2301 143.23 35.4939 143.427 35.6457C143.626 35.8 143.712 35.8856 143.715 35.8889L11.5342 168.07C33.0632 189.599 61.0131 206.904 92.4669 214.162C122.407 221.072 171.213 221.139 209.176 183.176L76.9951 50.9953ZM143.715 35.8889C143.718 35.8922 143.804 35.9775 143.958 36.1771C144.11 36.3734 144.374 36.7393 144.709 37.316C145.289 38.3123 146.599 40.8263 147.586 45.1035C149.028 51.3514 152.666 78.5513 128.609 102.609L-3.57222 -29.572C-41.5347 8.39044 -41.4677 57.1968 -34.5584 87.1369C-27.2998 118.591 -9.99493 146.541 11.5342 168.07L143.715 35.8889Z" fill="#70E5FF" fill-opacity="0.5" mask="url(#path-5-inside-3_1046_11241)"/>
<mask id="path-7-inside-4_1046_11241" fill="white">
<ellipse cx="102.392" cy="76.3918" rx="56.9697" ry="35.6061" transform="rotate(90 102.392 76.3918)"/>
</mask>
<path d="M102.392 39.8956C136.414 39.8956 153.075 61.7011 156.473 67.1386C158.8 70.8609 159.651 73.5651 159.945 74.6795C160.116 75.3246 160.188 75.7698 160.22 76.016C160.252 76.2663 160.251 76.3871 160.251 76.3918L-26.6804 76.3918C-26.6804 106.839 -19.1533 138.838 -2.04466 166.212C14.2406 192.269 48.7045 226.827 102.392 226.827L102.392 39.8956ZM160.251 76.3918C160.251 76.3964 160.252 76.5172 160.22 76.7675C160.188 77.0137 160.116 77.4589 159.945 78.104C159.651 79.2185 158.8 81.9226 156.473 85.6449C153.075 91.0824 136.414 112.888 102.392 112.888L102.392 -74.0439C48.7045 -74.0439 14.2406 -39.4852 -2.04468 -13.4287C-19.1533 13.9451 -26.6804 45.9451 -26.6804 76.3918L160.251 76.3918ZM102.392 112.888C68.3692 112.888 51.7083 91.0824 48.3099 85.6449C45.9835 81.9226 45.1323 79.2185 44.8376 78.104C44.6671 77.4589 44.595 77.0137 44.5635 76.7675C44.5315 76.5172 44.5317 76.3964 44.5317 76.3918L231.464 76.3918C231.464 45.945 223.936 13.9451 206.828 -13.4287C190.543 -39.4852 156.079 -74.0439 102.392 -74.0439L102.392 112.888ZM44.5317 76.3918C44.5317 76.3871 44.5315 76.2663 44.5635 76.0161C44.595 75.7699 44.6671 75.3246 44.8376 74.6795C45.1323 73.5651 45.9834 70.8609 48.3099 67.1386C51.7083 61.7011 68.3692 39.8956 102.392 39.8956L102.392 226.827C156.079 226.827 190.543 192.269 206.828 166.212C223.936 138.838 231.464 106.838 231.464 76.3918L44.5317 76.3918Z" fill="#B1EAD5" fill-opacity="0.5" mask="url(#path-7-inside-4_1046_11241)"/>
<mask id="path-9-inside-5_1046_11241" fill="white">
<ellipse cx="102.392" cy="76.3918" rx="56.9697" ry="35.6061" transform="rotate(180 102.392 76.3918)"/>
</mask>
<path d="M138.888 76.3918C138.888 110.414 117.082 127.075 111.645 130.473C107.922 132.8 105.218 133.651 104.104 133.946C103.459 134.116 103.014 134.188 102.767 134.22C102.517 134.252 102.396 134.252 102.392 134.252L102.392 -52.6802C71.9449 -52.6802 39.9449 -45.1531 12.5711 -28.0445C-13.4853 -11.7592 -48.044 22.7047 -48.044 76.3918L138.888 76.3918ZM102.392 134.252C102.387 134.252 102.266 134.252 102.016 134.22C101.77 134.188 101.324 134.116 100.679 133.946C99.5649 133.651 96.8608 132.8 93.1384 130.473C87.701 127.075 65.8954 110.414 65.8954 76.3918L252.827 76.3918C252.827 22.7047 218.269 -11.7592 192.212 -28.0445C164.838 -45.1531 132.838 -52.6802 102.392 -52.6802L102.392 134.252ZM65.8954 76.3918C65.8954 42.3694 87.701 25.7085 93.1384 22.3101C96.8608 19.9837 99.5649 19.1325 100.679 18.8379C101.324 18.6673 101.77 18.5952 102.016 18.5637C102.266 18.5317 102.387 18.5319 102.392 18.5319L102.392 205.464C132.838 205.464 164.838 197.937 192.212 180.828C218.269 164.543 252.827 130.079 252.827 76.3918L65.8954 76.3918ZM102.392 18.5319C102.396 18.5319 102.517 18.5317 102.767 18.5637C103.014 18.5952 103.459 18.6673 104.104 18.8379C105.218 19.1325 107.922 19.9837 111.645 22.3101C117.082 25.7085 138.888 42.3694 138.888 76.3918L-48.044 76.3918C-48.044 130.079 -13.4853 164.543 12.5711 180.828C39.9449 197.937 71.9449 205.464 102.392 205.464L102.392 18.5319Z" fill="#FF7070" fill-opacity="0.5" mask="url(#path-9-inside-5_1046_11241)"/>
<mask id="path-11-inside-6_1046_11241" fill="white">
<ellipse cx="102.802" cy="76.8019" rx="56.9697" ry="35.6061" transform="rotate(135 102.802 76.8019)"/>
</mask>
<path d="M128.609 50.9952C152.666 75.0527 149.028 102.253 147.586 108.5C146.599 112.778 145.289 115.292 144.709 116.288C144.374 116.865 144.11 117.231 143.958 117.427C143.804 117.627 143.718 117.712 143.715 117.715L11.5342 -14.4657C-9.9949 7.06335 -27.2998 35.0132 -34.5584 66.4671C-41.4677 96.4072 -41.5347 145.214 -3.57219 183.176L128.609 50.9952ZM143.715 117.715C143.712 117.718 143.626 117.804 143.427 117.958C143.23 118.11 142.865 118.374 142.288 118.709C141.292 119.289 138.778 120.599 134.5 121.586C128.252 123.028 101.053 126.666 76.9951 102.609L209.176 -29.5721C171.213 -67.5346 122.407 -67.4676 92.467 -60.5583C61.0131 -53.2997 33.0633 -35.9948 11.5342 -14.4657L143.715 117.715ZM76.9951 102.609C52.9377 78.5512 56.5756 51.3513 58.0174 45.1034C59.0044 40.8263 60.3146 38.3123 60.8944 37.3159C61.2299 36.7392 61.4937 36.3733 61.6455 36.177C61.7999 35.9774 61.8855 35.8921 61.8888 35.8889L194.07 168.07C215.599 146.541 232.904 118.591 240.162 87.1368C247.071 57.1967 247.138 8.39037 209.176 -29.5721L76.9951 102.609ZM61.8888 35.8889C61.892 35.8856 61.9773 35.8 62.1769 35.6456C62.3733 35.4938 62.7391 35.23 63.3158 34.8945C64.3122 34.3147 66.8262 33.0045 71.1033 32.0175C77.3512 30.5756 104.551 26.9378 128.609 50.9952L-3.57219 183.176C34.3903 221.138 83.1966 221.071 113.137 214.162C144.591 206.904 172.54 189.599 194.07 168.07L61.8888 35.8889Z" fill="#FFF970" fill-opacity="0.5" mask="url(#path-11-inside-6_1046_11241)"/>
<mask id="path-13-inside-7_1046_11241" fill="white">
<ellipse cx="102.802" cy="76.802" rx="56.9697" ry="35.6061" transform="rotate(-135 102.802 76.802)"/>
</mask>
<path d="M128.609 102.609C104.551 126.666 77.3512 123.028 71.1033 121.586C66.8262 120.599 64.3122 119.289 63.3158 118.71C62.7391 118.374 62.3732 118.11 62.1769 117.958C61.9773 117.804 61.892 117.718 61.8887 117.715L194.07 -14.4657C172.54 -35.9947 144.591 -53.2997 113.137 -60.5582C83.1966 -67.4675 34.3903 -67.5345 -3.57222 -29.572L128.609 102.609ZM61.8887 117.715C61.8855 117.712 61.7998 117.627 61.6455 117.427C61.4937 117.231 61.2299 116.865 60.8943 116.288C60.3146 115.292 59.0044 112.778 58.0173 108.501C56.5755 102.253 52.9377 75.0527 76.9951 50.9953L209.176 183.176C247.138 145.214 247.071 96.4072 240.162 66.4671C232.904 35.0133 215.599 7.06342 194.07 -14.4657L61.8887 117.715ZM76.9951 50.9953C101.053 26.9379 128.252 30.5757 134.5 32.0175C138.777 33.0046 141.291 34.3148 142.288 34.8945C142.865 35.2301 143.23 35.4939 143.427 35.6457C143.626 35.8 143.712 35.8856 143.715 35.8889L11.5342 168.07C33.0632 189.599 61.0131 206.904 92.4669 214.162C122.407 221.072 171.213 221.139 209.176 183.176L76.9951 50.9953ZM143.715 35.8889C143.718 35.8922 143.804 35.9775 143.958 36.1771C144.11 36.3734 144.374 36.7393 144.709 37.316C145.289 38.3123 146.599 40.8263 147.586 45.1035C149.028 51.3514 152.666 78.5513 128.609 102.609L-3.57222 -29.572C-41.5347 8.39044 -41.4677 57.1968 -34.5584 87.1369C-27.2998 118.591 -9.99493 146.541 11.5342 168.07L143.715 35.8889Z" fill="#70E5FF" fill-opacity="0.5" mask="url(#path-13-inside-7_1046_11241)"/>
<mask id="path-15-inside-8_1046_11241" fill="white">
<ellipse cx="102.392" cy="76.3918" rx="56.9697" ry="35.6061" transform="rotate(90 102.392 76.3918)"/>
</mask>
<path d="M102.392 39.8956C136.414 39.8956 153.075 61.7011 156.473 67.1386C158.8 70.8609 159.651 73.5651 159.945 74.6795C160.116 75.3246 160.188 75.7698 160.22 76.016C160.252 76.2663 160.251 76.3871 160.251 76.3918L-26.6804 76.3918C-26.6804 106.839 -19.1533 138.838 -2.04466 166.212C14.2406 192.269 48.7045 226.827 102.392 226.827L102.392 39.8956ZM160.251 76.3918C160.251 76.3964 160.252 76.5172 160.22 76.7675C160.188 77.0137 160.116 77.4589 159.945 78.104C159.651 79.2185 158.8 81.9226 156.473 85.6449C153.075 91.0824 136.414 112.888 102.392 112.888L102.392 -74.0439C48.7045 -74.0439 14.2406 -39.4852 -2.04468 -13.4287C-19.1533 13.9451 -26.6804 45.9451 -26.6804 76.3918L160.251 76.3918ZM102.392 112.888C68.3692 112.888 51.7083 91.0824 48.3099 85.6449C45.9835 81.9226 45.1323 79.2185 44.8376 78.104C44.6671 77.4589 44.595 77.0137 44.5635 76.7675C44.5315 76.5172 44.5317 76.3964 44.5317 76.3918L231.464 76.3918C231.464 45.945 223.936 13.9451 206.828 -13.4287C190.543 -39.4852 156.079 -74.0439 102.392 -74.0439L102.392 112.888ZM44.5317 76.3918C44.5317 76.3871 44.5315 76.2663 44.5635 76.0161C44.595 75.7699 44.6671 75.3246 44.8376 74.6795C45.1323 73.5651 45.9834 70.8609 48.3099 67.1386C51.7083 61.7011 68.3692 39.8956 102.392 39.8956L102.392 226.827C156.079 226.827 190.543 192.269 206.828 166.212C223.936 138.838 231.464 106.838 231.464 76.3918L44.5317 76.3918Z" fill="#B1EAD5" fill-opacity="0.5" mask="url(#path-15-inside-8_1046_11241)"/>
<mask id="path-17-inside-9_1046_11241" fill="white">
<ellipse cx="102.392" cy="76.3918" rx="56.9697" ry="35.6061" transform="rotate(180 102.392 76.3918)"/>
</mask>
<path d="M138.888 76.3918C138.888 110.414 117.082 127.075 111.645 130.473C107.922 132.8 105.218 133.651 104.104 133.946C103.459 134.116 103.014 134.188 102.767 134.22C102.517 134.252 102.396 134.252 102.392 134.252L102.392 -52.6802C71.9449 -52.6802 39.9449 -45.1531 12.5711 -28.0445C-13.4853 -11.7592 -48.044 22.7047 -48.044 76.3918L138.888 76.3918ZM102.392 134.252C102.387 134.252 102.266 134.252 102.016 134.22C101.77 134.188 101.324 134.116 100.679 133.946C99.5649 133.651 96.8608 132.8 93.1384 130.473C87.701 127.075 65.8954 110.414 65.8954 76.3918L252.827 76.3918C252.827 22.7047 218.269 -11.7592 192.212 -28.0445C164.838 -45.1531 132.838 -52.6802 102.392 -52.6802L102.392 134.252ZM65.8954 76.3918C65.8954 42.3694 87.701 25.7085 93.1384 22.3101C96.8608 19.9837 99.5649 19.1325 100.679 18.8379C101.324 18.6673 101.77 18.5952 102.016 18.5637C102.266 18.5317 102.387 18.5319 102.392 18.5319L102.392 205.464C132.838 205.464 164.838 197.937 192.212 180.828C218.269 164.543 252.827 130.079 252.827 76.3918L65.8954 76.3918ZM102.392 18.5319C102.396 18.5319 102.517 18.5317 102.767 18.5637C103.014 18.5952 103.459 18.6673 104.104 18.8379C105.218 19.1325 107.922 19.9837 111.645 22.3101C117.082 25.7085 138.888 42.3694 138.888 76.3918L-48.044 76.3918C-48.044 130.079 -13.4853 164.543 12.5711 180.828C39.9449 197.937 71.9449 205.464 102.392 205.464L102.392 18.5319Z" fill="#FF7070" fill-opacity="0.5" mask="url(#path-17-inside-9_1046_11241)"/>
<mask id="path-19-inside-10_1046_11241" fill="white">
<ellipse cx="102.802" cy="76.8019" rx="56.9697" ry="35.6061" transform="rotate(135 102.802 76.8019)"/>
</mask>
<path d="M128.609 50.9952C152.666 75.0527 149.028 102.253 147.586 108.5C146.599 112.778 145.289 115.292 144.709 116.288C144.374 116.865 144.11 117.231 143.958 117.427C143.804 117.627 143.718 117.712 143.715 117.715L11.5342 -14.4657C-9.9949 7.06335 -27.2998 35.0132 -34.5584 66.4671C-41.4677 96.4072 -41.5347 145.214 -3.57219 183.176L128.609 50.9952ZM143.715 117.715C143.712 117.718 143.626 117.804 143.427 117.958C143.23 118.11 142.865 118.374 142.288 118.709C141.292 119.289 138.778 120.599 134.5 121.586C128.252 123.028 101.053 126.666 76.9951 102.609L209.176 -29.5721C171.213 -67.5346 122.407 -67.4676 92.467 -60.5583C61.0131 -53.2997 33.0633 -35.9948 11.5342 -14.4657L143.715 117.715ZM76.9951 102.609C52.9377 78.5512 56.5756 51.3513 58.0174 45.1034C59.0044 40.8263 60.3146 38.3123 60.8944 37.3159C61.2299 36.7392 61.4937 36.3733 61.6455 36.177C61.7999 35.9774 61.8855 35.8921 61.8888 35.8889L194.07 168.07C215.599 146.541 232.904 118.591 240.162 87.1368C247.071 57.1967 247.138 8.39037 209.176 -29.5721L76.9951 102.609ZM61.8888 35.8889C61.892 35.8856 61.9773 35.8 62.1769 35.6456C62.3733 35.4938 62.7391 35.23 63.3158 34.8945C64.3122 34.3147 66.8262 33.0045 71.1033 32.0175C77.3512 30.5756 104.551 26.9378 128.609 50.9952L-3.57219 183.176C34.3903 221.138 83.1966 221.071 113.137 214.162C144.591 206.904 172.54 189.599 194.07 168.07L61.8888 35.8889Z" fill="#FFF970" fill-opacity="0.5" mask="url(#path-19-inside-10_1046_11241)"/>
<mask id="path-21-inside-11_1046_11241" fill="white">
<ellipse cx="102.802" cy="76.802" rx="56.9697" ry="35.6061" transform="rotate(-135 102.802 76.802)"/>
</mask>
<path d="M128.609 102.609C104.551 126.666 77.3512 123.028 71.1033 121.586C66.8262 120.599 64.3122 119.289 63.3158 118.71C62.7391 118.374 62.3732 118.11 62.1769 117.958C61.9773 117.804 61.892 117.718 61.8887 117.715L194.07 -14.4657C172.54 -35.9947 144.591 -53.2997 113.137 -60.5582C83.1966 -67.4675 34.3903 -67.5345 -3.57222 -29.572L128.609 102.609ZM61.8887 117.715C61.8855 117.712 61.7998 117.627 61.6455 117.427C61.4937 117.231 61.2299 116.865 60.8943 116.288C60.3146 115.292 59.0044 112.778 58.0173 108.501C56.5755 102.253 52.9377 75.0527 76.9951 50.9953L209.176 183.176C247.138 145.214 247.071 96.4072 240.162 66.4671C232.904 35.0133 215.599 7.06342 194.07 -14.4657L61.8887 117.715ZM76.9951 50.9953C101.053 26.9379 128.252 30.5757 134.5 32.0175C138.777 33.0046 141.291 34.3148 142.288 34.8945C142.865 35.2301 143.23 35.4939 143.427 35.6457C143.626 35.8 143.712 35.8856 143.715 35.8889L11.5342 168.07C33.0632 189.599 61.0131 206.904 92.4669 214.162C122.407 221.072 171.213 221.139 209.176 183.176L76.9951 50.9953ZM143.715 35.8889C143.718 35.8922 143.804 35.9775 143.958 36.1771C144.11 36.3734 144.374 36.7393 144.709 37.316C145.289 38.3123 146.599 40.8263 147.586 45.1035C149.028 51.3514 152.666 78.5513 128.609 102.609L-3.57222 -29.572C-41.5347 8.39044 -41.4677 57.1968 -34.5584 87.1369C-27.2998 118.591 -9.99493 146.541 11.5342 168.07L143.715 35.8889Z" fill="#70E5FF" fill-opacity="0.5" mask="url(#path-21-inside-11_1046_11241)"/>
<mask id="path-23-inside-12_1046_11241" fill="white">
<ellipse cx="102.392" cy="76.3918" rx="56.9697" ry="35.6061" transform="rotate(90 102.392 76.3918)"/>
</mask>
<path d="M102.392 39.8956C136.414 39.8956 153.075 61.7011 156.473 67.1386C158.8 70.8609 159.651 73.5651 159.945 74.6795C160.116 75.3246 160.188 75.7698 160.22 76.016C160.252 76.2663 160.251 76.3871 160.251 76.3918L-26.6804 76.3918C-26.6804 106.839 -19.1533 138.838 -2.04466 166.212C14.2406 192.269 48.7045 226.827 102.392 226.827L102.392 39.8956ZM160.251 76.3918C160.251 76.3964 160.252 76.5172 160.22 76.7675C160.188 77.0137 160.116 77.4589 159.945 78.104C159.651 79.2185 158.8 81.9226 156.473 85.6449C153.075 91.0824 136.414 112.888 102.392 112.888L102.392 -74.0439C48.7045 -74.0439 14.2406 -39.4852 -2.04468 -13.4287C-19.1533 13.9451 -26.6804 45.9451 -26.6804 76.3918L160.251 76.3918ZM102.392 112.888C68.3692 112.888 51.7083 91.0824 48.3099 85.6449C45.9835 81.9226 45.1323 79.2185 44.8376 78.104C44.6671 77.4589 44.595 77.0137 44.5635 76.7675C44.5315 76.5172 44.5317 76.3964 44.5317 76.3918L231.464 76.3918C231.464 45.945 223.936 13.9451 206.828 -13.4287C190.543 -39.4852 156.079 -74.0439 102.392 -74.0439L102.392 112.888ZM44.5317 76.3918C44.5317 76.3871 44.5315 76.2663 44.5635 76.0161C44.595 75.7699 44.6671 75.3246 44.8376 74.6795C45.1323 73.5651 45.9834 70.8609 48.3099 67.1386C51.7083 61.7011 68.3692 39.8956 102.392 39.8956L102.392 226.827C156.079 226.827 190.543 192.269 206.828 166.212C223.936 138.838 231.464 106.838 231.464 76.3918L44.5317 76.3918Z" fill="#B1EAD5" fill-opacity="0.5" mask="url(#path-23-inside-12_1046_11241)"/>
<mask id="path-25-inside-13_1046_11241" fill="white">
<ellipse cx="102.392" cy="76.3918" rx="56.9697" ry="35.6061" transform="rotate(180 102.392 76.3918)"/>
</mask>
<path d="M138.888 76.3918C138.888 110.414 117.082 127.075 111.645 130.473C107.922 132.8 105.218 133.651 104.104 133.946C103.459 134.116 103.014 134.188 102.767 134.22C102.517 134.252 102.396 134.252 102.392 134.252L102.392 -52.6802C71.9449 -52.6802 39.9449 -45.1531 12.5711 -28.0445C-13.4853 -11.7592 -48.044 22.7047 -48.044 76.3918L138.888 76.3918ZM102.392 134.252C102.387 134.252 102.266 134.252 102.016 134.22C101.77 134.188 101.324 134.116 100.679 133.946C99.5649 133.651 96.8608 132.8 93.1384 130.473C87.701 127.075 65.8954 110.414 65.8954 76.3918L252.827 76.3918C252.827 22.7047 218.269 -11.7592 192.212 -28.0445C164.838 -45.1531 132.838 -52.6802 102.392 -52.6802L102.392 134.252ZM65.8954 76.3918C65.8954 42.3694 87.701 25.7085 93.1384 22.3101C96.8608 19.9837 99.5649 19.1325 100.679 18.8379C101.324 18.6673 101.77 18.5952 102.016 18.5637C102.266 18.5317 102.387 18.5319 102.392 18.5319L102.392 205.464C132.838 205.464 164.838 197.937 192.212 180.828C218.269 164.543 252.827 130.079 252.827 76.3918L65.8954 76.3918ZM102.392 18.5319C102.396 18.5319 102.517 18.5317 102.767 18.5637C103.014 18.5952 103.459 18.6673 104.104 18.8379C105.218 19.1325 107.922 19.9837 111.645 22.3101C117.082 25.7085 138.888 42.3694 138.888 76.3918L-48.044 76.3918C-48.044 130.079 -13.4853 164.543 12.5711 180.828C39.9449 197.937 71.9449 205.464 102.392 205.464L102.392 18.5319Z" fill="#FF7070" fill-opacity="0.5" mask="url(#path-25-inside-13_1046_11241)"/>
<mask id="path-27-inside-14_1046_11241" fill="white">
<ellipse cx="102.802" cy="76.8019" rx="56.9697" ry="35.6061" transform="rotate(135 102.802 76.8019)"/>
</mask>
<path d="M128.609 50.9952C152.666 75.0527 149.028 102.253 147.586 108.5C146.599 112.778 145.289 115.292 144.709 116.288C144.374 116.865 144.11 117.231 143.958 117.427C143.804 117.627 143.718 117.712 143.715 117.715L11.5342 -14.4657C-9.9949 7.06335 -27.2998 35.0132 -34.5584 66.4671C-41.4677 96.4072 -41.5347 145.214 -3.57219 183.176L128.609 50.9952ZM143.715 117.715C143.712 117.718 143.626 117.804 143.427 117.958C143.23 118.11 142.865 118.374 142.288 118.709C141.292 119.289 138.778 120.599 134.5 121.586C128.252 123.028 101.053 126.666 76.9951 102.609L209.176 -29.5721C171.213 -67.5346 122.407 -67.4676 92.467 -60.5583C61.0131 -53.2997 33.0633 -35.9948 11.5342 -14.4657L143.715 117.715ZM76.9951 102.609C52.9377 78.5512 56.5756 51.3513 58.0174 45.1034C59.0044 40.8263 60.3146 38.3123 60.8944 37.3159C61.2299 36.7392 61.4937 36.3733 61.6455 36.177C61.7999 35.9774 61.8855 35.8921 61.8888 35.8889L194.07 168.07C215.599 146.541 232.904 118.591 240.162 87.1368C247.071 57.1967 247.138 8.39037 209.176 -29.5721L76.9951 102.609ZM61.8888 35.8889C61.892 35.8856 61.9773 35.8 62.1769 35.6456C62.3733 35.4938 62.7391 35.23 63.3158 34.8945C64.3122 34.3147 66.8262 33.0045 71.1033 32.0175C77.3512 30.5756 104.551 26.9378 128.609 50.9952L-3.57219 183.176C34.3903 221.138 83.1966 221.071 113.137 214.162C144.591 206.904 172.54 189.599 194.07 168.07L61.8888 35.8889Z" fill="#FFF970" fill-opacity="0.5" mask="url(#path-27-inside-14_1046_11241)"/>
<mask id="path-29-inside-15_1046_11241" fill="white">
<ellipse cx="102.802" cy="76.802" rx="56.9697" ry="35.6061" transform="rotate(-135 102.802 76.802)"/>
</mask>
<path d="M128.609 102.609C104.551 126.666 77.3512 123.028 71.1033 121.586C66.8262 120.599 64.3122 119.289 63.3158 118.71C62.7391 118.374 62.3732 118.11 62.1769 117.958C61.9773 117.804 61.892 117.718 61.8887 117.715L194.07 -14.4657C172.54 -35.9947 144.591 -53.2997 113.137 -60.5582C83.1966 -67.4675 34.3903 -67.5345 -3.57222 -29.572L128.609 102.609ZM61.8887 117.715C61.8855 117.712 61.7998 117.627 61.6455 117.427C61.4937 117.231 61.2299 116.865 60.8943 116.288C60.3146 115.292 59.0044 112.778 58.0173 108.501C56.5755 102.253 52.9377 75.0527 76.9951 50.9953L209.176 183.176C247.138 145.214 247.071 96.4072 240.162 66.4671C232.904 35.0133 215.599 7.06342 194.07 -14.4657L61.8887 117.715ZM76.9951 50.9953C101.053 26.9379 128.252 30.5757 134.5 32.0175C138.777 33.0046 141.291 34.3148 142.288 34.8945C142.865 35.2301 143.23 35.4939 143.427 35.6457C143.626 35.8 143.712 35.8856 143.715 35.8889L11.5342 168.07C33.0632 189.599 61.0131 206.904 92.4669 214.162C122.407 221.072 171.213 221.139 209.176 183.176L76.9951 50.9953ZM143.715 35.8889C143.718 35.8922 143.804 35.9775 143.958 36.1771C144.11 36.3734 144.374 36.7393 144.709 37.316C145.289 38.3123 146.599 40.8263 147.586 45.1035C149.028 51.3514 152.666 78.5513 128.609 102.609L-3.57222 -29.572C-41.5347 8.39044 -41.4677 57.1968 -34.5584 87.1369C-27.2998 118.591 -9.99493 146.541 11.5342 168.07L143.715 35.8889Z" fill="#70E5FF" fill-opacity="0.5" mask="url(#path-29-inside-15_1046_11241)"/>
<mask id="path-31-inside-16_1046_11241" fill="white">
<ellipse cx="102.392" cy="76.3918" rx="56.9697" ry="35.6061" transform="rotate(90 102.392 76.3918)"/>
</mask>
<path d="M102.392 39.8956C136.414 39.8956 153.075 61.7011 156.473 67.1386C158.8 70.8609 159.651 73.5651 159.945 74.6795C160.116 75.3246 160.188 75.7698 160.22 76.016C160.252 76.2663 160.251 76.3871 160.251 76.3918L-26.6804 76.3918C-26.6804 106.839 -19.1533 138.838 -2.04466 166.212C14.2406 192.269 48.7045 226.827 102.392 226.827L102.392 39.8956ZM160.251 76.3918C160.251 76.3964 160.252 76.5172 160.22 76.7675C160.188 77.0137 160.116 77.4589 159.945 78.104C159.651 79.2185 158.8 81.9226 156.473 85.6449C153.075 91.0824 136.414 112.888 102.392 112.888L102.392 -74.0439C48.7045 -74.0439 14.2406 -39.4852 -2.04468 -13.4287C-19.1533 13.9451 -26.6804 45.9451 -26.6804 76.3918L160.251 76.3918ZM102.392 112.888C68.3692 112.888 51.7083 91.0824 48.3099 85.6449C45.9835 81.9226 45.1323 79.2185 44.8376 78.104C44.6671 77.4589 44.595 77.0137 44.5635 76.7675C44.5315 76.5172 44.5317 76.3964 44.5317 76.3918L231.464 76.3918C231.464 45.945 223.936 13.9451 206.828 -13.4287C190.543 -39.4852 156.079 -74.0439 102.392 -74.0439L102.392 112.888ZM44.5317 76.3918C44.5317 76.3871 44.5315 76.2663 44.5635 76.0161C44.595 75.7699 44.6671 75.3246 44.8376 74.6795C45.1323 73.5651 45.9834 70.8609 48.3099 67.1386C51.7083 61.7011 68.3692 39.8956 102.392 39.8956L102.392 226.827C156.079 226.827 190.543 192.269 206.828 166.212C223.936 138.838 231.464 106.838 231.464 76.3918L44.5317 76.3918Z" fill="#B1EAD5" fill-opacity="0.5" mask="url(#path-31-inside-16_1046_11241)"/>
<path d="M39.616 176.432C44.224 176.432 48.208 173.792 48.208 169.568C48.208 160.736 34.384 164.624 34.384 158.96C34.384 156.56 36.88 155.168 39.472 155.168C41.92 155.168 43.936 155.84 45.184 158.192L47.632 156.8C46.096 154.016 43.216 152.384 39.424 152.384C34.96 152.384 31.408 155.12 31.408 159.008C31.408 167.84 45.232 163.76 45.232 169.616C45.232 172.304 42.64 173.648 39.52 173.648C36.688 173.648 34.528 172.688 33.136 170L30.688 171.344C32.416 174.752 35.68 176.432 39.616 176.432ZM57.691 186.704V171.488C59.659 174.512 63.115 176.528 67.051 176.528C73.963 176.528 79.147 171.152 79.147 164.288C79.147 157.664 73.915 152.192 66.955 152.192C60.091 152.192 54.715 157.472 54.715 164.288V186.704H57.691ZM66.955 173.696C61.771 173.696 57.691 169.424 57.691 164.336C57.691 159.248 61.771 155.024 66.955 155.024C72.091 155.024 76.171 159.248 76.171 164.336C76.171 169.424 72.091 173.696 66.955 173.696ZM87.5849 147.104C88.7849 147.104 89.6969 146.144 89.6969 144.896C89.6969 143.648 88.7849 142.688 87.5849 142.688C86.3849 142.688 85.4249 143.648 85.4249 144.896C85.4249 146.144 86.3849 147.104 87.5849 147.104ZM86.0969 152.72V176H89.0729V152.72H86.0969ZM100.675 176V161.792C100.675 157.808 102.883 155.264 106.435 155.264C107.779 155.264 109.075 155.6 110.227 156.272V153.248C109.027 152.672 107.635 152.384 106.195 152.384C100.819 152.384 97.6994 156.224 97.6994 161.648V176H100.675ZM123.999 176.48C128.415 176.48 132.015 174.08 133.791 170.576V176H136.623V164.288C136.623 157.472 131.247 152.192 124.383 152.192C117.423 152.192 112.191 157.664 112.191 164.288C112.191 171.008 117.279 176.48 123.999 176.48ZM124.383 173.648C119.247 173.648 115.167 169.424 115.167 164.336C115.167 159.248 119.247 155.024 124.383 155.024C129.567 155.024 133.647 159.248 133.647 164.336C133.647 169.424 129.567 173.648 124.383 173.648ZM145.253 142.016V176H148.229V142.016H145.253ZM164.632 176.432C169.24 176.432 173.224 173.792 173.224 169.568C173.224 160.736 159.4 164.624 159.4 158.96C159.4 156.56 161.896 155.168 164.488 155.168C166.936 155.168 168.952 155.84 170.2 158.192L172.648 156.8C171.112 154.016 168.232 152.384 164.44 152.384C159.976 152.384 156.424 155.12 156.424 159.008C156.424 167.84 170.248 163.76 170.248 169.616C170.248 172.304 167.656 173.648 164.536 173.648C161.704 173.648 159.544 172.688 158.152 170L155.704 171.344C157.432 174.752 160.696 176.432 164.632 176.432Z" fill="black"/>
</svg>
