<svg width="340" height="108" viewBox="0 0 340 108" fill="none" xmlns="http://www.w3.org/2000/svg">
<rect width="340" height="108" fill="white"/>
<mask id="path-1-inside-1_1046_11233" fill="white">
<ellipse cx="94.0338" cy="51.5338" rx="24.3071" ry="15.1919" transform="rotate(180 94.0338 51.5338)"/>
</mask>
<path d="M109.605 51.5338C109.605 66.0501 100.302 73.1587 97.9818 74.6087C96.3936 75.6013 95.2398 75.9645 94.7643 76.0902C94.4891 76.1629 94.2991 76.1937 94.1941 76.2072C94.0873 76.2208 94.0357 76.2207 94.0338 76.2207L94.0338 -3.53686C81.0432 -3.53686 67.3898 -0.325293 55.7103 6.97439C44.5929 13.9228 29.8479 28.6274 29.8479 51.5338L109.605 51.5338ZM94.0338 76.2207C94.0318 76.2207 93.9802 76.2208 93.8735 76.2072C93.7684 76.1937 93.5784 76.1629 93.3032 76.0902C92.8277 75.9645 91.6739 75.6013 90.0857 74.6087C87.7658 73.1587 78.462 66.0501 78.462 51.5338L158.22 51.5338C158.22 28.6274 143.475 13.9228 132.357 6.97439C120.678 -0.325295 107.024 -3.53686 94.0338 -3.53686L94.0338 76.2207ZM78.462 51.5338C78.462 37.0176 87.7658 29.909 90.0857 28.459C91.6739 27.4664 92.8277 27.1032 93.3032 26.9775C93.5784 26.9048 93.7684 26.874 93.8735 26.8605C93.9802 26.8469 94.0318 26.847 94.0338 26.847L94.0338 106.605C107.024 106.605 120.678 103.393 132.357 96.0933C143.475 89.1449 158.22 74.4403 158.22 51.5338L78.462 51.5338ZM94.0338 26.847C94.0357 26.847 94.0873 26.8469 94.1941 26.8605C94.2991 26.874 94.4891 26.9048 94.7643 26.9775C95.2398 27.1032 96.3936 27.4664 97.9818 28.459C100.302 29.909 109.605 37.0176 109.605 51.5338L29.8479 51.5338C29.8479 74.4403 44.5929 89.1449 55.7103 96.0933C67.3898 103.393 81.0432 106.605 94.0338 106.605L94.0338 26.847Z" fill="black" fill-opacity="0.5" mask="url(#path-1-inside-1_1046_11233)"/>
<mask id="path-3-inside-2_1046_11233" fill="white">
<ellipse cx="94.2088" cy="51.7088" rx="24.3071" ry="15.1919" transform="rotate(135 94.2088 51.7088)"/>
</mask>
<path d="M105.22 40.698C115.484 50.9625 113.932 62.5678 113.317 65.2335C112.896 67.0585 112.337 68.1311 112.089 68.5562C111.946 68.8023 111.834 68.9584 111.769 69.0422C111.703 69.1273 111.666 69.1637 111.665 69.1651L55.2679 12.768C46.0822 21.9537 38.6988 33.879 35.6018 47.2993C32.6538 60.0737 32.6252 80.8978 48.8225 97.0951L105.22 40.698ZM111.665 69.1651C111.664 69.1665 111.627 69.203 111.542 69.2689C111.458 69.3336 111.302 69.4462 111.056 69.5894C110.631 69.8367 109.558 70.3958 107.734 70.8169C105.068 71.4321 93.4624 72.9842 83.1979 62.7197L139.595 6.32258C123.398 -9.87474 102.574 -9.84615 89.7993 -6.8982C76.3789 -3.8012 64.4537 3.58223 55.2679 12.768L111.665 69.1651ZM83.1979 62.7197C72.9334 52.4552 74.4856 40.8499 75.1008 38.1841C75.5219 36.3592 76.0809 35.2866 76.3283 34.8615C76.4714 34.6154 76.584 34.4593 76.6488 34.3755C76.7146 34.2904 76.7511 34.254 76.7525 34.2526L133.15 90.6497C142.335 81.464 149.719 69.5387 152.816 56.1184C155.764 43.3439 155.792 22.5199 139.595 6.32258L83.1979 62.7197ZM76.7525 34.2526C76.7539 34.2512 76.7903 34.2147 76.8755 34.1488C76.9593 34.084 77.1154 33.9715 77.3614 33.8283C77.7865 33.581 78.8592 33.0219 80.6841 32.6008C83.3499 31.9856 94.9552 30.4335 105.22 40.698L48.8225 97.0951C65.0199 113.292 85.8439 113.264 98.6184 110.316C112.039 107.219 123.964 99.8355 133.15 90.6497L76.7525 34.2526Z" fill="black" fill-opacity="0.5" mask="url(#path-3-inside-2_1046_11233)"/>
<mask id="path-5-inside-3_1046_11233" fill="white">
<ellipse cx="94.2088" cy="51.7089" rx="24.3071" ry="15.1919" transform="rotate(-135 94.2088 51.7089)"/>
</mask>
<path d="M105.22 62.7197C94.9552 72.9843 83.3499 71.4321 80.6841 70.8169C78.8592 70.3958 77.7865 69.8368 77.3614 69.5894C77.1154 69.4462 76.9593 69.3337 76.8755 69.2689C76.7903 69.2031 76.754 69.1665 76.7526 69.1651L133.15 12.768C123.964 3.58226 112.039 -3.80117 98.6184 -6.89816C85.8439 -9.84611 65.0199 -9.87471 48.8225 6.32262L105.22 62.7197ZM76.7526 69.1651C76.7512 69.1637 76.7146 69.1274 76.6488 69.0422C76.584 68.9584 76.4714 68.8023 76.3283 68.5563C76.0809 68.1311 75.5219 67.0585 75.1008 65.2336C74.4856 62.5678 72.9334 50.9625 83.1979 40.698L139.595 97.0951C155.792 80.8978 155.764 60.0738 152.816 47.2993C149.719 33.879 142.335 21.9537 133.15 12.768L76.7526 69.1651ZM83.1979 40.698C93.4624 30.4335 105.068 31.9857 107.734 32.6008C109.558 33.022 110.631 33.581 111.056 33.8283C111.302 33.9715 111.458 34.0841 111.542 34.1488C111.627 34.2147 111.664 34.2512 111.665 34.2526L55.2679 90.6498C64.4537 99.8355 76.3789 107.219 89.7993 110.316C102.574 113.264 123.398 113.292 139.595 97.0951L83.1979 40.698ZM111.665 34.2526C111.666 34.254 111.703 34.2904 111.769 34.3756C111.834 34.4593 111.946 34.6154 112.089 34.8615C112.337 35.2866 112.896 36.3593 113.317 38.1842C113.932 40.8499 115.484 52.4552 105.22 62.7197L48.8225 6.32262C32.6252 22.5199 32.6538 43.344 35.6018 56.1184C38.6988 69.5387 46.0822 81.464 55.2679 90.6498L111.665 34.2526Z" fill="black" fill-opacity="0.5" mask="url(#path-5-inside-3_1046_11233)"/>
<mask id="path-7-inside-4_1046_11233" fill="white">
<ellipse cx="94.0338" cy="51.5338" rx="24.3071" ry="15.1919" transform="rotate(90 94.0338 51.5338)"/>
</mask>
<path d="M94.0338 35.9621C108.55 35.9621 115.659 45.2658 117.109 47.5858C118.101 49.174 118.464 50.3278 118.59 50.8033C118.663 51.0785 118.694 51.2685 118.707 51.3735C118.721 51.4803 118.721 51.5318 118.721 51.5338L38.963 51.5338C38.963 64.5244 42.1746 78.1777 49.4743 89.8572C56.4227 100.975 71.1273 115.72 94.0338 115.72L94.0338 35.9621ZM118.721 51.5338C118.721 51.5358 118.721 51.5873 118.707 51.6941C118.694 51.7992 118.663 51.9891 118.59 52.2644C118.464 52.7399 118.101 53.8936 117.109 55.4818C115.659 57.8018 108.55 67.1055 94.0338 67.1055L94.0338 -12.652C71.1273 -12.652 56.4227 2.093 49.4743 13.2104C42.1746 24.8899 38.963 38.5432 38.963 51.5338L118.721 51.5338ZM94.0338 67.1055C79.5176 67.1055 72.4089 57.8018 70.9589 55.4818C69.9663 53.8936 69.6031 52.7399 69.4774 52.2644C69.4047 51.9892 69.3739 51.7992 69.3604 51.6941C69.3468 51.5874 69.3469 51.5358 69.3469 51.5338L149.104 51.5338C149.104 38.5432 145.893 24.8899 138.593 13.2104C131.645 2.09299 116.94 -12.652 94.0338 -12.652L94.0338 67.1055ZM69.3469 51.5338C69.3469 51.5318 69.3468 51.4803 69.3604 51.3735C69.3739 51.2685 69.4047 51.0785 69.4774 50.8033C69.6031 50.3278 69.9663 49.174 70.9589 47.5858C72.4089 45.2658 79.5176 35.9621 94.0338 35.9621L94.0338 115.72C116.94 115.72 131.645 100.975 138.593 89.8572C145.893 78.1777 149.104 64.5244 149.104 51.5338L69.3469 51.5338Z" fill="black" fill-opacity="0.5" mask="url(#path-7-inside-4_1046_11233)"/>
<path d="M139.616 69.432C144.224 69.432 148.208 66.792 148.208 62.568C148.208 53.736 134.384 57.624 134.384 51.96C134.384 49.56 136.88 48.168 139.472 48.168C141.92 48.168 143.936 48.84 145.184 51.192L147.632 49.8C146.096 47.016 143.216 45.384 139.424 45.384C134.96 45.384 131.408 48.12 131.408 52.008C131.408 60.84 145.232 56.76 145.232 62.616C145.232 65.304 142.64 66.648 139.52 66.648C136.688 66.648 134.528 65.688 133.136 63L130.688 64.344C132.416 67.752 135.68 69.432 139.616 69.432ZM157.691 79.704V64.488C159.659 67.512 163.115 69.528 167.051 69.528C173.963 69.528 179.147 64.152 179.147 57.288C179.147 50.664 173.915 45.192 166.955 45.192C160.091 45.192 154.715 50.472 154.715 57.288V79.704H157.691ZM166.955 66.696C161.771 66.696 157.691 62.424 157.691 57.336C157.691 52.248 161.771 48.024 166.955 48.024C172.091 48.024 176.171 52.248 176.171 57.336C176.171 62.424 172.091 66.696 166.955 66.696ZM187.585 40.104C188.785 40.104 189.697 39.144 189.697 37.896C189.697 36.648 188.785 35.688 187.585 35.688C186.385 35.688 185.425 36.648 185.425 37.896C185.425 39.144 186.385 40.104 187.585 40.104ZM186.097 45.72V69H189.073V45.72H186.097ZM200.675 69V54.792C200.675 50.808 202.883 48.264 206.435 48.264C207.779 48.264 209.075 48.6 210.227 49.272V46.248C209.027 45.672 207.635 45.384 206.195 45.384C200.819 45.384 197.699 49.224 197.699 54.648V69H200.675ZM223.999 69.48C228.415 69.48 232.015 67.08 233.791 63.576V69H236.623V57.288C236.623 50.472 231.247 45.192 224.383 45.192C217.423 45.192 212.191 50.664 212.191 57.288C212.191 64.008 217.279 69.48 223.999 69.48ZM224.383 66.648C219.247 66.648 215.167 62.424 215.167 57.336C215.167 52.248 219.247 48.024 224.383 48.024C229.567 48.024 233.647 52.248 233.647 57.336C233.647 62.424 229.567 66.648 224.383 66.648ZM245.253 35.016V69H248.229V35.016H245.253ZM264.632 69.432C269.24 69.432 273.224 66.792 273.224 62.568C273.224 53.736 259.4 57.624 259.4 51.96C259.4 49.56 261.896 48.168 264.488 48.168C266.936 48.168 268.952 48.84 270.2 51.192L272.648 49.8C271.112 47.016 268.232 45.384 264.44 45.384C259.976 45.384 256.424 48.12 256.424 52.008C256.424 60.84 270.248 56.76 270.248 62.616C270.248 65.304 267.656 66.648 264.536 66.648C261.704 66.648 259.544 65.688 258.152 63L255.704 64.344C257.432 67.752 260.696 69.432 264.632 69.432Z" fill="black"/>
</svg>
