<svg width="340" height="100" viewBox="0 0 340 100" fill="none" xmlns="http://www.w3.org/2000/svg">
<rect width="32" height="100" fill="#B6EBD8"/>
<rect x="51" width="32" height="100" fill="#78E7FF"/>
<rect x="102" width="32" height="100" fill="#FF7878"/>
<rect x="153" width="32" height="100" fill="#FFFA78"/>
<rect x="204" width="32" height="100" fill="#FFCC70"/>
<rect x="255" width="32" height="100" fill="#A0BECF"/>
<rect x="307" width="32" height="100" fill="#292929"/>
<path d="M53.7216 57L56.3239 51.8523V51.8068H53.3239V51.1818H57.0511V51.8409L54.4602 57H53.7216ZM59.8565 57.0795C59.4664 57.0795 59.1217 57.0104 58.8224 56.8722C58.5251 56.732 58.2931 56.5398 58.1264 56.2955C57.9598 56.0492 57.8774 55.7689 57.8793 55.4545C57.8774 55.2083 57.9257 54.9811 58.0241 54.7727C58.1226 54.5625 58.2571 54.3873 58.4276 54.2472C58.5999 54.1051 58.7921 54.0152 59.0043 53.9773V53.9432C58.7259 53.8712 58.5043 53.715 58.3395 53.4744C58.1747 53.232 58.0933 52.9564 58.0952 52.6477C58.0933 52.3523 58.1681 52.0881 58.3196 51.8551C58.4711 51.6222 58.6795 51.4384 58.9446 51.304C59.2116 51.1695 59.5156 51.1023 59.8565 51.1023C60.1937 51.1023 60.4948 51.1695 60.7599 51.304C61.0251 51.4384 61.2334 51.6222 61.3849 51.8551C61.5384 52.0881 61.616 52.3523 61.6179 52.6477C61.616 52.9564 61.5317 53.232 61.3651 53.4744C61.2003 53.715 60.9815 53.8712 60.7088 53.9432V53.9773C60.919 54.0152 61.1084 54.1051 61.277 54.2472C61.4455 54.3873 61.58 54.5625 61.6804 54.7727C61.7808 54.9811 61.8319 55.2083 61.8338 55.4545C61.8319 55.7689 61.7467 56.0492 61.5781 56.2955C61.4115 56.5398 61.1795 56.732 60.8821 56.8722C60.5866 57.0104 60.2448 57.0795 59.8565 57.0795ZM59.8565 56.4545C60.1198 56.4545 60.3471 56.4119 60.5384 56.3267C60.7296 56.2415 60.8774 56.1212 60.9815 55.9659C61.0857 55.8106 61.1387 55.6288 61.1406 55.4205C61.1387 55.2008 61.0819 55.0066 60.9702 54.8381C60.8584 54.6695 60.706 54.5369 60.5128 54.4403C60.3215 54.3437 60.1027 54.2955 59.8565 54.2955C59.6084 54.2955 59.3868 54.3437 59.1918 54.4403C58.9986 54.5369 58.8461 54.6695 58.7344 54.8381C58.6245 55.0066 58.5705 55.2008 58.5724 55.4205C58.5705 55.6288 58.6207 55.8106 58.723 55.9659C58.8272 56.1212 58.9759 56.2415 59.169 56.3267C59.3622 56.4119 59.5914 56.4545 59.8565 56.4545ZM59.8565 53.6932C60.0649 53.6932 60.2495 53.6515 60.4105 53.5682C60.5734 53.4848 60.7012 53.3684 60.794 53.2188C60.8868 53.0691 60.9342 52.8939 60.9361 52.6932C60.9342 52.4962 60.8878 52.3248 60.7969 52.179C60.706 52.0312 60.58 51.9176 60.419 51.8381C60.258 51.7566 60.0705 51.7159 59.8565 51.7159C59.6387 51.7159 59.4484 51.7566 59.2855 51.8381C59.1226 51.9176 58.9967 52.0312 58.9077 52.179C58.8187 52.3248 58.7751 52.4962 58.777 52.6932C58.7751 52.8939 58.8196 53.0691 58.9105 53.2188C59.0033 53.3684 59.1312 53.4848 59.294 53.5682C59.4569 53.6515 59.6444 53.6932 59.8565 53.6932ZM63.0249 57V51.1818H66.5362V51.8068H63.7294V53.7727H66.3544V54.3977H63.7294V56.375H66.5817V57H63.0249ZM67.8857 57L70.4879 51.8523V51.8068H67.4879V51.1818H71.2152V51.8409L68.6243 57H67.8857ZM72.3764 57V51.1818H75.8651V51.8068H73.081V53.7727H75.6037V54.3977H73.081V57H72.3764ZM77.0717 57V51.1818H80.5604V51.8068H77.7763V53.7727H80.299V54.3977H77.7763V57H77.0717Z" fill="black"/>
<path d="M1.27486 57V51.1818H3.30895C3.71425 51.1818 4.04853 51.2519 4.31179 51.392C4.57505 51.5303 4.77107 51.7169 4.89986 51.9517C5.02865 52.1847 5.09304 52.4432 5.09304 52.7273C5.09304 52.9773 5.04853 53.1837 4.95952 53.3466C4.8724 53.5095 4.75687 53.6383 4.61293 53.733C4.47088 53.8277 4.31652 53.8977 4.14986 53.9432V54C4.32789 54.0114 4.50687 54.0739 4.68679 54.1875C4.86671 54.3011 5.01728 54.464 5.13849 54.6761C5.25971 54.8883 5.32031 55.1477 5.32031 55.4545C5.32031 55.7462 5.25402 56.0085 5.12145 56.2415C4.98887 56.4744 4.77959 56.6591 4.49361 56.7955C4.20762 56.9318 3.83546 57 3.37713 57H1.27486ZM1.9794 56.375H3.37713C3.83736 56.375 4.16406 56.286 4.35724 56.108C4.55232 55.928 4.64986 55.7102 4.64986 55.4545C4.64986 55.2576 4.59967 55.0758 4.49929 54.9091C4.39891 54.7405 4.25592 54.6061 4.07031 54.5057C3.88471 54.4034 3.66501 54.3523 3.41122 54.3523H1.9794V56.375ZM1.9794 53.7386H3.28622C3.49834 53.7386 3.68963 53.697 3.86009 53.6136C4.03243 53.5303 4.1688 53.4129 4.26918 53.2614C4.37145 53.1098 4.42259 52.9318 4.42259 52.7273C4.42259 52.4716 4.33357 52.2547 4.15554 52.0767C3.97751 51.8968 3.69531 51.8068 3.30895 51.8068H1.9794V53.7386ZM8.30753 57.0795C8.06889 57.0758 7.83026 57.0303 7.59162 56.9432C7.35298 56.8561 7.13518 56.7093 6.93821 56.5028C6.74124 56.2945 6.5831 56.0133 6.46378 55.6591C6.34446 55.303 6.2848 54.8561 6.2848 54.3182C6.2848 53.803 6.3331 53.3466 6.42969 52.9489C6.52628 52.5492 6.66643 52.2131 6.85014 51.9403C7.03385 51.6657 7.25545 51.4574 7.51491 51.3153C7.77628 51.1733 8.07079 51.1023 8.39844 51.1023C8.7242 51.1023 9.01397 51.1676 9.26776 51.2983C9.52344 51.4271 9.73177 51.607 9.89276 51.8381C10.0537 52.0691 10.1579 52.3352 10.2053 52.6364H9.51207C9.44768 52.375 9.32268 52.1581 9.13707 51.9858C8.95147 51.8134 8.70526 51.7273 8.39844 51.7273C7.94768 51.7273 7.59257 51.9233 7.3331 52.3153C7.07552 52.7074 6.94579 53.2576 6.94389 53.9659H6.98935C7.09541 53.8049 7.22135 53.6676 7.36719 53.554C7.51491 53.4384 7.67779 53.3494 7.85582 53.2869C8.03385 53.2244 8.2223 53.1932 8.42116 53.1932C8.7545 53.1932 9.05942 53.2765 9.33594 53.4432C9.61245 53.608 9.83404 53.8362 10.0007 54.1278C10.1674 54.4176 10.2507 54.75 10.2507 55.125C10.2507 55.4848 10.1702 55.8144 10.0092 56.1136C9.84825 56.411 9.62192 56.6477 9.33026 56.8239C9.04048 56.9981 8.69957 57.0833 8.30753 57.0795ZM8.30753 56.4545C8.54616 56.4545 8.76018 56.3949 8.94957 56.2756C9.14086 56.1562 9.29143 55.9962 9.40128 55.7955C9.51302 55.5947 9.56889 55.3712 9.56889 55.125C9.56889 54.8845 9.51491 54.6657 9.40696 54.4688C9.3009 54.2699 9.15412 54.1117 8.96662 53.9943C8.78101 53.8769 8.56889 53.8182 8.33026 53.8182C8.15033 53.8182 7.98272 53.8542 7.82741 53.9261C7.67211 53.9962 7.53575 54.0928 7.41832 54.2159C7.30279 54.339 7.21188 54.4801 7.1456 54.6392C7.07931 54.7964 7.04616 54.9621 7.04616 55.1364C7.04616 55.3674 7.10014 55.5833 7.2081 55.7841C7.31795 55.9848 7.46757 56.1468 7.65696 56.2699C7.84825 56.393 8.0651 56.4545 8.30753 56.4545ZM11.4702 57V51.1818H14.9815V51.8068H12.1747V53.7727H14.7997V54.3977H12.1747V56.375H15.027V57H11.4702ZM16.2514 57V51.1818H18.2855C18.6908 51.1818 19.0251 51.2519 19.2884 51.392C19.5516 51.5303 19.7476 51.7169 19.8764 51.9517C20.0052 52.1847 20.0696 52.4432 20.0696 52.7273C20.0696 52.9773 20.0251 53.1837 19.9361 53.3466C19.849 53.5095 19.7334 53.6383 19.5895 53.733C19.4474 53.8277 19.2931 53.8977 19.1264 53.9432V54C19.3045 54.0114 19.4834 54.0739 19.6634 54.1875C19.8433 54.3011 19.9938 54.464 20.1151 54.6761C20.2363 54.8883 20.2969 55.1477 20.2969 55.4545C20.2969 55.7462 20.2306 56.0085 20.098 56.2415C19.9654 56.4744 19.7562 56.6591 19.4702 56.7955C19.1842 56.9318 18.812 57 18.3537 57H16.2514ZM16.956 56.375H18.3537C18.8139 56.375 19.1406 56.286 19.3338 56.108C19.5289 55.928 19.6264 55.7102 19.6264 55.4545C19.6264 55.2576 19.5762 55.0758 19.4759 54.9091C19.3755 54.7405 19.2325 54.6061 19.0469 54.5057C18.8613 54.4034 18.6416 54.3523 18.3878 54.3523H16.956V56.375ZM16.956 53.7386H18.2628C18.4749 53.7386 18.6662 53.697 18.8366 53.6136C19.009 53.5303 19.1454 53.4129 19.2457 53.2614C19.348 53.1098 19.3991 52.9318 19.3991 52.7273C19.3991 52.4716 19.3101 52.2547 19.1321 52.0767C18.9541 51.8968 18.6719 51.8068 18.2855 51.8068H16.956V53.7386ZM23.25 57H21.4545V51.1818H23.3295C23.8939 51.1818 24.3769 51.2983 24.7784 51.5312C25.1799 51.7623 25.4877 52.0947 25.7017 52.5284C25.9157 52.9602 26.0227 53.4773 26.0227 54.0795C26.0227 54.6856 25.9148 55.2074 25.6989 55.6449C25.483 56.0805 25.1686 56.4157 24.7557 56.6506C24.3428 56.8835 23.8409 57 23.25 57ZM22.1591 56.375H23.2045C23.6856 56.375 24.0843 56.2822 24.4006 56.0966C24.7169 55.911 24.9527 55.6468 25.108 55.304C25.2633 54.9612 25.3409 54.553 25.3409 54.0795C25.3409 53.6098 25.2642 53.2055 25.1108 52.8665C24.9574 52.5256 24.7282 52.2642 24.4233 52.0824C24.1184 51.8987 23.7386 51.8068 23.2841 51.8068H22.1591V56.375ZM28.9659 57.0795C28.5758 57.0795 28.2311 57.0104 27.9318 56.8722C27.6345 56.732 27.4025 56.5398 27.2358 56.2955C27.0691 56.0492 26.9867 55.7689 26.9886 55.4545C26.9867 55.2083 27.035 54.9811 27.1335 54.7727C27.232 54.5625 27.3665 54.3873 27.5369 54.2472C27.7093 54.1051 27.9015 54.0152 28.1136 53.9773V53.9432C27.8352 53.8712 27.6136 53.715 27.4489 53.4744C27.2841 53.232 27.2027 52.9564 27.2045 52.6477C27.2027 52.3523 27.2775 52.0881 27.429 51.8551C27.5805 51.6222 27.7888 51.4384 28.054 51.304C28.321 51.1695 28.625 51.1023 28.9659 51.1023C29.303 51.1023 29.6042 51.1695 29.8693 51.304C30.1345 51.4384 30.3428 51.6222 30.4943 51.8551C30.6477 52.0881 30.7254 52.3523 30.7273 52.6477C30.7254 52.9564 30.6411 53.232 30.4744 53.4744C30.3097 53.715 30.0909 53.8712 29.8182 53.9432V53.9773C30.0284 54.0152 30.2178 54.1051 30.3864 54.2472C30.5549 54.3873 30.6894 54.5625 30.7898 54.7727C30.8902 54.9811 30.9413 55.2083 30.9432 55.4545C30.9413 55.7689 30.8561 56.0492 30.6875 56.2955C30.5208 56.5398 30.2888 56.732 29.9915 56.8722C29.696 57.0104 29.3542 57.0795 28.9659 57.0795ZM28.9659 56.4545C29.2292 56.4545 29.4564 56.4119 29.6477 56.3267C29.839 56.2415 29.9867 56.1212 30.0909 55.9659C30.1951 55.8106 30.2481 55.6288 30.25 55.4205C30.2481 55.2008 30.1913 55.0066 30.0795 54.8381C29.9678 54.6695 29.8153 54.5369 29.6222 54.4403C29.4309 54.3437 29.2121 54.2955 28.9659 54.2955C28.7178 54.2955 28.4962 54.3437 28.3011 54.4403C28.108 54.5369 27.9555 54.6695 27.8438 54.8381C27.7339 55.0066 27.6799 55.2008 27.6818 55.4205C27.6799 55.6288 27.7301 55.8106 27.8324 55.9659C27.9366 56.1212 28.0852 56.2415 28.2784 56.3267C28.4716 56.4119 28.7008 56.4545 28.9659 56.4545ZM28.9659 53.6932C29.1742 53.6932 29.3589 53.6515 29.5199 53.5682C29.6828 53.4848 29.8106 53.3684 29.9034 53.2188C29.9962 53.0691 30.0436 52.8939 30.0455 52.6932C30.0436 52.4962 29.9972 52.3248 29.9062 52.179C29.8153 52.0312 29.6894 51.9176 29.5284 51.8381C29.3674 51.7566 29.1799 51.7159 28.9659 51.7159C28.7481 51.7159 28.5578 51.7566 28.3949 51.8381C28.232 51.9176 28.1061 52.0312 28.017 52.179C27.928 52.3248 27.8845 52.4962 27.8864 52.6932C27.8845 52.8939 27.929 53.0691 28.0199 53.2188C28.1127 53.3684 28.2405 53.4848 28.4034 53.5682C28.5663 53.6515 28.7538 53.6932 28.9659 53.6932Z" fill="black"/>
<path d="M104.626 57V51.1818H108.115V51.8068H105.331V53.7727H107.854V54.3977H105.331V57H104.626ZM109.322 57V51.1818H112.81V51.8068H110.026V53.7727H112.549V54.3977H110.026V57H109.322ZM114.097 57L116.699 51.8523V51.8068H113.699V51.1818H117.426V51.8409L114.835 57H114.097ZM120.232 57.0795C119.841 57.0795 119.497 57.0104 119.197 56.8722C118.9 56.732 118.668 56.5398 118.501 56.2955C118.335 56.0492 118.252 55.7689 118.254 55.4545C118.252 55.2083 118.301 54.9811 118.399 54.7727C118.498 54.5625 118.632 54.3873 118.803 54.2472C118.975 54.1051 119.167 54.0152 119.379 53.9773V53.9432C119.101 53.8712 118.879 53.715 118.714 53.4744C118.55 53.232 118.468 52.9564 118.47 52.6477C118.468 52.3523 118.543 52.0881 118.695 51.8551C118.846 51.6222 119.054 51.4384 119.32 51.304C119.587 51.1695 119.891 51.1023 120.232 51.1023C120.569 51.1023 120.87 51.1695 121.135 51.304C121.4 51.4384 121.608 51.6222 121.76 51.8551C121.913 52.0881 121.991 52.3523 121.993 52.6477C121.991 52.9564 121.907 53.232 121.74 53.4744C121.575 53.715 121.357 53.8712 121.084 53.9432V53.9773C121.294 54.0152 121.483 54.1051 121.652 54.2472C121.821 54.3873 121.955 54.5625 122.055 54.7727C122.156 54.9811 122.207 55.2083 122.209 55.4545C122.207 55.7689 122.122 56.0492 121.953 56.2955C121.786 56.5398 121.554 56.732 121.257 56.8722C120.962 57.0104 120.62 57.0795 120.232 57.0795ZM120.232 56.4545C120.495 56.4545 120.722 56.4119 120.913 56.3267C121.105 56.2415 121.252 56.1212 121.357 55.9659C121.461 55.8106 121.514 55.6288 121.516 55.4205C121.514 55.2008 121.457 55.0066 121.345 54.8381C121.233 54.6695 121.081 54.5369 120.888 54.4403C120.696 54.3437 120.478 54.2955 120.232 54.2955C119.983 54.2955 119.762 54.3437 119.567 54.4403C119.374 54.5369 119.221 54.6695 119.109 54.8381C119 55.0066 118.946 55.2008 118.947 55.4205C118.946 55.6288 118.996 55.8106 119.098 55.9659C119.202 56.1212 119.351 56.2415 119.544 56.3267C119.737 56.4119 119.966 56.4545 120.232 56.4545ZM120.232 53.6932C120.44 53.6932 120.625 53.6515 120.786 53.5682C120.948 53.4848 121.076 53.3684 121.169 53.2188C121.262 53.0691 121.309 52.8939 121.311 52.6932C121.309 52.4962 121.263 52.3248 121.172 52.179C121.081 52.0312 120.955 51.9176 120.794 51.8381C120.633 51.7566 120.446 51.7159 120.232 51.7159C120.014 51.7159 119.823 51.7566 119.661 51.8381C119.498 51.9176 119.372 52.0312 119.283 52.179C119.194 52.3248 119.15 52.4962 119.152 52.6932C119.15 52.8939 119.195 53.0691 119.286 53.2188C119.378 53.3684 119.506 53.4848 119.669 53.5682C119.832 53.6515 120.019 53.6932 120.232 53.6932ZM123.479 57L126.082 51.8523V51.8068H123.082V51.1818H126.809V51.8409L124.218 57H123.479ZM129.614 57.0795C129.224 57.0795 128.879 57.0104 128.58 56.8722C128.283 56.732 128.051 56.5398 127.884 56.2955C127.718 56.0492 127.635 55.7689 127.637 55.4545C127.635 55.2083 127.683 54.9811 127.782 54.7727C127.88 54.5625 128.015 54.3873 128.185 54.2472C128.358 54.1051 128.55 54.0152 128.762 53.9773V53.9432C128.484 53.8712 128.262 53.715 128.097 53.4744C127.933 53.232 127.851 52.9564 127.853 52.6477C127.851 52.3523 127.926 52.0881 128.077 51.8551C128.229 51.6222 128.437 51.4384 128.702 51.304C128.969 51.1695 129.273 51.1023 129.614 51.1023C129.951 51.1023 130.253 51.1695 130.518 51.304C130.783 51.4384 130.991 51.6222 131.143 51.8551C131.296 52.0881 131.374 52.3523 131.376 52.6477C131.374 52.9564 131.29 53.232 131.123 53.4744C130.958 53.715 130.739 53.8712 130.467 53.9432V53.9773C130.677 54.0152 130.866 54.1051 131.035 54.2472C131.203 54.3873 131.338 54.5625 131.438 54.7727C131.539 54.9811 131.59 55.2083 131.592 55.4545C131.59 55.7689 131.504 56.0492 131.336 56.2955C131.169 56.5398 130.937 56.732 130.64 56.8722C130.344 57.0104 130.003 57.0795 129.614 57.0795ZM129.614 56.4545C129.878 56.4545 130.105 56.4119 130.296 56.3267C130.487 56.2415 130.635 56.1212 130.739 55.9659C130.844 55.8106 130.897 55.6288 130.898 55.4205C130.897 55.2008 130.84 55.0066 130.728 54.8381C130.616 54.6695 130.464 54.5369 130.271 54.4403C130.079 54.3437 129.861 54.2955 129.614 54.2955C129.366 54.2955 129.145 54.3437 128.95 54.4403C128.756 54.5369 128.604 54.6695 128.492 54.8381C128.382 55.0066 128.328 55.2008 128.33 55.4205C128.328 55.6288 128.379 55.8106 128.481 55.9659C128.585 56.1212 128.734 56.2415 128.927 56.3267C129.12 56.4119 129.349 56.4545 129.614 56.4545ZM129.614 53.6932C129.823 53.6932 130.007 53.6515 130.168 53.5682C130.331 53.4848 130.459 53.3684 130.552 53.2188C130.645 53.0691 130.692 52.8939 130.694 52.6932C130.692 52.4962 130.646 52.3248 130.555 52.179C130.464 52.0312 130.338 51.9176 130.177 51.8381C130.016 51.7566 129.828 51.7159 129.614 51.7159C129.397 51.7159 129.206 51.7566 129.043 51.8381C128.88 51.9176 128.754 52.0312 128.665 52.179C128.576 52.3248 128.533 52.4962 128.535 52.6932C128.533 52.8939 128.577 53.0691 128.668 53.2188C128.761 53.3684 128.889 53.4848 129.052 53.5682C129.215 53.6515 129.402 53.6932 129.614 53.6932Z" fill="black"/>
<path d="M155.63 57V51.1818H159.119V51.8068H156.335V53.7727H158.858V54.3977H156.335V57H155.63ZM160.326 57V51.1818H163.814V51.8068H161.03V53.7727H163.553V54.3977H161.03V57H160.326ZM165.021 57V51.1818H168.51V51.8068H165.725V53.7727H168.248V54.3977H165.725V57H165.021ZM169.228 57H168.49L170.626 51.1818H171.353L173.49 57H172.751L171.012 52.1023H170.967L169.228 57ZM169.501 54.7273H172.478V55.3523H169.501V54.7273ZM174.475 57L177.078 51.8523V51.8068H174.078V51.1818H177.805V51.8409L175.214 57H174.475ZM180.61 57.0795C180.22 57.0795 179.876 57.0104 179.576 56.8722C179.279 56.732 179.047 56.5398 178.88 56.2955C178.714 56.0492 178.631 55.7689 178.633 55.4545C178.631 55.2083 178.68 54.9811 178.778 54.7727C178.877 54.5625 179.011 54.3873 179.181 54.2472C179.354 54.1051 179.546 54.0152 179.758 53.9773V53.9432C179.48 53.8712 179.258 53.715 179.093 53.4744C178.929 53.232 178.847 52.9564 178.849 52.6477C178.847 52.3523 178.922 52.0881 179.074 51.8551C179.225 51.6222 179.433 51.4384 179.699 51.304C179.966 51.1695 180.27 51.1023 180.61 51.1023C180.948 51.1023 181.249 51.1695 181.514 51.304C181.779 51.4384 181.987 51.6222 182.139 51.8551C182.292 52.0881 182.37 52.3523 182.372 52.6477C182.37 52.9564 182.286 53.232 182.119 53.4744C181.954 53.715 181.735 53.8712 181.463 53.9432V53.9773C181.673 54.0152 181.862 54.1051 182.031 54.2472C182.199 54.3873 182.334 54.5625 182.434 54.7727C182.535 54.9811 182.586 55.2083 182.588 55.4545C182.586 55.7689 182.501 56.0492 182.332 56.2955C182.165 56.5398 181.933 56.732 181.636 56.8722C181.341 57.0104 180.999 57.0795 180.61 57.0795ZM180.61 56.4545C180.874 56.4545 181.101 56.4119 181.292 56.3267C181.484 56.2415 181.631 56.1212 181.735 55.9659C181.84 55.8106 181.893 55.6288 181.895 55.4205C181.893 55.2008 181.836 55.0066 181.724 54.8381C181.612 54.6695 181.46 54.5369 181.267 54.4403C181.075 54.3437 180.857 54.2955 180.61 54.2955C180.362 54.2955 180.141 54.3437 179.946 54.4403C179.752 54.5369 179.6 54.6695 179.488 54.8381C179.378 55.0066 179.324 55.2008 179.326 55.4205C179.324 55.6288 179.375 55.8106 179.477 55.9659C179.581 56.1212 179.73 56.2415 179.923 56.3267C180.116 56.4119 180.345 56.4545 180.61 56.4545ZM180.61 53.6932C180.819 53.6932 181.003 53.6515 181.164 53.5682C181.327 53.4848 181.455 53.3684 181.548 53.2188C181.641 53.0691 181.688 52.8939 181.69 52.6932C181.688 52.4962 181.642 52.3248 181.551 52.179C181.46 52.0312 181.334 51.9176 181.173 51.8381C181.012 51.7566 180.824 51.7159 180.61 51.7159C180.393 51.7159 180.202 51.7566 180.039 51.8381C179.877 51.9176 179.751 52.0312 179.662 52.179C179.573 52.3248 179.529 52.4962 179.531 52.6932C179.529 52.8939 179.574 53.0691 179.664 53.2188C179.757 53.3684 179.885 53.4848 180.048 53.5682C180.211 53.6515 180.398 53.6932 180.61 53.6932Z" fill="black"/>
<path d="M205.466 57V51.1818H208.955V51.8068H206.171V53.7727H208.694V54.3977H206.171V57H205.466ZM210.162 57V51.1818H213.65V51.8068H210.866V53.7727H213.389V54.3977H210.866V57H210.162ZM219.539 53H218.834C218.792 52.7973 218.72 52.6193 218.615 52.4659C218.513 52.3125 218.388 52.1837 218.24 52.0795C218.095 51.9735 217.933 51.8939 217.755 51.8409C217.577 51.7879 217.391 51.7614 217.198 51.7614C216.846 51.7614 216.526 51.8504 216.24 52.0284C215.956 52.2064 215.73 52.4688 215.561 52.8153C215.395 53.1619 215.311 53.5871 215.311 54.0909C215.311 54.5947 215.395 55.0199 215.561 55.3665C215.73 55.7131 215.956 55.9754 216.24 56.1534C216.526 56.3314 216.846 56.4205 217.198 56.4205C217.391 56.4205 217.577 56.3939 217.755 56.3409C217.933 56.2879 218.095 56.2093 218.24 56.1051C218.388 55.9991 218.513 55.8693 218.615 55.7159C218.72 55.5606 218.792 55.3826 218.834 55.1818H219.539C219.486 55.4792 219.389 55.7453 219.249 55.9801C219.109 56.215 218.935 56.4148 218.726 56.5795C218.518 56.7424 218.284 56.8665 218.025 56.9517C217.767 57.0369 217.491 57.0795 217.198 57.0795C216.702 57.0795 216.26 56.9583 215.874 56.7159C215.488 56.4735 215.184 56.1288 214.962 55.6818C214.74 55.2348 214.63 54.7045 214.63 54.0909C214.63 53.4773 214.74 52.947 214.962 52.5C215.184 52.053 215.488 51.7083 215.874 51.4659C216.26 51.2235 216.702 51.1023 217.198 51.1023C217.491 51.1023 217.767 51.1449 218.025 51.2301C218.284 51.3153 218.518 51.4403 218.726 51.6051C218.935 51.768 219.109 51.9669 219.249 52.2017C219.389 52.4347 219.486 52.7008 219.539 53ZM225.359 53H224.654C224.613 52.7973 224.54 52.6193 224.436 52.4659C224.333 52.3125 224.208 52.1837 224.061 52.0795C223.915 51.9735 223.753 51.8939 223.575 51.8409C223.397 51.7879 223.211 51.7614 223.018 51.7614C222.666 51.7614 222.347 51.8504 222.061 52.0284C221.777 52.2064 221.55 52.4688 221.382 52.8153C221.215 53.1619 221.132 53.5871 221.132 54.0909C221.132 54.5947 221.215 55.0199 221.382 55.3665C221.55 55.7131 221.777 55.9754 222.061 56.1534C222.347 56.3314 222.666 56.4205 223.018 56.4205C223.211 56.4205 223.397 56.3939 223.575 56.3409C223.753 56.2879 223.915 56.2093 224.061 56.1051C224.208 55.9991 224.333 55.8693 224.436 55.7159C224.54 55.5606 224.613 55.3826 224.654 55.1818H225.359C225.306 55.4792 225.209 55.7453 225.069 55.9801C224.929 56.215 224.755 56.4148 224.547 56.5795C224.338 56.7424 224.104 56.8665 223.845 56.9517C223.587 57.0369 223.312 57.0795 223.018 57.0795C222.522 57.0795 222.081 56.9583 221.694 56.7159C221.308 56.4735 221.004 56.1288 220.782 55.6818C220.561 55.2348 220.45 54.7045 220.45 54.0909C220.45 53.4773 220.561 52.947 220.782 52.5C221.004 52.053 221.308 51.7083 221.694 51.4659C222.081 51.2235 222.522 51.1023 223.018 51.1023C223.312 51.1023 223.587 51.1449 223.845 51.2301C224.104 51.3153 224.338 51.4403 224.547 51.6051C224.755 51.768 224.929 51.9669 225.069 52.2017C225.209 52.4347 225.306 52.7008 225.359 53ZM226.577 57L229.179 51.8523V51.8068H226.179V51.1818H229.907V51.8409L227.316 57H226.577ZM232.738 57.0795C232.31 57.0795 231.946 56.9631 231.645 56.7301C231.343 56.4953 231.113 56.1553 230.954 55.7102C230.795 55.2633 230.716 54.7235 230.716 54.0909C230.716 53.4621 230.795 52.9252 230.954 52.4801C231.115 52.0331 231.346 51.6922 231.647 51.4574C231.95 51.2206 232.314 51.1023 232.738 51.1023C233.163 51.1023 233.525 51.2206 233.826 51.4574C234.129 51.6922 234.36 52.0331 234.52 52.4801C234.681 52.9252 234.761 53.4621 234.761 54.0909C234.761 54.7235 234.681 55.2633 234.522 55.7102C234.363 56.1553 234.133 56.4953 233.832 56.7301C233.531 56.9631 233.166 57.0795 232.738 57.0795ZM232.738 56.4545C233.163 56.4545 233.492 56.25 233.727 55.8409C233.962 55.4318 234.079 54.8485 234.079 54.0909C234.079 53.5871 234.025 53.1581 233.917 52.804C233.811 52.4498 233.658 52.1799 233.457 51.9943C233.258 51.8087 233.019 51.7159 232.738 51.7159C232.318 51.7159 231.989 51.9233 231.752 52.3381C231.516 52.7509 231.397 53.3352 231.397 54.0909C231.397 54.5947 231.45 55.0227 231.556 55.375C231.663 55.7273 231.815 55.9953 232.014 56.179C232.215 56.3627 232.456 56.4545 232.738 56.4545Z" fill="black"/>
<path d="M256.49 57H255.751L257.888 51.1818H258.615L260.751 57H260.013L258.274 52.1023H258.229L256.49 57ZM256.763 54.7273H259.74V55.3523H256.763V54.7273ZM263.453 57.0795C263.025 57.0795 262.661 56.9631 262.359 56.7301C262.058 56.4953 261.828 56.1553 261.669 55.7102C261.51 55.2633 261.43 54.7235 261.43 54.0909C261.43 53.4621 261.51 52.9252 261.669 52.4801C261.83 52.0331 262.061 51.6922 262.362 51.4574C262.665 51.2206 263.029 51.1023 263.453 51.1023C263.877 51.1023 264.24 51.2206 264.541 51.4574C264.844 51.6922 265.075 52.0331 265.234 52.4801C265.395 52.9252 265.476 53.4621 265.476 54.0909C265.476 54.7235 265.396 55.2633 265.237 55.7102C265.078 56.1553 264.848 56.4953 264.547 56.7301C264.246 56.9631 263.881 57.0795 263.453 57.0795ZM263.453 56.4545C263.877 56.4545 264.207 56.25 264.442 55.8409C264.677 55.4318 264.794 54.8485 264.794 54.0909C264.794 53.5871 264.74 53.1581 264.632 52.804C264.526 52.4498 264.373 52.1799 264.172 51.9943C263.973 51.8087 263.733 51.7159 263.453 51.7159C263.033 51.7159 262.704 51.9233 262.467 52.3381C262.231 52.7509 262.112 53.3352 262.112 54.0909C262.112 54.5947 262.165 55.0227 262.271 55.375C262.377 55.7273 262.53 55.9953 262.729 56.179C262.929 56.3627 263.171 56.4545 263.453 56.4545ZM266.658 57V51.1818H268.692C269.097 51.1818 269.431 51.2519 269.695 51.392C269.958 51.5303 270.154 51.7169 270.283 51.9517C270.411 52.1847 270.476 52.4432 270.476 52.7273C270.476 52.9773 270.431 53.1837 270.342 53.3466C270.255 53.5095 270.14 53.6383 269.996 53.733C269.854 53.8277 269.699 53.8977 269.533 53.9432V54C269.711 54.0114 269.89 54.0739 270.07 54.1875C270.25 54.3011 270.4 54.464 270.521 54.6761C270.643 54.8883 270.703 55.1477 270.703 55.4545C270.703 55.7462 270.637 56.0085 270.504 56.2415C270.372 56.4744 270.162 56.6591 269.876 56.7955C269.59 56.9318 269.218 57 268.76 57H266.658ZM267.362 56.375H268.76C269.22 56.375 269.547 56.286 269.74 56.108C269.935 55.928 270.033 55.7102 270.033 55.4545C270.033 55.2576 269.982 55.0758 269.882 54.9091C269.782 54.7405 269.639 54.6061 269.453 54.5057C269.268 54.4034 269.048 54.3523 268.794 54.3523H267.362V56.375ZM267.362 53.7386H268.669C268.881 53.7386 269.072 53.697 269.243 53.6136C269.415 53.5303 269.552 53.4129 269.652 53.2614C269.754 53.1098 269.805 52.9318 269.805 52.7273C269.805 52.4716 269.716 52.2547 269.538 52.0767C269.36 51.8968 269.078 51.8068 268.692 51.8068H267.362V53.7386ZM271.861 57V51.1818H275.372V51.8068H272.565V53.7727H275.19V54.3977H272.565V56.375H275.418V57H271.861ZM281.324 53H280.619C280.578 52.7973 280.505 52.6193 280.401 52.4659C280.298 52.3125 280.173 52.1837 280.026 52.0795C279.88 51.9735 279.718 51.8939 279.54 51.8409C279.362 51.7879 279.176 51.7614 278.983 51.7614C278.631 51.7614 278.312 51.8504 278.026 52.0284C277.741 52.2064 277.515 52.4688 277.347 52.8153C277.18 53.1619 277.097 53.5871 277.097 54.0909C277.097 54.5947 277.18 55.0199 277.347 55.3665C277.515 55.7131 277.741 55.9754 278.026 56.1534C278.312 56.3314 278.631 56.4205 278.983 56.4205C279.176 56.4205 279.362 56.3939 279.54 56.3409C279.718 56.2879 279.88 56.2093 280.026 56.1051C280.173 55.9991 280.298 55.8693 280.401 55.7159C280.505 55.5606 280.578 55.3826 280.619 55.1818H281.324C281.271 55.4792 281.174 55.7453 281.034 55.9801C280.894 56.215 280.72 56.4148 280.511 56.5795C280.303 56.7424 280.069 56.8665 279.81 56.9517C279.552 57.0369 279.277 57.0795 278.983 57.0795C278.487 57.0795 278.045 56.9583 277.659 56.7159C277.273 56.4735 276.969 56.1288 276.747 55.6818C276.526 55.2348 276.415 54.7045 276.415 54.0909C276.415 53.4773 276.526 52.947 276.747 52.5C276.969 52.053 277.273 51.7083 277.659 51.4659C278.045 51.2235 278.487 51.1023 278.983 51.1023C279.277 51.1023 279.552 51.1449 279.81 51.2301C280.069 51.3153 280.303 51.4403 280.511 51.6051C280.72 51.768 280.894 51.9669 281.034 52.2017C281.174 52.4347 281.271 52.7008 281.324 53ZM282.462 57V51.1818H285.951V51.8068H283.167V53.7727H285.69V54.3977H283.167V57H282.462Z" fill="black"/>
<path d="M308.848 57V56.4886L310.769 54.3864C310.994 54.1402 311.18 53.9261 311.326 53.7443C311.471 53.5606 311.579 53.3883 311.65 53.2273C311.721 53.0644 311.757 52.8939 311.757 52.7159C311.757 52.5114 311.708 52.3343 311.61 52.1847C311.513 52.035 311.381 51.9195 311.212 51.8381C311.043 51.7566 310.854 51.7159 310.644 51.7159C310.42 51.7159 310.225 51.7623 310.059 51.8551C309.894 51.946 309.766 52.0739 309.675 52.2386C309.586 52.4034 309.542 52.5966 309.542 52.8182H308.871C308.871 52.4773 308.95 52.178 309.107 51.9205C309.264 51.6629 309.478 51.4621 309.749 51.3182C310.022 51.1742 310.328 51.1023 310.667 51.1023C311.007 51.1023 311.31 51.1742 311.573 51.3182C311.836 51.4621 312.042 51.6562 312.192 51.9006C312.342 52.1449 312.417 52.4167 312.417 52.7159C312.417 52.9299 312.378 53.1392 312.3 53.3438C312.224 53.5464 312.092 53.7727 311.902 54.0227C311.715 54.2708 311.454 54.5739 311.121 54.9318L309.814 56.3295V56.375H312.519V57H308.848ZM315.544 51.1023C315.783 51.1042 316.022 51.1496 316.26 51.2386C316.499 51.3277 316.717 51.4754 316.914 51.6818C317.111 51.8864 317.269 52.1657 317.388 52.5199C317.507 52.8741 317.567 53.3182 317.567 53.8523C317.567 54.3693 317.518 54.8286 317.419 55.2301C317.323 55.6297 317.183 55.9669 316.999 56.2415C316.817 56.5161 316.596 56.7244 316.334 56.8665C316.075 57.0085 315.781 57.0795 315.453 57.0795C315.128 57.0795 314.837 57.0152 314.581 56.8864C314.328 56.7557 314.119 56.5748 313.956 56.3438C313.795 56.1108 313.692 55.8409 313.647 55.5341H314.34C314.402 55.8011 314.526 56.0218 314.712 56.196C314.9 56.3684 315.147 56.4545 315.453 56.4545C315.902 56.4545 316.257 56.2585 316.516 55.8665C316.777 55.4744 316.908 54.9205 316.908 54.2045H316.863C316.757 54.3636 316.631 54.5009 316.485 54.6165C316.339 54.732 316.177 54.821 315.999 54.8835C315.821 54.946 315.632 54.9773 315.431 54.9773C315.097 54.9773 314.792 54.8949 314.513 54.7301C314.237 54.5634 314.015 54.3352 313.848 54.0455C313.684 53.7538 313.601 53.4205 313.601 53.0455C313.601 52.6894 313.681 52.3636 313.84 52.0682C314.001 51.7708 314.226 51.5341 314.516 51.358C314.808 51.1818 315.15 51.0966 315.544 51.1023ZM315.544 51.7273C315.306 51.7273 315.091 51.7869 314.9 51.9062C314.71 52.0237 314.56 52.1828 314.448 52.3835C314.338 52.5824 314.283 52.803 314.283 53.0455C314.283 53.2879 314.336 53.5085 314.442 53.7074C314.55 53.9044 314.697 54.0616 314.882 54.179C315.07 54.2945 315.283 54.3523 315.522 54.3523C315.702 54.3523 315.869 54.3172 316.025 54.2472C316.18 54.1752 316.315 54.0777 316.431 53.9545C316.548 53.8295 316.64 53.6884 316.706 53.5312C316.773 53.3722 316.806 53.2064 316.806 53.0341C316.806 52.8068 316.751 52.5937 316.641 52.3949C316.533 52.196 316.383 52.035 316.192 51.9119C316.003 51.7888 315.787 51.7273 315.544 51.7273ZM318.684 57V56.4886L320.605 54.3864C320.83 54.1402 321.016 53.9261 321.162 53.7443C321.307 53.5606 321.415 53.3883 321.485 53.2273C321.557 53.0644 321.593 52.8939 321.593 52.7159C321.593 52.5114 321.544 52.3343 321.446 52.1847C321.349 52.035 321.217 51.9195 321.048 51.8381C320.879 51.7566 320.69 51.7159 320.48 51.7159C320.256 51.7159 320.061 51.7623 319.895 51.8551C319.73 51.946 319.602 52.0739 319.511 52.2386C319.422 52.4034 319.377 52.5966 319.377 52.8182H318.707C318.707 52.4773 318.786 52.178 318.943 51.9205C319.1 51.6629 319.314 51.4621 319.585 51.3182C319.858 51.1742 320.163 51.1023 320.502 51.1023C320.843 51.1023 321.145 51.1742 321.409 51.3182C321.672 51.4621 321.878 51.6562 322.028 51.9006C322.178 52.1449 322.252 52.4167 322.252 52.7159C322.252 52.9299 322.214 53.1392 322.136 53.3438C322.06 53.5464 321.928 53.7727 321.738 54.0227C321.551 54.2708 321.29 54.5739 320.957 54.9318L319.65 56.3295V56.375H322.355V57H318.684ZM325.38 51.1023C325.619 51.1042 325.858 51.1496 326.096 51.2386C326.335 51.3277 326.553 51.4754 326.75 51.6818C326.947 51.8864 327.105 52.1657 327.224 52.5199C327.343 52.8741 327.403 53.3182 327.403 53.8523C327.403 54.3693 327.354 54.8286 327.255 55.2301C327.159 55.6297 327.019 55.9669 326.835 56.2415C326.653 56.5161 326.431 56.7244 326.17 56.8665C325.911 57.0085 325.617 57.0795 325.289 57.0795C324.964 57.0795 324.673 57.0152 324.417 56.8864C324.163 56.7557 323.955 56.5748 323.792 56.3438C323.631 56.1108 323.528 55.8409 323.483 55.5341H324.176C324.238 55.8011 324.362 56.0218 324.548 56.196C324.735 56.3684 324.983 56.4545 325.289 56.4545C325.738 56.4545 326.092 56.2585 326.352 55.8665C326.613 55.4744 326.744 54.9205 326.744 54.2045H326.699C326.592 54.3636 326.467 54.5009 326.321 54.6165C326.175 54.732 326.013 54.821 325.835 54.8835C325.657 54.946 325.467 54.9773 325.267 54.9773C324.933 54.9773 324.627 54.8949 324.349 54.7301C324.073 54.5634 323.851 54.3352 323.684 54.0455C323.52 53.7538 323.437 53.4205 323.437 53.0455C323.437 52.6894 323.517 52.3636 323.676 52.0682C323.837 51.7708 324.062 51.5341 324.352 51.358C324.644 51.1818 324.986 51.0966 325.38 51.1023ZM325.38 51.7273C325.142 51.7273 324.927 51.7869 324.735 51.9062C324.546 52.0237 324.395 52.1828 324.284 52.3835C324.174 52.5824 324.119 52.803 324.119 53.0455C324.119 53.2879 324.172 53.5085 324.278 53.7074C324.386 53.9044 324.533 54.0616 324.718 54.179C324.906 54.2945 325.119 54.3523 325.358 54.3523C325.538 54.3523 325.705 54.3172 325.86 54.2472C326.016 54.1752 326.151 54.0777 326.267 53.9545C326.384 53.8295 326.476 53.6884 326.542 53.5312C326.609 53.3722 326.642 53.2064 326.642 53.0341C326.642 52.8068 326.587 52.5937 326.477 52.3949C326.369 52.196 326.219 52.035 326.028 51.9119C325.839 51.7888 325.623 51.7273 325.38 51.7273ZM328.52 57V56.4886L330.441 54.3864C330.666 54.1402 330.852 53.9261 330.998 53.7443C331.143 53.5606 331.251 53.3883 331.321 53.2273C331.393 53.0644 331.429 52.8939 331.429 52.7159C331.429 52.5114 331.38 52.3343 331.282 52.1847C331.185 52.035 331.052 51.9195 330.884 51.8381C330.715 51.7566 330.526 51.7159 330.316 51.7159C330.092 51.7159 329.897 51.7623 329.73 51.8551C329.566 51.946 329.438 52.0739 329.347 52.2386C329.258 52.4034 329.213 52.5966 329.213 52.8182H328.543C328.543 52.4773 328.622 52.178 328.779 51.9205C328.936 51.6629 329.15 51.4621 329.421 51.3182C329.694 51.1742 329.999 51.1023 330.338 51.1023C330.679 51.1023 330.981 51.1742 331.245 51.3182C331.508 51.4621 331.714 51.6562 331.864 51.9006C332.014 52.1449 332.088 52.4167 332.088 52.7159C332.088 52.9299 332.05 53.1392 331.972 53.3438C331.896 53.5464 331.764 53.7727 331.574 54.0227C331.387 54.2708 331.126 54.5739 330.793 54.9318L329.486 56.3295V56.375H332.191V57H328.52ZM335.216 51.1023C335.455 51.1042 335.694 51.1496 335.932 51.2386C336.171 51.3277 336.389 51.4754 336.586 51.6818C336.783 51.8864 336.941 52.1657 337.06 52.5199C337.179 52.8741 337.239 53.3182 337.239 53.8523C337.239 54.3693 337.19 54.8286 337.091 55.2301C336.995 55.6297 336.855 55.9669 336.671 56.2415C336.489 56.5161 336.267 56.7244 336.006 56.8665C335.747 57.0085 335.453 57.0795 335.125 57.0795C334.8 57.0795 334.509 57.0152 334.253 56.8864C333.999 56.7557 333.791 56.5748 333.628 56.3438C333.467 56.1108 333.364 55.8409 333.319 55.5341H334.012C334.074 55.8011 334.198 56.0218 334.384 56.196C334.571 56.3684 334.819 56.4545 335.125 56.4545C335.574 56.4545 335.928 56.2585 336.188 55.8665C336.449 55.4744 336.58 54.9205 336.58 54.2045H336.534C336.428 54.3636 336.302 54.5009 336.157 54.6165C336.011 54.732 335.849 54.821 335.671 54.8835C335.493 54.946 335.303 54.9773 335.103 54.9773C334.769 54.9773 334.463 54.8949 334.185 54.7301C333.908 54.5634 333.687 54.3352 333.52 54.0455C333.355 53.7538 333.273 53.4205 333.273 53.0455C333.273 52.6894 333.353 52.3636 333.512 52.0682C333.673 51.7708 333.898 51.5341 334.188 51.358C334.48 51.1818 334.822 51.0966 335.216 51.1023ZM335.216 51.7273C334.978 51.7273 334.763 51.7869 334.571 51.9062C334.382 52.0237 334.231 52.1828 334.12 52.3835C334.01 52.5824 333.955 52.803 333.955 53.0455C333.955 53.2879 334.008 53.5085 334.114 53.7074C334.222 53.9044 334.369 54.0616 334.554 54.179C334.742 54.2945 334.955 54.3523 335.194 54.3523C335.373 54.3523 335.541 54.3172 335.696 54.2472C335.852 54.1752 335.987 54.0777 336.103 53.9545C336.22 53.8295 336.312 53.6884 336.378 53.5312C336.444 53.3722 336.478 53.2064 336.478 53.0341C336.478 52.8068 336.423 52.5937 336.313 52.3949C336.205 52.196 336.055 52.035 335.864 51.9119C335.675 51.7888 335.459 51.7273 335.216 51.7273Z" fill="white"/>
</svg>
